<mxfile host="65bd71144e">
    <diagram name="Page-1" id="tapyRQWNl1LLDi8Lvljd">
        <mxGraphModel dx="1652" dy="1211" grid="1" gridSize="10" guides="1" tooltips="1" connect="1" arrows="1" fold="1" page="1" pageScale="1" pageWidth="850" pageHeight="1100" math="0" shadow="0">
            <root>
                <mxCell id="0"/>
                <mxCell id="1" parent="0"/>
                <mxCell id="gxBC3pKMXTBqNfmKYQtD-58" value="" style="rounded=0;whiteSpace=wrap;html=1;fillColor=none;fontSize=11;" parent="1" vertex="1">
                    <mxGeometry x="230" y="140" width="390" height="820" as="geometry"/>
                </mxCell>
                <mxCell id="C66fVddsm9b04qJUR4Iu-2" value="Academic Team" style="shape=umlActor;verticalLabelPosition=bottom;verticalAlign=top;html=1;outlineConnect=0;" parent="1" vertex="1">
                    <mxGeometry x="680" y="480" width="30" height="60" as="geometry"/>
                </mxCell>
                <mxCell id="C66fVddsm9b04qJUR4Iu-3" value="Student" style="shape=umlActor;verticalLabelPosition=bottom;verticalAlign=top;html=1;outlineConnect=0;" parent="1" vertex="1">
                    <mxGeometry x="140" y="500" width="30" height="60" as="geometry"/>
                </mxCell>
                <mxCell id="C66fVddsm9b04qJUR4Iu-4" value="Supervisor" style="shape=umlActor;verticalLabelPosition=bottom;verticalAlign=top;html=1;outlineConnect=0;" parent="1" vertex="1">
                    <mxGeometry x="680" y="300" width="30" height="60" as="geometry"/>
                </mxCell>
                <mxCell id="C66fVddsm9b04qJUR4Iu-5" value="Coordinator" style="shape=umlActor;verticalLabelPosition=bottom;verticalAlign=top;html=1;outlineConnect=0;" parent="1" vertex="1">
                    <mxGeometry x="680" y="700" width="30" height="60" as="geometry"/>
                </mxCell>
                <mxCell id="C66fVddsm9b04qJUR4Iu-19" value="CRUD an event" style="ellipse;whiteSpace=wrap;html=1;" parent="1" vertex="1">
                    <mxGeometry x="480" y="660" width="110" height="50" as="geometry"/>
                </mxCell>
                <mxCell id="C66fVddsm9b04qJUR4Iu-41" value="" style="endArrow=classic;html=1;rounded=0;edgeStyle=orthogonalEdgeStyle;jumpStyle=arc;jumpSize=9;" parent="1" edge="1">
                    <mxGeometry width="50" height="50" relative="1" as="geometry">
                        <mxPoint x="690" y="390" as="sourcePoint"/>
                        <mxPoint x="690" y="460" as="targetPoint"/>
                    </mxGeometry>
                </mxCell>
                <mxCell id="C66fVddsm9b04qJUR4Iu-42" value="" style="endArrow=classic;html=1;rounded=0;edgeStyle=orthogonalEdgeStyle;jumpStyle=arc;jumpSize=9;" parent="1" edge="1">
                    <mxGeometry width="50" height="50" relative="1" as="geometry">
                        <mxPoint x="694.58" y="690" as="sourcePoint"/>
                        <mxPoint x="695" y="580" as="targetPoint"/>
                        <Array as="points">
                            <mxPoint x="695" y="660"/>
                            <mxPoint x="695" y="660"/>
                        </Array>
                    </mxGeometry>
                </mxCell>
                <mxCell id="gxBC3pKMXTBqNfmKYQtD-1" value="Login" style="ellipse;whiteSpace=wrap;html=1;" parent="1" vertex="1">
                    <mxGeometry x="350" y="440" width="110" height="50" as="geometry"/>
                </mxCell>
                <mxCell id="gxBC3pKMXTBqNfmKYQtD-2" value="Register" style="ellipse;whiteSpace=wrap;html=1;" parent="1" vertex="1">
                    <mxGeometry x="350" y="590" width="110" height="50" as="geometry"/>
                </mxCell>
                <mxCell id="gxBC3pKMXTBqNfmKYQtD-3" value="CRUD FYP Batch" style="ellipse;whiteSpace=wrap;html=1;" parent="1" vertex="1">
                    <mxGeometry x="480" y="740" width="110" height="50" as="geometry"/>
                </mxCell>
                <mxCell id="gxBC3pKMXTBqNfmKYQtD-4" value="CRUD a task" style="ellipse;whiteSpace=wrap;html=1;" parent="1" vertex="1">
                    <mxGeometry x="480" y="290" width="110" height="50" as="geometry"/>
                </mxCell>
                <mxCell id="gxBC3pKMXTBqNfmKYQtD-6" value="Request to take Project Title" style="ellipse;whiteSpace=wrap;html=1;" parent="1" vertex="1">
                    <mxGeometry x="240" y="380" width="110" height="50" as="geometry"/>
                </mxCell>
                <mxCell id="gxBC3pKMXTBqNfmKYQtD-7" value="Pressure user" style="ellipse;whiteSpace=wrap;html=1;" parent="1" vertex="1">
                    <mxGeometry x="480" y="380" width="110" height="50" as="geometry"/>
                </mxCell>
                <mxCell id="gxBC3pKMXTBqNfmKYQtD-9" value="CRUD a Project Title" style="ellipse;whiteSpace=wrap;html=1;" parent="1" vertex="1">
                    <mxGeometry x="480" y="220" width="110" height="50" as="geometry"/>
                </mxCell>
                <mxCell id="gxBC3pKMXTBqNfmKYQtD-10" value="Approve a Project Title" style="ellipse;whiteSpace=wrap;html=1;" parent="1" vertex="1">
                    <mxGeometry x="480" y="810" width="110" height="50" as="geometry"/>
                </mxCell>
                <mxCell id="gxBC3pKMXTBqNfmKYQtD-11" value="Submit a task" style="ellipse;whiteSpace=wrap;html=1;" parent="1" vertex="1">
                    <mxGeometry x="350" y="520" width="110" height="50" as="geometry"/>
                </mxCell>
                <mxCell id="gxBC3pKMXTBqNfmKYQtD-12" value="Update status of student into the supervising team" style="ellipse;whiteSpace=wrap;html=1;" parent="1" vertex="1">
                    <mxGeometry x="460" y="150" width="150" height="50" as="geometry"/>
                </mxCell>
                <mxCell id="gxBC3pKMXTBqNfmKYQtD-13" value="" style="endArrow=classic;html=1;rounded=0;entryX=1;entryY=0.5;entryDx=0;entryDy=0;jumpStyle=arc;jumpSize=9;" parent="1" target="gxBC3pKMXTBqNfmKYQtD-1" edge="1">
                    <mxGeometry width="50" height="50" relative="1" as="geometry">
                        <mxPoint x="660" y="510" as="sourcePoint"/>
                        <mxPoint x="700" y="470" as="targetPoint"/>
                    </mxGeometry>
                </mxCell>
                <mxCell id="gxBC3pKMXTBqNfmKYQtD-14" value="" style="endArrow=classic;html=1;rounded=0;jumpStyle=arc;jumpSize=9;" parent="1" target="gxBC3pKMXTBqNfmKYQtD-2" edge="1">
                    <mxGeometry width="50" height="50" relative="1" as="geometry">
                        <mxPoint x="660" y="510" as="sourcePoint"/>
                        <mxPoint x="470" y="475" as="targetPoint"/>
                    </mxGeometry>
                </mxCell>
                <mxCell id="gxBC3pKMXTBqNfmKYQtD-15" value="" style="endArrow=classic;html=1;rounded=0;entryX=0.5;entryY=0;entryDx=0;entryDy=0;jumpStyle=arc;jumpSize=9;" parent="1" target="C66fVddsm9b04qJUR4Iu-19" edge="1">
                    <mxGeometry width="50" height="50" relative="1" as="geometry">
                        <mxPoint x="660" y="510" as="sourcePoint"/>
                        <mxPoint x="455" y="608" as="targetPoint"/>
                    </mxGeometry>
                </mxCell>
                <mxCell id="gxBC3pKMXTBqNfmKYQtD-16" value="" style="endArrow=classic;html=1;rounded=0;entryX=1;entryY=0.5;entryDx=0;entryDy=0;jumpStyle=arc;jumpSize=9;" parent="1" target="gxBC3pKMXTBqNfmKYQtD-7" edge="1">
                    <mxGeometry width="50" height="50" relative="1" as="geometry">
                        <mxPoint x="660" y="510" as="sourcePoint"/>
                        <mxPoint x="545" y="670" as="targetPoint"/>
                    </mxGeometry>
                </mxCell>
                <mxCell id="gxBC3pKMXTBqNfmKYQtD-17" value="" style="endArrow=classic;html=1;rounded=0;entryX=1;entryY=0.5;entryDx=0;entryDy=0;jumpStyle=arc;jumpSize=9;" parent="1" target="gxBC3pKMXTBqNfmKYQtD-4" edge="1">
                    <mxGeometry width="50" height="50" relative="1" as="geometry">
                        <mxPoint x="660" y="510" as="sourcePoint"/>
                        <mxPoint x="600" y="415" as="targetPoint"/>
                    </mxGeometry>
                </mxCell>
                <mxCell id="gxBC3pKMXTBqNfmKYQtD-18" value="" style="endArrow=classic;html=1;rounded=0;entryX=0.992;entryY=0.623;entryDx=0;entryDy=0;entryPerimeter=0;jumpStyle=arc;jumpSize=9;" parent="1" target="gxBC3pKMXTBqNfmKYQtD-3" edge="1">
                    <mxGeometry width="50" height="50" relative="1" as="geometry">
                        <mxPoint x="660" y="730" as="sourcePoint"/>
                        <mxPoint x="545" y="670" as="targetPoint"/>
                    </mxGeometry>
                </mxCell>
                <mxCell id="gxBC3pKMXTBqNfmKYQtD-19" value="" style="endArrow=classic;html=1;rounded=0;entryX=1;entryY=0.5;entryDx=0;entryDy=0;jumpStyle=arc;jumpSize=9;" parent="1" target="gxBC3pKMXTBqNfmKYQtD-10" edge="1">
                    <mxGeometry width="50" height="50" relative="1" as="geometry">
                        <mxPoint x="660" y="730" as="sourcePoint"/>
                        <mxPoint x="599" y="781" as="targetPoint"/>
                    </mxGeometry>
                </mxCell>
                <mxCell id="gxBC3pKMXTBqNfmKYQtD-20" value="" style="endArrow=classic;html=1;rounded=0;entryX=1;entryY=0.5;entryDx=0;entryDy=0;jumpStyle=arc;jumpSize=9;" parent="1" target="gxBC3pKMXTBqNfmKYQtD-9" edge="1">
                    <mxGeometry width="50" height="50" relative="1" as="geometry">
                        <mxPoint x="660" y="340" as="sourcePoint"/>
                        <mxPoint x="600" y="325" as="targetPoint"/>
                    </mxGeometry>
                </mxCell>
                <mxCell id="gxBC3pKMXTBqNfmKYQtD-21" value="" style="endArrow=classic;html=1;rounded=0;entryX=1;entryY=0.5;entryDx=0;entryDy=0;jumpStyle=arc;jumpSize=9;" parent="1" target="gxBC3pKMXTBqNfmKYQtD-12" edge="1">
                    <mxGeometry width="50" height="50" relative="1" as="geometry">
                        <mxPoint x="660" y="340" as="sourcePoint"/>
                        <mxPoint x="600" y="255" as="targetPoint"/>
                    </mxGeometry>
                </mxCell>
                <mxCell id="gxBC3pKMXTBqNfmKYQtD-22" value="" style="endArrow=classic;html=1;rounded=0;entryX=0;entryY=0.5;entryDx=0;entryDy=0;jumpStyle=arc;jumpSize=9;" parent="1" target="gxBC3pKMXTBqNfmKYQtD-1" edge="1">
                    <mxGeometry width="50" height="50" relative="1" as="geometry">
                        <mxPoint x="190" y="530" as="sourcePoint"/>
                        <mxPoint x="470" y="475" as="targetPoint"/>
                    </mxGeometry>
                </mxCell>
                <mxCell id="gxBC3pKMXTBqNfmKYQtD-23" value="" style="endArrow=classic;html=1;rounded=0;entryX=0;entryY=0.5;entryDx=0;entryDy=0;jumpStyle=arc;jumpSize=9;" parent="1" target="gxBC3pKMXTBqNfmKYQtD-2" edge="1">
                    <mxGeometry width="50" height="50" relative="1" as="geometry">
                        <mxPoint x="190" y="530" as="sourcePoint"/>
                        <mxPoint x="360" y="475" as="targetPoint"/>
                    </mxGeometry>
                </mxCell>
                <mxCell id="gxBC3pKMXTBqNfmKYQtD-24" value="" style="endArrow=classic;html=1;rounded=0;entryX=0;entryY=0.5;entryDx=0;entryDy=0;jumpStyle=arc;jumpSize=9;" parent="1" target="gxBC3pKMXTBqNfmKYQtD-11" edge="1">
                    <mxGeometry width="50" height="50" relative="1" as="geometry">
                        <mxPoint x="190" y="530" as="sourcePoint"/>
                        <mxPoint x="360" y="475" as="targetPoint"/>
                    </mxGeometry>
                </mxCell>
                <mxCell id="gxBC3pKMXTBqNfmKYQtD-25" value="" style="endArrow=classic;html=1;rounded=0;entryX=1;entryY=0.5;entryDx=0;entryDy=0;jumpStyle=arc;jumpSize=9;" parent="1" target="gxBC3pKMXTBqNfmKYQtD-11" edge="1">
                    <mxGeometry width="50" height="50" relative="1" as="geometry">
                        <mxPoint x="660" y="510" as="sourcePoint"/>
                        <mxPoint x="360" y="555" as="targetPoint"/>
                    </mxGeometry>
                </mxCell>
                <mxCell id="gxBC3pKMXTBqNfmKYQtD-26" value="" style="endArrow=classic;html=1;rounded=0;entryX=0.5;entryY=1;entryDx=0;entryDy=0;jumpStyle=arc;jumpSize=9;" parent="1" target="gxBC3pKMXTBqNfmKYQtD-6" edge="1">
                    <mxGeometry width="50" height="50" relative="1" as="geometry">
                        <mxPoint x="190" y="530" as="sourcePoint"/>
                        <mxPoint x="470" y="555" as="targetPoint"/>
                    </mxGeometry>
                </mxCell>
                <mxCell id="gxBC3pKMXTBqNfmKYQtD-27" value="Issue a complaint" style="ellipse;whiteSpace=wrap;html=1;" parent="1" vertex="1">
                    <mxGeometry x="240" y="670" width="110" height="50" as="geometry"/>
                </mxCell>
                <mxCell id="gxBC3pKMXTBqNfmKYQtD-28" value="" style="endArrow=classic;html=1;rounded=0;entryX=0.5;entryY=0;entryDx=0;entryDy=0;jumpStyle=arc;jumpSize=9;" parent="1" target="gxBC3pKMXTBqNfmKYQtD-27" edge="1">
                    <mxGeometry width="50" height="50" relative="1" as="geometry">
                        <mxPoint x="190" y="530" as="sourcePoint"/>
                        <mxPoint x="360" y="625" as="targetPoint"/>
                    </mxGeometry>
                </mxCell>
                <mxCell id="gxBC3pKMXTBqNfmKYQtD-30" value="User" style="swimlane;fontStyle=0;childLayout=stackLayout;horizontal=1;startSize=26;fillColor=none;horizontalStack=0;resizeParent=1;resizeParentMax=0;resizeLast=0;collapsible=1;marginBottom=0;whiteSpace=wrap;html=1;" parent="1" vertex="1">
                    <mxGeometry x="396.5" y="1377" width="172" height="286" as="geometry"/>
                </mxCell>
                <mxCell id="gxBC3pKMXTBqNfmKYQtD-31" value="- userID : integer (PK)" style="text;strokeColor=none;fillColor=none;align=left;verticalAlign=top;spacingLeft=4;spacingRight=4;overflow=hidden;rotatable=0;points=[[0,0.5],[1,0.5]];portConstraint=eastwest;whiteSpace=wrap;html=1;" parent="gxBC3pKMXTBqNfmKYQtD-30" vertex="1">
                    <mxGeometry y="26" width="172" height="26" as="geometry"/>
                </mxCell>
                <mxCell id="gxBC3pKMXTBqNfmKYQtD-32" value="- email : varchar" style="text;strokeColor=none;fillColor=none;align=left;verticalAlign=top;spacingLeft=4;spacingRight=4;overflow=hidden;rotatable=0;points=[[0,0.5],[1,0.5]];portConstraint=eastwest;whiteSpace=wrap;html=1;" parent="gxBC3pKMXTBqNfmKYQtD-30" vertex="1">
                    <mxGeometry y="52" width="172" height="26" as="geometry"/>
                </mxCell>
                <mxCell id="gxBC3pKMXTBqNfmKYQtD-33" value="- password : varchar" style="text;strokeColor=none;fillColor=none;align=left;verticalAlign=top;spacingLeft=4;spacingRight=4;overflow=hidden;rotatable=0;points=[[0,0.5],[1,0.5]];portConstraint=eastwest;whiteSpace=wrap;html=1;" parent="gxBC3pKMXTBqNfmKYQtD-30" vertex="1">
                    <mxGeometry y="78" width="172" height="26" as="geometry"/>
                </mxCell>
                <mxCell id="80" value="- name : varchar" style="text;strokeColor=none;fillColor=none;align=left;verticalAlign=top;spacingLeft=4;spacingRight=4;overflow=hidden;rotatable=0;points=[[0,0.5],[1,0.5]];portConstraint=eastwest;whiteSpace=wrap;html=1;" parent="gxBC3pKMXTBqNfmKYQtD-30" vertex="1">
                    <mxGeometry y="104" width="172" height="26" as="geometry"/>
                </mxCell>
                <mxCell id="81" value="- dob : date" style="text;strokeColor=none;fillColor=none;align=left;verticalAlign=top;spacingLeft=4;spacingRight=4;overflow=hidden;rotatable=0;points=[[0,0.5],[1,0.5]];portConstraint=eastwest;whiteSpace=wrap;html=1;" parent="gxBC3pKMXTBqNfmKYQtD-30" vertex="1">
                    <mxGeometry y="130" width="172" height="26" as="geometry"/>
                </mxCell>
                <mxCell id="82" value="- matricNumber : varchar" style="text;strokeColor=none;fillColor=none;align=left;verticalAlign=top;spacingLeft=4;spacingRight=4;overflow=hidden;rotatable=0;points=[[0,0.5],[1,0.5]];portConstraint=eastwest;whiteSpace=wrap;html=1;" parent="gxBC3pKMXTBqNfmKYQtD-30" vertex="1">
                    <mxGeometry y="156" width="172" height="26" as="geometry"/>
                </mxCell>
                <mxCell id="173" value="- institution : varchar" style="text;strokeColor=none;fillColor=none;align=left;verticalAlign=top;spacingLeft=4;spacingRight=4;overflow=hidden;rotatable=0;points=[[0,0.5],[1,0.5]];portConstraint=eastwest;whiteSpace=wrap;html=1;" parent="gxBC3pKMXTBqNfmKYQtD-30" vertex="1">
                    <mxGeometry y="182" width="172" height="26" as="geometry"/>
                </mxCell>
                <mxCell id="174" value="- salt : varchar" style="text;strokeColor=none;fillColor=none;align=left;verticalAlign=top;spacingLeft=4;spacingRight=4;overflow=hidden;rotatable=0;points=[[0,0.5],[1,0.5]];portConstraint=eastwest;whiteSpace=wrap;html=1;" parent="gxBC3pKMXTBqNfmKYQtD-30" vertex="1">
                    <mxGeometry y="208" width="172" height="26" as="geometry"/>
                </mxCell>
                <mxCell id="176" value="- unsubmittedTasks : integer" style="text;strokeColor=none;fillColor=none;align=left;verticalAlign=top;spacingLeft=4;spacingRight=4;overflow=hidden;rotatable=0;points=[[0,0.5],[1,0.5]];portConstraint=eastwest;whiteSpace=wrap;html=1;" parent="gxBC3pKMXTBqNfmKYQtD-30" vertex="1">
                    <mxGeometry y="234" width="172" height="26" as="geometry"/>
                </mxCell>
                <mxCell id="785" value="- profilePicture : varchar" style="text;strokeColor=none;fillColor=none;align=left;verticalAlign=top;spacingLeft=4;spacingRight=4;overflow=hidden;rotatable=0;points=[[0,0.5],[1,0.5]];portConstraint=eastwest;whiteSpace=wrap;html=1;" parent="gxBC3pKMXTBqNfmKYQtD-30" vertex="1">
                    <mxGeometry y="260" width="172" height="26" as="geometry"/>
                </mxCell>
                <mxCell id="l4H_S3dsI2Tg9Zhns-8N-1" value="Resolve Complaints" style="ellipse;whiteSpace=wrap;html=1;" parent="1" vertex="1">
                    <mxGeometry x="480" y="880" width="110" height="50" as="geometry"/>
                </mxCell>
                <mxCell id="l4H_S3dsI2Tg9Zhns-8N-2" value="" style="endArrow=classic;html=1;rounded=0;entryX=1;entryY=0.5;entryDx=0;entryDy=0;jumpStyle=arc;jumpSize=9;" parent="1" target="l4H_S3dsI2Tg9Zhns-8N-1" edge="1">
                    <mxGeometry width="50" height="50" relative="1" as="geometry">
                        <mxPoint x="660" y="730" as="sourcePoint"/>
                        <mxPoint x="600" y="845" as="targetPoint"/>
                    </mxGeometry>
                </mxCell>
                <mxCell id="l4H_S3dsI2Tg9Zhns-8N-3" value="Edit Profile" style="ellipse;whiteSpace=wrap;html=1;" parent="1" vertex="1">
                    <mxGeometry x="360" y="360" width="110" height="50" as="geometry"/>
                </mxCell>
                <mxCell id="l4H_S3dsI2Tg9Zhns-8N-4" value="" style="endArrow=classic;html=1;rounded=0;entryX=0.5;entryY=1;entryDx=0;entryDy=0;jumpStyle=arc;jumpSize=9;" parent="1" target="l4H_S3dsI2Tg9Zhns-8N-3" edge="1">
                    <mxGeometry width="50" height="50" relative="1" as="geometry">
                        <mxPoint x="660" y="510" as="sourcePoint"/>
                        <mxPoint x="700" y="470" as="targetPoint"/>
                    </mxGeometry>
                </mxCell>
                <mxCell id="l4H_S3dsI2Tg9Zhns-8N-5" value="" style="endArrow=classic;html=1;rounded=0;entryX=0.5;entryY=1;entryDx=0;entryDy=0;jumpStyle=arc;jumpSize=9;" parent="1" target="l4H_S3dsI2Tg9Zhns-8N-3" edge="1">
                    <mxGeometry width="50" height="50" relative="1" as="geometry">
                        <mxPoint x="190" y="530" as="sourcePoint"/>
                        <mxPoint x="425" y="420" as="targetPoint"/>
                    </mxGeometry>
                </mxCell>
                <mxCell id="100" style="html=1;exitX=0.5;exitY=0;exitDx=0;exitDy=0;strokeWidth=2;endArrow=classic;endFill=1;endSize=10;entryX=0.476;entryY=1.147;entryDx=0;entryDy=0;entryPerimeter=0;" parent="1" source="l4H_S3dsI2Tg9Zhns-8N-22" target="785" edge="1">
                    <mxGeometry relative="1" as="geometry">
                        <mxPoint x="480" y="1660" as="targetPoint"/>
                    </mxGeometry>
                </mxCell>
                <mxCell id="145" style="edgeStyle=orthogonalEdgeStyle;html=1;exitX=0.75;exitY=0;exitDx=0;exitDy=0;entryX=1;entryY=0.5;entryDx=0;entryDy=0;strokeWidth=2;endArrow=ERoneToMany;endFill=0;endSize=10;jumpStyle=arc;jumpSize=9;" parent="1" source="l4H_S3dsI2Tg9Zhns-8N-22" target="65" edge="1">
                    <mxGeometry relative="1" as="geometry">
                        <Array as="points">
                            <mxPoint x="660" y="1680"/>
                            <mxPoint x="660" y="1175"/>
                        </Array>
                    </mxGeometry>
                </mxCell>
                <mxCell id="146" style="edgeStyle=orthogonalEdgeStyle;html=1;exitX=0.5;exitY=0;exitDx=0;exitDy=0;entryX=1;entryY=0.5;entryDx=0;entryDy=0;strokeWidth=2;endArrow=ERoneToMany;endFill=0;endSize=10;jumpStyle=arc;jumpSize=9;" parent="1" source="l4H_S3dsI2Tg9Zhns-8N-22" target="104" edge="1">
                    <mxGeometry relative="1" as="geometry"/>
                </mxCell>
                <mxCell id="l4H_S3dsI2Tg9Zhns-8N-22" value="Student" style="swimlane;fontStyle=0;childLayout=stackLayout;horizontal=1;startSize=26;fillColor=none;horizontalStack=0;resizeParent=1;resizeParentMax=0;resizeLast=0;collapsible=1;marginBottom=0;whiteSpace=wrap;html=1;" parent="1" vertex="1">
                    <mxGeometry x="550" y="1680" width="172" height="78" as="geometry"/>
                </mxCell>
                <mxCell id="l4H_S3dsI2Tg9Zhns-8N-23" value="- studentID : integer (PK)" style="text;strokeColor=none;fillColor=none;align=left;verticalAlign=top;spacingLeft=4;spacingRight=4;overflow=hidden;rotatable=0;points=[[0,0.5],[1,0.5]];portConstraint=eastwest;whiteSpace=wrap;html=1;" parent="l4H_S3dsI2Tg9Zhns-8N-22" vertex="1">
                    <mxGeometry y="26" width="172" height="26" as="geometry"/>
                </mxCell>
                <mxCell id="61HQhyt6SDri8sVlv2gc-9" value="&lt;div&gt;- batchID : integer (FK)&lt;/div&gt;" style="text;strokeColor=none;fillColor=none;align=left;verticalAlign=top;spacingLeft=4;spacingRight=4;overflow=hidden;rotatable=0;points=[[0,0.5],[1,0.5]];portConstraint=eastwest;whiteSpace=wrap;html=1;" parent="l4H_S3dsI2Tg9Zhns-8N-22" vertex="1">
                    <mxGeometry y="52" width="172" height="26" as="geometry"/>
                </mxCell>
                <mxCell id="93" style="edgeStyle=orthogonalEdgeStyle;html=1;exitX=0.25;exitY=0;exitDx=0;exitDy=0;entryX=0.483;entryY=1.077;entryDx=0;entryDy=0;entryPerimeter=0;endArrow=ERoneToMany;endFill=0;endSize=10;jumpStyle=arc;jumpSize=9;strokeWidth=2;" parent="1" source="61HQhyt6SDri8sVlv2gc-4" target="92" edge="1">
                    <mxGeometry relative="1" as="geometry">
                        <Array as="points">
                            <mxPoint x="268" y="1587"/>
                            <mxPoint x="223" y="1587"/>
                        </Array>
                    </mxGeometry>
                </mxCell>
                <mxCell id="99" style="html=1;exitX=0.5;exitY=0;exitDx=0;exitDy=0;strokeWidth=2;endArrow=classic;endFill=1;endSize=10;entryX=0.481;entryY=1.083;entryDx=0;entryDy=0;entryPerimeter=0;" parent="1" source="61HQhyt6SDri8sVlv2gc-4" target="785" edge="1">
                    <mxGeometry relative="1" as="geometry">
                        <mxPoint x="480" y="1660" as="targetPoint"/>
                    </mxGeometry>
                </mxCell>
                <mxCell id="61HQhyt6SDri8sVlv2gc-4" value="AcademicStaff" style="swimlane;fontStyle=0;childLayout=stackLayout;horizontal=1;startSize=26;fillColor=none;horizontalStack=0;resizeParent=1;resizeParentMax=0;resizeLast=0;collapsible=1;marginBottom=0;whiteSpace=wrap;html=1;" parent="1" vertex="1">
                    <mxGeometry x="224.5" y="1680" width="172" height="104" as="geometry"/>
                </mxCell>
                <mxCell id="61HQhyt6SDri8sVlv2gc-5" value="- staffID : integer(PK)" style="text;strokeColor=none;fillColor=none;align=left;verticalAlign=top;spacingLeft=4;spacingRight=4;overflow=hidden;rotatable=0;points=[[0,0.5],[1,0.5]];portConstraint=eastwest;whiteSpace=wrap;html=1;" parent="61HQhyt6SDri8sVlv2gc-4" vertex="1">
                    <mxGeometry y="26" width="172" height="26" as="geometry"/>
                </mxCell>
                <mxCell id="85" value="- isCoordinator : boolean" style="text;strokeColor=none;fillColor=none;align=left;verticalAlign=top;spacingLeft=4;spacingRight=4;overflow=hidden;rotatable=0;points=[[0,0.5],[1,0.5]];portConstraint=eastwest;whiteSpace=wrap;html=1;" parent="61HQhyt6SDri8sVlv2gc-4" vertex="1">
                    <mxGeometry y="52" width="172" height="26" as="geometry"/>
                </mxCell>
                <mxCell id="86" value="- isSupervisor: boolean" style="text;strokeColor=none;fillColor=none;align=left;verticalAlign=top;spacingLeft=4;spacingRight=4;overflow=hidden;rotatable=0;points=[[0,0.5],[1,0.5]];portConstraint=eastwest;whiteSpace=wrap;html=1;" parent="61HQhyt6SDri8sVlv2gc-4" vertex="1">
                    <mxGeometry y="78" width="172" height="26" as="geometry"/>
                </mxCell>
                <mxCell id="24" value="Project" style="swimlane;fontStyle=0;childLayout=stackLayout;horizontal=1;startSize=26;fillColor=none;horizontalStack=0;resizeParent=1;resizeParentMax=0;resizeLast=0;collapsible=1;marginBottom=0;whiteSpace=wrap;html=1;" parent="1" vertex="1">
                    <mxGeometry x="630" y="1800" width="172" height="182" as="geometry"/>
                </mxCell>
                <mxCell id="25" value="- projectID: integer (PK)" style="text;strokeColor=none;fillColor=none;align=left;verticalAlign=top;spacingLeft=4;spacingRight=4;overflow=hidden;rotatable=0;points=[[0,0.5],[1,0.5]];portConstraint=eastwest;whiteSpace=wrap;html=1;" parent="24" vertex="1">
                    <mxGeometry y="26" width="172" height="26" as="geometry"/>
                </mxCell>
                <mxCell id="27" value="- studentID : integer(FK)" style="text;strokeColor=none;fillColor=none;align=left;verticalAlign=top;spacingLeft=4;spacingRight=4;overflow=hidden;rotatable=0;points=[[0,0.5],[1,0.5]];portConstraint=eastwest;whiteSpace=wrap;html=1;" parent="24" vertex="1">
                    <mxGeometry y="52" width="172" height="26" as="geometry"/>
                </mxCell>
                <mxCell id="48" value="- projectTItle : varchar" style="text;strokeColor=none;fillColor=none;align=left;verticalAlign=top;spacingLeft=4;spacingRight=4;overflow=hidden;rotatable=0;points=[[0,0.5],[1,0.5]];portConstraint=eastwest;whiteSpace=wrap;html=1;" parent="24" vertex="1">
                    <mxGeometry y="78" width="172" height="26" as="geometry"/>
                </mxCell>
                <mxCell id="49" value="- projectDesc: varchar" style="text;strokeColor=none;fillColor=none;align=left;verticalAlign=top;spacingLeft=4;spacingRight=4;overflow=hidden;rotatable=0;points=[[0,0.5],[1,0.5]];portConstraint=eastwest;whiteSpace=wrap;html=1;" parent="24" vertex="1">
                    <mxGeometry y="104" width="172" height="26" as="geometry"/>
                </mxCell>
                <mxCell id="148" value="- staffID : integer(FK)" style="text;strokeColor=none;fillColor=none;align=left;verticalAlign=top;spacingLeft=4;spacingRight=4;overflow=hidden;rotatable=0;points=[[0,0.5],[1,0.5]];portConstraint=eastwest;whiteSpace=wrap;html=1;" parent="24" vertex="1">
                    <mxGeometry y="130" width="172" height="26" as="geometry"/>
                </mxCell>
                <mxCell id="158" value="- status : boolean" style="text;strokeColor=none;fillColor=none;align=left;verticalAlign=top;spacingLeft=4;spacingRight=4;overflow=hidden;rotatable=0;points=[[0,0.5],[1,0.5]];portConstraint=eastwest;whiteSpace=wrap;html=1;" parent="24" vertex="1">
                    <mxGeometry y="156" width="172" height="26" as="geometry"/>
                </mxCell>
                <mxCell id="171" style="edgeStyle=orthogonalEdgeStyle;html=1;exitX=0.5;exitY=0;exitDx=0;exitDy=0;entryX=0;entryY=0.5;entryDx=0;entryDy=0;endArrow=none;endFill=0;startArrow=ERoneToMany;startFill=0;jumpSize=7;startSize=16;strokeWidth=2;" parent="1" source="50" target="64" edge="1">
                    <mxGeometry relative="1" as="geometry">
                        <Array as="points">
                            <mxPoint x="144" y="1140"/>
                            <mxPoint x="397" y="1140"/>
                        </Array>
                    </mxGeometry>
                </mxCell>
                <mxCell id="50" value="Event" style="swimlane;fontStyle=0;childLayout=stackLayout;horizontal=1;startSize=26;fillColor=none;horizontalStack=0;resizeParent=1;resizeParentMax=0;resizeLast=0;collapsible=1;marginBottom=0;whiteSpace=wrap;html=1;" parent="1" vertex="1">
                    <mxGeometry x="58" y="1170" width="172" height="182" as="geometry"/>
                </mxCell>
                <mxCell id="51" value="- eventID : integer (PK)" style="text;strokeColor=none;fillColor=none;align=left;verticalAlign=top;spacingLeft=4;spacingRight=4;overflow=hidden;rotatable=0;points=[[0,0.5],[1,0.5]];portConstraint=eastwest;whiteSpace=wrap;html=1;" parent="50" vertex="1">
                    <mxGeometry y="26" width="172" height="26" as="geometry"/>
                </mxCell>
                <mxCell id="52" value="- batchID : integer(FK)" style="text;strokeColor=none;fillColor=none;align=left;verticalAlign=top;spacingLeft=4;spacingRight=4;overflow=hidden;rotatable=0;points=[[0,0.5],[1,0.5]];portConstraint=eastwest;whiteSpace=wrap;html=1;" parent="50" vertex="1">
                    <mxGeometry y="52" width="172" height="26" as="geometry"/>
                </mxCell>
                <mxCell id="53" value="- eventTitle : varchar" style="text;strokeColor=none;fillColor=none;align=left;verticalAlign=top;spacingLeft=4;spacingRight=4;overflow=hidden;rotatable=0;points=[[0,0.5],[1,0.5]];portConstraint=eastwest;whiteSpace=wrap;html=1;" parent="50" vertex="1">
                    <mxGeometry y="78" width="172" height="26" as="geometry"/>
                </mxCell>
                <mxCell id="70" value="- gmapEmbed:&amp;nbsp; varchar" style="text;strokeColor=none;fillColor=none;align=left;verticalAlign=top;spacingLeft=4;spacingRight=4;overflow=hidden;rotatable=0;points=[[0,0.5],[1,0.5]];portConstraint=eastwest;whiteSpace=wrap;html=1;" parent="50" vertex="1">
                    <mxGeometry y="104" width="172" height="26" as="geometry"/>
                </mxCell>
                <mxCell id="782" value="- staffID : integer(FK)" style="text;strokeColor=none;fillColor=none;align=left;verticalAlign=top;spacingLeft=4;spacingRight=4;overflow=hidden;rotatable=0;points=[[0,0.5],[1,0.5]];portConstraint=eastwest;whiteSpace=wrap;html=1;" parent="50" vertex="1">
                    <mxGeometry y="130" width="172" height="26" as="geometry"/>
                </mxCell>
                <mxCell id="824" value="- eventDescription : varchar" style="text;strokeColor=none;fillColor=none;align=left;verticalAlign=top;spacingLeft=4;spacingRight=4;overflow=hidden;rotatable=0;points=[[0,0.5],[1,0.5]];portConstraint=eastwest;whiteSpace=wrap;html=1;" parent="50" vertex="1">
                    <mxGeometry y="156" width="172" height="26" as="geometry"/>
                </mxCell>
                <mxCell id="63" value="Batch" style="swimlane;fontStyle=0;childLayout=stackLayout;horizontal=1;startSize=26;fillColor=none;horizontalStack=0;resizeParent=1;resizeParentMax=0;resizeLast=0;collapsible=1;marginBottom=0;whiteSpace=wrap;html=1;" parent="1" vertex="1">
                    <mxGeometry x="396.5" y="1110" width="193.5" height="130" as="geometry"/>
                </mxCell>
                <mxCell id="64" value="- batchID: integer (PK)" style="text;strokeColor=none;fillColor=none;align=left;verticalAlign=top;spacingLeft=4;spacingRight=4;overflow=hidden;rotatable=0;points=[[0,0.5],[1,0.5]];portConstraint=eastwest;whiteSpace=wrap;html=1;" parent="63" vertex="1">
                    <mxGeometry y="26" width="193.5" height="26" as="geometry"/>
                </mxCell>
                <mxCell id="65" value="- batchName: varchar" style="text;strokeColor=none;fillColor=none;align=left;verticalAlign=top;spacingLeft=4;spacingRight=4;overflow=hidden;rotatable=0;points=[[0,0.5],[1,0.5]];portConstraint=eastwest;whiteSpace=wrap;html=1;" parent="63" vertex="1">
                    <mxGeometry y="52" width="193.5" height="26" as="geometry"/>
                </mxCell>
                <mxCell id="97" value="- batchYear: varchar" style="text;strokeColor=none;fillColor=none;align=left;verticalAlign=top;spacingLeft=4;spacingRight=4;overflow=hidden;rotatable=0;points=[[0,0.5],[1,0.5]];portConstraint=eastwest;whiteSpace=wrap;html=1;" parent="63" vertex="1">
                    <mxGeometry y="78" width="193.5" height="26" as="geometry"/>
                </mxCell>
                <mxCell id="814" value="- batchHead: integer (FK)" style="text;strokeColor=none;fillColor=none;align=left;verticalAlign=top;spacingLeft=4;spacingRight=4;overflow=hidden;rotatable=0;points=[[0,0.5],[1,0.5]];portConstraint=eastwest;whiteSpace=wrap;html=1;" parent="63" vertex="1">
                    <mxGeometry y="104" width="193.5" height="26" as="geometry"/>
                </mxCell>
                <mxCell id="87" value="BatchStaff" style="swimlane;fontStyle=0;childLayout=stackLayout;horizontal=1;startSize=26;fillColor=none;horizontalStack=0;resizeParent=1;resizeParentMax=0;resizeLast=0;collapsible=1;marginBottom=0;whiteSpace=wrap;html=1;" parent="1" vertex="1">
                    <mxGeometry x="140" y="1430" width="172" height="104" as="geometry"/>
                </mxCell>
                <mxCell id="88" value="- BatchStaffID : integer (PK)" style="text;strokeColor=none;fillColor=none;align=left;verticalAlign=top;spacingLeft=4;spacingRight=4;overflow=hidden;rotatable=0;points=[[0,0.5],[1,0.5]];portConstraint=eastwest;whiteSpace=wrap;html=1;" parent="87" vertex="1">
                    <mxGeometry y="26" width="172" height="26" as="geometry"/>
                </mxCell>
                <mxCell id="89" value="- staffID : integer (FK)" style="text;strokeColor=none;fillColor=none;align=left;verticalAlign=top;spacingLeft=4;spacingRight=4;overflow=hidden;rotatable=0;points=[[0,0.5],[1,0.5]];portConstraint=eastwest;whiteSpace=wrap;html=1;" parent="87" vertex="1">
                    <mxGeometry y="52" width="172" height="26" as="geometry"/>
                </mxCell>
                <mxCell id="92" value="- batchID : integer (FK)" style="text;strokeColor=none;fillColor=none;align=left;verticalAlign=top;spacingLeft=4;spacingRight=4;overflow=hidden;rotatable=0;points=[[0,0.5],[1,0.5]];portConstraint=eastwest;whiteSpace=wrap;html=1;" parent="87" vertex="1">
                    <mxGeometry y="78" width="172" height="26" as="geometry"/>
                </mxCell>
                <mxCell id="96" style="edgeStyle=orthogonalEdgeStyle;html=1;exitX=0;exitY=0.5;exitDx=0;exitDy=0;entryX=1;entryY=0.5;entryDx=0;entryDy=0;endArrow=ERmany;endFill=0;endSize=10;jumpStyle=arc;jumpSize=9;strokeWidth=2;" parent="1" source="65" target="88" edge="1">
                    <mxGeometry relative="1" as="geometry"/>
                </mxCell>
                <mxCell id="102" value="EventStudent" style="swimlane;fontStyle=0;childLayout=stackLayout;horizontal=1;startSize=26;fillColor=none;horizontalStack=0;resizeParent=1;resizeParentMax=0;resizeLast=0;collapsible=1;marginBottom=0;whiteSpace=wrap;html=1;" parent="1" vertex="1">
                    <mxGeometry x="396.5" y="1250" width="201" height="104" as="geometry"/>
                </mxCell>
                <mxCell id="103" value="- EventStudentID : integer (PK)" style="text;strokeColor=none;fillColor=none;align=left;verticalAlign=top;spacingLeft=4;spacingRight=4;overflow=hidden;rotatable=0;points=[[0,0.5],[1,0.5]];portConstraint=eastwest;whiteSpace=wrap;html=1;" parent="102" vertex="1">
                    <mxGeometry y="26" width="201" height="26" as="geometry"/>
                </mxCell>
                <mxCell id="104" value="- studentID: integer (FK)" style="text;strokeColor=none;fillColor=none;align=left;verticalAlign=top;spacingLeft=4;spacingRight=4;overflow=hidden;rotatable=0;points=[[0,0.5],[1,0.5]];portConstraint=eastwest;whiteSpace=wrap;html=1;" parent="102" vertex="1">
                    <mxGeometry y="52" width="201" height="26" as="geometry"/>
                </mxCell>
                <mxCell id="105" value="- eventID: integer (FK)" style="text;strokeColor=none;fillColor=none;align=left;verticalAlign=top;spacingLeft=4;spacingRight=4;overflow=hidden;rotatable=0;points=[[0,0.5],[1,0.5]];portConstraint=eastwest;whiteSpace=wrap;html=1;" parent="102" vertex="1">
                    <mxGeometry y="78" width="201" height="26" as="geometry"/>
                </mxCell>
                <mxCell id="109" style="edgeStyle=orthogonalEdgeStyle;html=1;exitX=1;exitY=0.5;exitDx=0;exitDy=0;entryX=0.009;entryY=0.131;entryDx=0;entryDy=0;entryPerimeter=0;strokeWidth=2;endArrow=ERoneToMany;endFill=0;endSize=10;jumpStyle=arc;jumpSize=14;" parent="1" source="52" target="104" edge="1">
                    <mxGeometry relative="1" as="geometry">
                        <Array as="points">
                            <mxPoint x="230" y="1230"/>
                            <mxPoint x="290" y="1230"/>
                            <mxPoint x="290" y="1305"/>
                        </Array>
                    </mxGeometry>
                </mxCell>
                <mxCell id="142" style="edgeStyle=orthogonalEdgeStyle;html=1;exitX=0.5;exitY=0;exitDx=0;exitDy=0;strokeWidth=2;endArrow=ERoneToMany;endFill=0;endSize=10;jumpStyle=arc;jumpSize=9;" parent="1" source="123" edge="1">
                    <mxGeometry relative="1" as="geometry">
                        <mxPoint x="140" y="1750" as="targetPoint"/>
                    </mxGeometry>
                </mxCell>
                <mxCell id="123" value="Task" style="swimlane;fontStyle=0;childLayout=stackLayout;horizontal=1;startSize=26;fillColor=none;horizontalStack=0;resizeParent=1;resizeParentMax=0;resizeLast=0;collapsible=1;marginBottom=0;whiteSpace=wrap;html=1;" parent="1" vertex="1">
                    <mxGeometry x="92.5" y="1818" width="172" height="286" as="geometry"/>
                </mxCell>
                <mxCell id="124" value="- taskID : integer (PK)" style="text;strokeColor=none;fillColor=none;align=left;verticalAlign=top;spacingLeft=4;spacingRight=4;overflow=hidden;rotatable=0;points=[[0,0.5],[1,0.5]];portConstraint=eastwest;whiteSpace=wrap;html=1;" parent="123" vertex="1">
                    <mxGeometry y="26" width="172" height="26" as="geometry"/>
                </mxCell>
                <mxCell id="125" value="-&amp;nbsp; taskTitle : varchar" style="text;strokeColor=none;fillColor=none;align=left;verticalAlign=top;spacingLeft=4;spacingRight=4;overflow=hidden;rotatable=0;points=[[0,0.5],[1,0.5]];portConstraint=eastwest;whiteSpace=wrap;html=1;" parent="123" vertex="1">
                    <mxGeometry y="52" width="172" height="26" as="geometry"/>
                </mxCell>
                <mxCell id="126" value="- taskDescription : varchar" style="text;strokeColor=none;fillColor=none;align=left;verticalAlign=top;spacingLeft=4;spacingRight=4;overflow=hidden;rotatable=0;points=[[0,0.5],[1,0.5]];portConstraint=eastwest;whiteSpace=wrap;html=1;" parent="123" vertex="1">
                    <mxGeometry y="78" width="172" height="26" as="geometry"/>
                </mxCell>
                <mxCell id="127" value="- taskSubmitted : boolean" style="text;strokeColor=none;fillColor=none;align=left;verticalAlign=top;spacingLeft=4;spacingRight=4;overflow=hidden;rotatable=0;points=[[0,0.5],[1,0.5]];portConstraint=eastwest;whiteSpace=wrap;html=1;" parent="123" vertex="1">
                    <mxGeometry y="104" width="172" height="26" as="geometry"/>
                </mxCell>
                <mxCell id="128" value="- duedate: date" style="text;strokeColor=none;fillColor=none;align=left;verticalAlign=top;spacingLeft=4;spacingRight=4;overflow=hidden;rotatable=0;points=[[0,0.5],[1,0.5]];portConstraint=eastwest;whiteSpace=wrap;html=1;" parent="123" vertex="1">
                    <mxGeometry y="130" width="172" height="26" as="geometry"/>
                </mxCell>
                <mxCell id="129" value="- yellowZone: integer" style="text;strokeColor=none;fillColor=none;align=left;verticalAlign=top;spacingLeft=4;spacingRight=4;overflow=hidden;rotatable=0;points=[[0,0.5],[1,0.5]];portConstraint=eastwest;whiteSpace=wrap;html=1;" parent="123" vertex="1">
                    <mxGeometry y="156" width="172" height="26" as="geometry"/>
                </mxCell>
                <mxCell id="130" value="- redZone: integer" style="text;strokeColor=none;fillColor=none;align=left;verticalAlign=top;spacingLeft=4;spacingRight=4;overflow=hidden;rotatable=0;points=[[0,0.5],[1,0.5]];portConstraint=eastwest;whiteSpace=wrap;html=1;" parent="123" vertex="1">
                    <mxGeometry y="182" width="172" height="26" as="geometry"/>
                </mxCell>
                <mxCell id="131" value="- lock : boolean" style="text;strokeColor=none;fillColor=none;align=left;verticalAlign=top;spacingLeft=4;spacingRight=4;overflow=hidden;rotatable=0;points=[[0,0.5],[1,0.5]];portConstraint=eastwest;whiteSpace=wrap;html=1;" parent="123" vertex="1">
                    <mxGeometry y="208" width="172" height="26" as="geometry"/>
                </mxCell>
                <mxCell id="134" value="- userID : integer (FK)" style="text;strokeColor=none;fillColor=none;align=left;verticalAlign=top;spacingLeft=4;spacingRight=4;overflow=hidden;rotatable=0;points=[[0,0.5],[1,0.5]];portConstraint=eastwest;whiteSpace=wrap;html=1;" parent="123" vertex="1">
                    <mxGeometry y="234" width="172" height="26" as="geometry"/>
                </mxCell>
                <mxCell id="135" value="- staffID : integer (FK)" style="text;strokeColor=none;fillColor=none;align=left;verticalAlign=top;spacingLeft=4;spacingRight=4;overflow=hidden;rotatable=0;points=[[0,0.5],[1,0.5]];portConstraint=eastwest;whiteSpace=wrap;html=1;" parent="123" vertex="1">
                    <mxGeometry y="260" width="172" height="26" as="geometry"/>
                </mxCell>
                <mxCell id="136" value="TaskUser" style="swimlane;fontStyle=0;childLayout=stackLayout;horizontal=1;startSize=26;fillColor=none;horizontalStack=0;resizeParent=1;resizeParentMax=0;resizeLast=0;collapsible=1;marginBottom=0;whiteSpace=wrap;html=1;" parent="1" vertex="1">
                    <mxGeometry x="30" y="1646" width="162.5" height="104" as="geometry"/>
                </mxCell>
                <mxCell id="137" value="- TaskUserID: integer (PK)" style="text;strokeColor=none;fillColor=none;align=left;verticalAlign=top;spacingLeft=4;spacingRight=4;overflow=hidden;rotatable=0;points=[[0,0.5],[1,0.5]];portConstraint=eastwest;whiteSpace=wrap;html=1;" parent="136" vertex="1">
                    <mxGeometry y="26" width="162.5" height="26" as="geometry"/>
                </mxCell>
                <mxCell id="138" value="- userID: integer (FK)" style="text;strokeColor=none;fillColor=none;align=left;verticalAlign=top;spacingLeft=4;spacingRight=4;overflow=hidden;rotatable=0;points=[[0,0.5],[1,0.5]];portConstraint=eastwest;whiteSpace=wrap;html=1;" parent="136" vertex="1">
                    <mxGeometry y="52" width="162.5" height="26" as="geometry"/>
                </mxCell>
                <mxCell id="139" value="- taskID: integer (FK)" style="text;strokeColor=none;fillColor=none;align=left;verticalAlign=top;spacingLeft=4;spacingRight=4;overflow=hidden;rotatable=0;points=[[0,0.5],[1,0.5]];portConstraint=eastwest;whiteSpace=wrap;html=1;" parent="136" vertex="1">
                    <mxGeometry y="78" width="162.5" height="26" as="geometry"/>
                </mxCell>
                <mxCell id="141" style="edgeStyle=orthogonalEdgeStyle;html=1;exitX=0;exitY=0.5;exitDx=0;exitDy=0;entryX=0.5;entryY=0;entryDx=0;entryDy=0;strokeWidth=2;endArrow=ERoneToMany;endFill=0;endSize=10;jumpStyle=arc;jumpSize=14;" parent="1" source="80" target="136" edge="1">
                    <mxGeometry relative="1" as="geometry">
                        <Array as="points">
                            <mxPoint x="396" y="1570"/>
                            <mxPoint x="111" y="1570"/>
                        </Array>
                    </mxGeometry>
                </mxCell>
                <mxCell id="144" style="edgeStyle=orthogonalEdgeStyle;html=1;exitX=0;exitY=0.5;exitDx=0;exitDy=0;entryX=0.679;entryY=-0.003;entryDx=0;entryDy=0;entryPerimeter=0;strokeWidth=2;endArrow=ERoneToMany;endFill=0;endSize=10;jumpStyle=arc;jumpSize=9;" parent="1" source="86" target="123" edge="1">
                    <mxGeometry relative="1" as="geometry"/>
                </mxCell>
                <mxCell id="147" style="edgeStyle=orthogonalEdgeStyle;html=1;exitX=0;exitY=0.154;exitDx=0;exitDy=0;entryX=0;entryY=0.5;entryDx=0;entryDy=0;strokeWidth=2;endArrow=none;endFill=0;endSize=10;jumpStyle=arc;jumpSize=9;exitPerimeter=0;" parent="1" source="61HQhyt6SDri8sVlv2gc-9" target="27" edge="1">
                    <mxGeometry relative="1" as="geometry">
                        <Array as="points">
                            <mxPoint x="550" y="1690"/>
                            <mxPoint x="530" y="1690"/>
                            <mxPoint x="530" y="1870"/>
                            <mxPoint x="630" y="1870"/>
                        </Array>
                        <mxPoint x="550" y="1711" as="sourcePoint"/>
                    </mxGeometry>
                </mxCell>
                <mxCell id="149" style="edgeStyle=orthogonalEdgeStyle;html=1;exitX=1;exitY=0.5;exitDx=0;exitDy=0;entryX=0;entryY=0.5;entryDx=0;entryDy=0;strokeWidth=2;endArrow=ERoneToMany;endFill=0;endSize=9;jumpStyle=arc;jumpSize=14;" parent="1" source="85" target="49" edge="1">
                    <mxGeometry relative="1" as="geometry"/>
                </mxCell>
                <mxCell id="150" value="ProjectTitleRequest" style="swimlane;fontStyle=0;childLayout=stackLayout;horizontal=1;startSize=26;fillColor=none;horizontalStack=0;resizeParent=1;resizeParentMax=0;resizeLast=0;collapsible=1;marginBottom=0;whiteSpace=wrap;html=1;" parent="1" vertex="1">
                    <mxGeometry x="630" y="2030" width="172" height="104" as="geometry"/>
                </mxCell>
                <mxCell id="151" value="- proRequest : integer (PK)" style="text;strokeColor=none;fillColor=none;align=left;verticalAlign=top;spacingLeft=4;spacingRight=4;overflow=hidden;rotatable=0;points=[[0,0.5],[1,0.5]];portConstraint=eastwest;whiteSpace=wrap;html=1;" parent="150" vertex="1">
                    <mxGeometry y="26" width="172" height="26" as="geometry"/>
                </mxCell>
                <mxCell id="156" value="- projectID: integer (FK)" style="text;strokeColor=none;fillColor=none;align=left;verticalAlign=top;spacingLeft=4;spacingRight=4;overflow=hidden;rotatable=0;points=[[0,0.5],[1,0.5]];portConstraint=eastwest;whiteSpace=wrap;html=1;" parent="150" vertex="1">
                    <mxGeometry y="52" width="172" height="26" as="geometry"/>
                </mxCell>
                <mxCell id="170" value="- approval : boolean" style="text;strokeColor=none;fillColor=none;align=left;verticalAlign=top;spacingLeft=4;spacingRight=4;overflow=hidden;rotatable=0;points=[[0,0.5],[1,0.5]];portConstraint=eastwest;whiteSpace=wrap;html=1;" parent="150" vertex="1">
                    <mxGeometry y="78" width="172" height="26" as="geometry"/>
                </mxCell>
                <mxCell id="159" style="edgeStyle=orthogonalEdgeStyle;html=1;exitX=0;exitY=0.5;exitDx=0;exitDy=0;entryX=-0.006;entryY=-0.188;entryDx=0;entryDy=0;entryPerimeter=0;strokeWidth=2;endArrow=ERoneToMany;endFill=0;endSize=9;" parent="1" source="158" target="156" edge="1">
                    <mxGeometry relative="1" as="geometry">
                        <Array as="points">
                            <mxPoint x="600" y="1969"/>
                            <mxPoint x="600" y="2077"/>
                        </Array>
                    </mxGeometry>
                </mxCell>
                <mxCell id="160" value="RequestToPickProject" style="swimlane;fontStyle=0;childLayout=stackLayout;horizontal=1;startSize=26;fillColor=none;horizontalStack=0;resizeParent=1;resizeParentMax=0;resizeLast=0;collapsible=1;marginBottom=0;whiteSpace=wrap;html=1;" parent="1" vertex="1">
                    <mxGeometry x="360" y="1930" width="182" height="130" as="geometry"/>
                </mxCell>
                <mxCell id="161" value="- PickProjReqID : integer (PK)" style="text;strokeColor=none;fillColor=none;align=left;verticalAlign=top;spacingLeft=4;spacingRight=4;overflow=hidden;rotatable=0;points=[[0,0.5],[1,0.5]];portConstraint=eastwest;whiteSpace=wrap;html=1;" parent="160" vertex="1">
                    <mxGeometry y="26" width="182" height="26" as="geometry"/>
                </mxCell>
                <mxCell id="162" value="- projectID: integer (FK)" style="text;strokeColor=none;fillColor=none;align=left;verticalAlign=top;spacingLeft=4;spacingRight=4;overflow=hidden;rotatable=0;points=[[0,0.5],[1,0.5]];portConstraint=eastwest;whiteSpace=wrap;html=1;" parent="160" vertex="1">
                    <mxGeometry y="52" width="182" height="26" as="geometry"/>
                </mxCell>
                <mxCell id="164" value="- studentID : integer(FK)" style="text;strokeColor=none;fillColor=none;align=left;verticalAlign=top;spacingLeft=4;spacingRight=4;overflow=hidden;rotatable=0;points=[[0,0.5],[1,0.5]];portConstraint=eastwest;whiteSpace=wrap;html=1;" parent="160" vertex="1">
                    <mxGeometry y="78" width="182" height="26" as="geometry"/>
                </mxCell>
                <mxCell id="169" value="- status : boolean" style="text;strokeColor=none;fillColor=none;align=left;verticalAlign=top;spacingLeft=4;spacingRight=4;overflow=hidden;rotatable=0;points=[[0,0.5],[1,0.5]];portConstraint=eastwest;whiteSpace=wrap;html=1;" parent="160" vertex="1">
                    <mxGeometry y="104" width="182" height="26" as="geometry"/>
                </mxCell>
                <mxCell id="165" style="edgeStyle=orthogonalEdgeStyle;html=1;exitX=0;exitY=0.5;exitDx=0;exitDy=0;entryX=0.371;entryY=-0.018;entryDx=0;entryDy=0;entryPerimeter=0;strokeWidth=2;endArrow=ERoneToMany;endFill=0;endSize=9;jumpStyle=arc;jumpSize=14;" parent="1" source="l4H_S3dsI2Tg9Zhns-8N-23" target="160" edge="1">
                    <mxGeometry relative="1" as="geometry">
                        <Array as="points">
                            <mxPoint x="427" y="1719"/>
                        </Array>
                    </mxGeometry>
                </mxCell>
                <mxCell id="168" style="edgeStyle=orthogonalEdgeStyle;jumpStyle=arc;jumpSize=14;html=1;exitX=0;exitY=0.5;exitDx=0;exitDy=0;entryX=1;entryY=0.5;entryDx=0;entryDy=0;strokeWidth=2;endArrow=ERoneToMany;endFill=0;startSize=14;endSize=9;" parent="1" source="148" target="162" edge="1">
                    <mxGeometry relative="1" as="geometry">
                        <Array as="points">
                            <mxPoint x="590" y="1943"/>
                            <mxPoint x="590" y="1995"/>
                        </Array>
                    </mxGeometry>
                </mxCell>
                <mxCell id="172" style="edgeStyle=orthogonalEdgeStyle;jumpSize=15;html=1;exitX=0;exitY=0.5;exitDx=0;exitDy=0;entryX=0;entryY=0.5;entryDx=0;entryDy=0;strokeWidth=2;startArrow=ERoneToMany;startFill=0;endArrow=none;endFill=0;startSize=16;jumpStyle=arc;" parent="1" source="70" target="61HQhyt6SDri8sVlv2gc-5" edge="1">
                    <mxGeometry relative="1" as="geometry">
                        <Array as="points">
                            <mxPoint x="30" y="1287"/>
                            <mxPoint x="30" y="1610"/>
                            <mxPoint x="210" y="1610"/>
                            <mxPoint x="210" y="1719"/>
                        </Array>
                    </mxGeometry>
                </mxCell>
                <mxCell id="175" value="Bad Users Highlight" style="ellipse;whiteSpace=wrap;html=1;" parent="1" vertex="1">
                    <mxGeometry x="300" y="180" width="100" height="50" as="geometry"/>
                </mxCell>
                <mxCell id="179" value="" style="group" parent="1" vertex="1" connectable="0">
                    <mxGeometry x="1560" y="80" width="20" height="20" as="geometry"/>
                </mxCell>
                <mxCell id="177" value="" style="ellipse;whiteSpace=wrap;html=1;aspect=fixed;strokeWidth=2;fillColor=none;" parent="179" vertex="1">
                    <mxGeometry width="20" height="20" as="geometry"/>
                </mxCell>
                <mxCell id="178" value="" style="ellipse;whiteSpace=wrap;html=1;aspect=fixed;strokeWidth=3;fillColor=default;strokeColor=none;" parent="179" vertex="1">
                    <mxGeometry x="3.333333333333333" y="3.333333333333333" width="13.333333333333332" height="13.333333333333332" as="geometry"/>
                </mxCell>
                <mxCell id="189" style="edgeStyle=orthogonalEdgeStyle;html=1;exitX=0.5;exitY=1;exitDx=0;exitDy=0;entryX=0.5;entryY=0;entryDx=0;entryDy=0;" parent="1" source="181" target="188" edge="1">
                    <mxGeometry relative="1" as="geometry"/>
                </mxCell>
                <mxCell id="823" style="edgeStyle=none;html=1;exitX=0;exitY=0.5;exitDx=0;exitDy=0;entryX=1;entryY=0.5;entryDx=0;entryDy=0;" parent="1" source="181" target="822" edge="1">
                    <mxGeometry relative="1" as="geometry"/>
                </mxCell>
                <mxCell id="181" value="Landing Page" style="rounded=0;whiteSpace=wrap;html=1;strokeWidth=2;fillColor=default;" parent="1" vertex="1">
                    <mxGeometry x="1510" y="150" width="120" height="60" as="geometry"/>
                </mxCell>
                <mxCell id="182" style="edgeStyle=none;html=1;exitX=0.5;exitY=1;exitDx=0;exitDy=0;entryX=0.5;entryY=0;entryDx=0;entryDy=0;" parent="1" source="177" target="181" edge="1">
                    <mxGeometry relative="1" as="geometry"/>
                </mxCell>
                <mxCell id="195" style="edgeStyle=orthogonalEdgeStyle;html=1;exitX=1;exitY=0.5;exitDx=0;exitDy=0;entryX=0.5;entryY=0;entryDx=0;entryDy=0;" parent="1" source="183" target="192" edge="1">
                    <mxGeometry relative="1" as="geometry"/>
                </mxCell>
                <mxCell id="202" style="edgeStyle=orthogonalEdgeStyle;html=1;exitX=0.5;exitY=1;exitDx=0;exitDy=0;entryX=0.5;entryY=0;entryDx=0;entryDy=0;" parent="1" source="183" target="198" edge="1">
                    <mxGeometry relative="1" as="geometry"/>
                </mxCell>
                <mxCell id="183" value="Login" style="rounded=0;whiteSpace=wrap;html=1;strokeWidth=2;fillColor=default;" parent="1" vertex="1">
                    <mxGeometry x="1190" y="370" width="120" height="60" as="geometry"/>
                </mxCell>
                <mxCell id="194" style="edgeStyle=orthogonalEdgeStyle;html=1;exitX=0;exitY=0.5;exitDx=0;exitDy=0;entryX=0.5;entryY=0;entryDx=0;entryDy=0;" parent="1" source="184" target="192" edge="1">
                    <mxGeometry relative="1" as="geometry"/>
                </mxCell>
                <mxCell id="196" style="edgeStyle=orthogonalEdgeStyle;html=1;exitX=1;exitY=0.5;exitDx=0;exitDy=0;entryX=1;entryY=0.5;entryDx=0;entryDy=0;" parent="1" source="184" target="181" edge="1">
                    <mxGeometry relative="1" as="geometry">
                        <Array as="points">
                            <mxPoint x="1770" y="430"/>
                            <mxPoint x="1770" y="180"/>
                        </Array>
                    </mxGeometry>
                </mxCell>
                <mxCell id="184" value="Register" style="rounded=0;whiteSpace=wrap;html=1;strokeWidth=2;fillColor=default;" parent="1" vertex="1">
                    <mxGeometry x="1630" y="370" width="120" height="60" as="geometry"/>
                </mxCell>
                <mxCell id="190" style="edgeStyle=orthogonalEdgeStyle;html=1;exitX=0.25;exitY=1;exitDx=0;exitDy=0;" parent="1" source="188" target="183" edge="1">
                    <mxGeometry relative="1" as="geometry"/>
                </mxCell>
                <mxCell id="191" style="edgeStyle=orthogonalEdgeStyle;html=1;exitX=0.75;exitY=1;exitDx=0;exitDy=0;entryX=0.5;entryY=0;entryDx=0;entryDy=0;" parent="1" source="188" target="184" edge="1">
                    <mxGeometry relative="1" as="geometry"/>
                </mxCell>
                <mxCell id="188" value="" style="rounded=0;whiteSpace=wrap;html=1;strokeWidth=2;fillColor=default;" parent="1" vertex="1">
                    <mxGeometry x="1460" y="250" width="220" height="10" as="geometry"/>
                </mxCell>
                <mxCell id="201" style="edgeStyle=orthogonalEdgeStyle;html=1;exitX=1;exitY=0.5;exitDx=0;exitDy=0;entryX=1;entryY=0.25;entryDx=0;entryDy=0;" parent="1" source="192" target="181" edge="1">
                    <mxGeometry relative="1" as="geometry">
                        <Array as="points">
                            <mxPoint x="1630" y="490"/>
                            <mxPoint x="1850" y="490"/>
                            <mxPoint x="1850" y="165"/>
                        </Array>
                    </mxGeometry>
                </mxCell>
                <mxCell id="192" value="Forgot Password" style="rounded=0;whiteSpace=wrap;html=1;strokeWidth=2;fillColor=default;" parent="1" vertex="1">
                    <mxGeometry x="1510" y="455" width="120" height="60" as="geometry"/>
                </mxCell>
                <mxCell id="197" value="Email Verification" style="rounded=0;whiteSpace=wrap;html=1;strokeWidth=2;fillColor=default;" parent="1" vertex="1">
                    <mxGeometry x="1710" y="230" width="120" height="60" as="geometry"/>
                </mxCell>
                <mxCell id="213" style="edgeStyle=orthogonalEdgeStyle;html=1;exitX=1;exitY=0.5;exitDx=0;exitDy=0;entryX=0;entryY=0.5;entryDx=0;entryDy=0;" parent="1" source="198" target="207" edge="1">
                    <mxGeometry relative="1" as="geometry"/>
                </mxCell>
                <mxCell id="306" style="edgeStyle=orthogonalEdgeStyle;jumpStyle=arc;jumpSize=8;html=1;exitX=0.5;exitY=1;exitDx=0;exitDy=0;entryX=0.5;entryY=0;entryDx=0;entryDy=0;fontSize=12;" parent="1" source="198" target="305" edge="1">
                    <mxGeometry relative="1" as="geometry"/>
                </mxCell>
                <mxCell id="198" value="" style="rhombus;whiteSpace=wrap;html=1;strokeWidth=2;fillColor=default;" parent="1" vertex="1">
                    <mxGeometry x="1235" y="625" width="30" height="30" as="geometry"/>
                </mxCell>
                <mxCell id="222" style="edgeStyle=orthogonalEdgeStyle;html=1;exitX=0.25;exitY=1;exitDx=0;exitDy=0;entryX=0.5;entryY=0;entryDx=0;entryDy=0;" parent="1" source="216" target="220" edge="1">
                    <mxGeometry relative="1" as="geometry"/>
                </mxCell>
                <mxCell id="233" style="edgeStyle=orthogonalEdgeStyle;html=1;exitX=0.25;exitY=1;exitDx=0;exitDy=0;entryX=0.5;entryY=0;entryDx=0;entryDy=0;" parent="1" source="216" target="230" edge="1">
                    <mxGeometry relative="1" as="geometry"/>
                </mxCell>
                <mxCell id="246" style="edgeStyle=orthogonalEdgeStyle;jumpStyle=arc;jumpSize=8;html=1;exitX=0.5;exitY=1;exitDx=0;exitDy=0;entryX=0.5;entryY=0;entryDx=0;entryDy=0;fontSize=10;" parent="1" source="216" target="241" edge="1">
                    <mxGeometry relative="1" as="geometry"/>
                </mxCell>
                <mxCell id="299" style="edgeStyle=orthogonalEdgeStyle;jumpStyle=arc;jumpSize=8;html=1;exitX=0.75;exitY=1;exitDx=0;exitDy=0;entryX=0.5;entryY=0;entryDx=0;entryDy=0;fontSize=12;" parent="1" source="216" target="252" edge="1">
                    <mxGeometry relative="1" as="geometry"/>
                </mxCell>
                <mxCell id="223" style="edgeStyle=orthogonalEdgeStyle;html=1;exitX=0.5;exitY=1;exitDx=0;exitDy=0;entryX=0.5;entryY=0;entryDx=0;entryDy=0;" parent="1" source="220" target="221" edge="1">
                    <mxGeometry relative="1" as="geometry"/>
                </mxCell>
                <mxCell id="220" value="Tasks Page" style="whiteSpace=wrap;html=1;strokeWidth=2;fillColor=default;" parent="1" vertex="1">
                    <mxGeometry x="1390" y="785" width="120" height="60" as="geometry"/>
                </mxCell>
                <mxCell id="225" style="edgeStyle=orthogonalEdgeStyle;html=1;exitX=0.5;exitY=1;exitDx=0;exitDy=0;entryX=0.5;entryY=0;entryDx=0;entryDy=0;" parent="1" source="221" target="224" edge="1">
                    <mxGeometry relative="1" as="geometry"/>
                </mxCell>
                <mxCell id="290" style="edgeStyle=orthogonalEdgeStyle;jumpStyle=arc;jumpSize=8;html=1;exitX=1;exitY=0.75;exitDx=0;exitDy=0;entryX=0;entryY=0.5;entryDx=0;entryDy=0;fontSize=12;" parent="1" source="221" target="284" edge="1">
                    <mxGeometry relative="1" as="geometry">
                        <Array as="points">
                            <mxPoint x="1640" y="920"/>
                            <mxPoint x="1640" y="1280"/>
                        </Array>
                    </mxGeometry>
                </mxCell>
                <mxCell id="221" value="Task Page" style="whiteSpace=wrap;html=1;strokeWidth=2;fillColor=default;" parent="1" vertex="1">
                    <mxGeometry x="1390" y="875" width="120" height="60" as="geometry"/>
                </mxCell>
                <mxCell id="288" style="edgeStyle=orthogonalEdgeStyle;jumpStyle=arc;jumpSize=8;html=1;exitX=0;exitY=0.5;exitDx=0;exitDy=0;entryX=0;entryY=0.5;entryDx=0;entryDy=0;fontSize=12;" parent="1" source="224" target="221" edge="1">
                    <mxGeometry relative="1" as="geometry">
                        <Array as="points">
                            <mxPoint x="1370" y="985"/>
                            <mxPoint x="1370" y="905"/>
                        </Array>
                    </mxGeometry>
                </mxCell>
                <mxCell id="224" value="Submit Task Button" style="whiteSpace=wrap;html=1;strokeWidth=2;fillColor=default;" parent="1" vertex="1">
                    <mxGeometry x="1390" y="955" width="120" height="60" as="geometry"/>
                </mxCell>
                <mxCell id="237" style="edgeStyle=orthogonalEdgeStyle;html=1;exitX=0.5;exitY=1;exitDx=0;exitDy=0;entryX=1;entryY=0.5;entryDx=0;entryDy=0;fontSize=10;" parent="1" source="227" target="228" edge="1">
                    <mxGeometry relative="1" as="geometry"/>
                </mxCell>
                <mxCell id="240" style="edgeStyle=orthogonalEdgeStyle;html=1;exitX=1;exitY=0.5;exitDx=0;exitDy=0;entryX=1;entryY=0.25;entryDx=0;entryDy=0;fontSize=10;jumpStyle=arc;" parent="1" source="227" target="221" edge="1">
                    <mxGeometry relative="1" as="geometry">
                        <Array as="points">
                            <mxPoint x="2040" y="813"/>
                            <mxPoint x="2040" y="1005"/>
                            <mxPoint x="1550" y="1005"/>
                            <mxPoint x="1550" y="890"/>
                        </Array>
                    </mxGeometry>
                </mxCell>
                <mxCell id="249" style="edgeStyle=orthogonalEdgeStyle;jumpStyle=arc;jumpSize=8;html=1;exitX=1;exitY=0.5;exitDx=0;exitDy=0;fontSize=10;" parent="1" source="227" target="241" edge="1">
                    <mxGeometry relative="1" as="geometry"/>
                </mxCell>
                <mxCell id="293" style="edgeStyle=orthogonalEdgeStyle;jumpStyle=arc;jumpSize=8;html=1;exitX=0.75;exitY=1;exitDx=0;exitDy=0;entryX=0.5;entryY=0;entryDx=0;entryDy=0;fontSize=12;" parent="1" source="227" target="284" edge="1">
                    <mxGeometry relative="1" as="geometry">
                        <Array as="points">
                            <mxPoint x="1990" y="843"/>
                        </Array>
                    </mxGeometry>
                </mxCell>
                <mxCell id="227" value="Your Project Page" style="whiteSpace=wrap;html=1;strokeWidth=2;fillColor=default;" parent="1" vertex="1">
                    <mxGeometry x="1910" y="782.5" width="120" height="60" as="geometry"/>
                </mxCell>
                <mxCell id="243" style="edgeStyle=orthogonalEdgeStyle;html=1;exitX=0.5;exitY=1;exitDx=0;exitDy=0;entryX=0.5;entryY=0;entryDx=0;entryDy=0;fontSize=10;jumpStyle=arc;jumpSize=8;" parent="1" source="228" target="242" edge="1">
                    <mxGeometry relative="1" as="geometry"/>
                </mxCell>
                <mxCell id="292" style="edgeStyle=orthogonalEdgeStyle;jumpStyle=arc;jumpSize=8;html=1;exitX=1;exitY=0.75;exitDx=0;exitDy=0;fontSize=12;" parent="1" source="228" target="284" edge="1">
                    <mxGeometry relative="1" as="geometry"/>
                </mxCell>
                <mxCell id="228" value="View other projects" style="whiteSpace=wrap;html=1;strokeWidth=2;fillColor=default;" parent="1" vertex="1">
                    <mxGeometry x="1730" y="905" width="120" height="60" as="geometry"/>
                </mxCell>
                <mxCell id="234" style="edgeStyle=orthogonalEdgeStyle;html=1;exitX=1;exitY=0.5;exitDx=0;exitDy=0;entryX=0;entryY=0.5;entryDx=0;entryDy=0;" parent="1" source="230" target="227" edge="1">
                    <mxGeometry relative="1" as="geometry"/>
                </mxCell>
                <mxCell id="239" style="edgeStyle=orthogonalEdgeStyle;html=1;exitX=0.5;exitY=1;exitDx=0;exitDy=0;entryX=0.5;entryY=0;entryDx=0;entryDy=0;fontSize=10;" parent="1" source="230" target="228" edge="1">
                    <mxGeometry relative="1" as="geometry"/>
                </mxCell>
                <mxCell id="230" value="" style="rhombus;whiteSpace=wrap;html=1;strokeWidth=2;fillColor=default;" parent="1" vertex="1">
                    <mxGeometry x="1777.5" y="800" width="25" height="25" as="geometry"/>
                </mxCell>
                <mxCell id="236" value="&lt;font style=&quot;font-size: 10px;&quot;&gt;[Student has been allocated a project]&lt;/font&gt;" style="text;strokeColor=none;align=center;fillColor=none;html=1;verticalAlign=middle;whiteSpace=wrap;rounded=0;strokeWidth=2;" parent="1" vertex="1">
                    <mxGeometry x="1810" y="775" width="90" height="30" as="geometry"/>
                </mxCell>
                <mxCell id="238" value="&lt;font style=&quot;font-size: 10px;&quot;&gt;[Student has not been allocated a project]&lt;/font&gt;" style="text;strokeColor=none;align=center;fillColor=none;html=1;verticalAlign=middle;whiteSpace=wrap;rounded=0;strokeWidth=2;" parent="1" vertex="1">
                    <mxGeometry x="1670" y="842.5" width="110" height="30" as="geometry"/>
                </mxCell>
                <mxCell id="248" style="edgeStyle=orthogonalEdgeStyle;jumpStyle=arc;jumpSize=8;html=1;exitX=0.5;exitY=1;exitDx=0;exitDy=0;entryX=0.5;entryY=0;entryDx=0;entryDy=0;fontSize=10;" parent="1" source="241" target="247" edge="1">
                    <mxGeometry relative="1" as="geometry"/>
                </mxCell>
                <mxCell id="295" style="edgeStyle=orthogonalEdgeStyle;jumpStyle=arc;jumpSize=8;html=1;exitX=0.25;exitY=1;exitDx=0;exitDy=0;entryX=0.5;entryY=0;entryDx=0;entryDy=0;fontSize=12;" parent="1" source="241" target="284" edge="1">
                    <mxGeometry relative="1" as="geometry">
                        <Array as="points">
                            <mxPoint x="2130" y="870"/>
                            <mxPoint x="1990" y="870"/>
                        </Array>
                    </mxGeometry>
                </mxCell>
                <mxCell id="241" value="Events Page" style="whiteSpace=wrap;html=1;strokeWidth=2;fillColor=default;" parent="1" vertex="1">
                    <mxGeometry x="2100" y="782.5" width="120" height="60" as="geometry"/>
                </mxCell>
                <mxCell id="245" style="edgeStyle=orthogonalEdgeStyle;jumpStyle=arc;jumpSize=8;html=1;exitX=0.5;exitY=1;exitDx=0;exitDy=0;entryX=0.5;entryY=0;entryDx=0;entryDy=0;fontSize=10;" parent="1" source="242" target="244" edge="1">
                    <mxGeometry relative="1" as="geometry"/>
                </mxCell>
                <mxCell id="242" value="Other Project Page" style="whiteSpace=wrap;html=1;strokeWidth=2;fillColor=default;" parent="1" vertex="1">
                    <mxGeometry x="1730" y="1040" width="120" height="60" as="geometry"/>
                </mxCell>
                <mxCell id="291" style="edgeStyle=orthogonalEdgeStyle;jumpStyle=arc;jumpSize=8;html=1;exitX=0;exitY=0.5;exitDx=0;exitDy=0;entryX=0;entryY=0.5;entryDx=0;entryDy=0;fontSize=12;" parent="1" source="244" target="228" edge="1">
                    <mxGeometry relative="1" as="geometry">
                        <Array as="points">
                            <mxPoint x="1700" y="1160"/>
                            <mxPoint x="1700" y="935"/>
                        </Array>
                    </mxGeometry>
                </mxCell>
                <mxCell id="244" value="Request to undertake this project button" style="whiteSpace=wrap;html=1;strokeWidth=2;fillColor=default;" parent="1" vertex="1">
                    <mxGeometry x="1730" y="1130" width="120" height="60" as="geometry"/>
                </mxCell>
                <mxCell id="247" value="Event Page" style="whiteSpace=wrap;html=1;strokeWidth=2;fillColor=default;" parent="1" vertex="1">
                    <mxGeometry x="2100" y="880" width="120" height="60" as="geometry"/>
                </mxCell>
                <mxCell id="271" style="edgeStyle=orthogonalEdgeStyle;jumpStyle=arc;jumpSize=8;html=1;exitX=0.5;exitY=1;exitDx=0;exitDy=0;entryX=0.5;entryY=0;entryDx=0;entryDy=0;fontSize=10;" parent="1" source="250" target="270" edge="1">
                    <mxGeometry relative="1" as="geometry"/>
                </mxCell>
                <mxCell id="250" value="Complaint Page" style="whiteSpace=wrap;html=1;strokeWidth=2;fillColor=default;" parent="1" vertex="1">
                    <mxGeometry x="2270" y="900" width="120" height="60" as="geometry"/>
                </mxCell>
                <mxCell id="266" style="edgeStyle=orthogonalEdgeStyle;jumpStyle=arc;jumpSize=8;html=1;exitX=0;exitY=0.5;exitDx=0;exitDy=0;entryX=1;entryY=0.5;entryDx=0;entryDy=0;fontSize=10;" parent="1" source="251" target="250" edge="1">
                    <mxGeometry relative="1" as="geometry"/>
                </mxCell>
                <mxCell id="251" value="Submit a complaint" style="whiteSpace=wrap;html=1;strokeWidth=2;fillColor=default;" parent="1" vertex="1">
                    <mxGeometry x="2460" y="900" width="120" height="60" as="geometry"/>
                </mxCell>
                <mxCell id="263" style="edgeStyle=orthogonalEdgeStyle;jumpStyle=arc;jumpSize=8;html=1;exitX=0.5;exitY=1;exitDx=0;exitDy=0;entryX=0.5;entryY=0;entryDx=0;entryDy=0;fontSize=10;" parent="1" source="252" target="259" edge="1">
                    <mxGeometry relative="1" as="geometry"/>
                </mxCell>
                <mxCell id="300" style="edgeStyle=orthogonalEdgeStyle;jumpStyle=arc;jumpSize=8;html=1;exitX=1;exitY=0.5;exitDx=0;exitDy=0;entryX=1;entryY=0.5;entryDx=0;entryDy=0;fontSize=12;" parent="1" source="252" target="284" edge="1">
                    <mxGeometry relative="1" as="geometry">
                        <Array as="points">
                            <mxPoint x="2600" y="810"/>
                            <mxPoint x="2600" y="1280"/>
                        </Array>
                    </mxGeometry>
                </mxCell>
                <mxCell id="252" value="Complaints Page" style="whiteSpace=wrap;html=1;strokeWidth=2;fillColor=default;" parent="1" vertex="1">
                    <mxGeometry x="2360" y="780" width="120" height="60" as="geometry"/>
                </mxCell>
                <mxCell id="264" style="edgeStyle=orthogonalEdgeStyle;jumpStyle=arc;jumpSize=8;html=1;exitX=0.5;exitY=1;exitDx=0;exitDy=0;fontSize=10;" parent="1" source="259" target="250" edge="1">
                    <mxGeometry relative="1" as="geometry"/>
                </mxCell>
                <mxCell id="265" style="edgeStyle=orthogonalEdgeStyle;jumpStyle=arc;jumpSize=8;html=1;exitX=0.5;exitY=1;exitDx=0;exitDy=0;fontSize=10;" parent="1" source="259" target="251" edge="1">
                    <mxGeometry relative="1" as="geometry"/>
                </mxCell>
                <mxCell id="259" value="" style="whiteSpace=wrap;html=1;strokeWidth=2;fontSize=10;fillColor=default;" parent="1" vertex="1">
                    <mxGeometry x="2307.5" y="862.5" width="225" height="10" as="geometry"/>
                </mxCell>
                <mxCell id="268" value="Reply to a complaint" style="whiteSpace=wrap;html=1;strokeWidth=2;fillColor=default;" parent="1" vertex="1">
                    <mxGeometry x="2270" y="1060" width="120" height="60" as="geometry"/>
                </mxCell>
                <mxCell id="272" style="edgeStyle=orthogonalEdgeStyle;jumpStyle=arc;jumpSize=8;html=1;exitX=0.5;exitY=1;exitDx=0;exitDy=0;entryX=0.5;entryY=0;entryDx=0;entryDy=0;fontSize=10;" parent="1" source="270" target="268" edge="1">
                    <mxGeometry relative="1" as="geometry"/>
                </mxCell>
                <mxCell id="273" style="edgeStyle=orthogonalEdgeStyle;jumpStyle=arc;jumpSize=8;html=1;exitX=0;exitY=0.5;exitDx=0;exitDy=0;entryX=0;entryY=0.5;entryDx=0;entryDy=0;fontSize=10;" parent="1" source="270" target="250" edge="1">
                    <mxGeometry relative="1" as="geometry">
                        <Array as="points">
                            <mxPoint x="2240" y="1005"/>
                            <mxPoint x="2240" y="930"/>
                        </Array>
                    </mxGeometry>
                </mxCell>
                <mxCell id="270" value="" style="rhombus;whiteSpace=wrap;html=1;strokeWidth=2;fontSize=10;fillColor=default;" parent="1" vertex="1">
                    <mxGeometry x="2320" y="995" width="20" height="20" as="geometry"/>
                </mxCell>
                <mxCell id="274" value="[Complaint has not been closed]" style="text;strokeColor=none;align=center;fillColor=none;html=1;verticalAlign=middle;whiteSpace=wrap;rounded=0;strokeWidth=2;fontSize=10;" parent="1" vertex="1">
                    <mxGeometry x="2330" y="1020" width="110" height="30" as="geometry"/>
                </mxCell>
                <mxCell id="275" value="[Complaint has been closed]" style="text;strokeColor=none;align=center;fillColor=none;html=1;verticalAlign=middle;whiteSpace=wrap;rounded=0;strokeWidth=2;fontSize=10;" parent="1" vertex="1">
                    <mxGeometry x="2240" y="970" width="80" height="30" as="geometry"/>
                </mxCell>
                <mxCell id="296" style="edgeStyle=orthogonalEdgeStyle;jumpStyle=arc;jumpSize=8;html=1;exitX=0.5;exitY=1;exitDx=0;exitDy=0;entryX=0;entryY=0.5;entryDx=0;entryDy=0;fontSize=12;" parent="1" source="284" target="207" edge="1">
                    <mxGeometry relative="1" as="geometry">
                        <Array as="points">
                            <mxPoint x="1990" y="1330"/>
                            <mxPoint x="1340" y="1330"/>
                            <mxPoint x="1340" y="640"/>
                        </Array>
                    </mxGeometry>
                </mxCell>
                <mxCell id="284" value="&lt;font style=&quot;font-size: 12px;&quot;&gt;Continue&lt;/font&gt;" style="rhombus;whiteSpace=wrap;html=1;strokeWidth=2;fontSize=10;fillColor=default;" parent="1" vertex="1">
                    <mxGeometry x="1950" y="1240" width="80" height="80" as="geometry"/>
                </mxCell>
                <mxCell id="311" style="edgeStyle=orthogonalEdgeStyle;jumpStyle=arc;jumpSize=8;html=1;exitX=1;exitY=0.5;exitDx=0;exitDy=0;entryX=0;entryY=0.5;entryDx=0;entryDy=0;fontSize=12;" parent="1" source="305" target="308" edge="1">
                    <mxGeometry relative="1" as="geometry"/>
                </mxCell>
                <mxCell id="461" style="edgeStyle=orthogonalEdgeStyle;jumpStyle=arc;jumpSize=8;html=1;exitX=0.5;exitY=1;exitDx=0;exitDy=0;entryX=0.5;entryY=0;entryDx=0;entryDy=0;fontSize=10;" parent="1" source="305" target="460" edge="1">
                    <mxGeometry relative="1" as="geometry"/>
                </mxCell>
                <mxCell id="305" value="" style="rhombus;whiteSpace=wrap;html=1;strokeWidth=2;fillColor=default;" parent="1" vertex="1">
                    <mxGeometry x="1236" y="1451" width="30" height="30" as="geometry"/>
                </mxCell>
                <mxCell id="307" value="[Not a Student Account[" style="text;strokeColor=none;align=center;fillColor=none;html=1;verticalAlign=middle;whiteSpace=wrap;rounded=0;strokeWidth=2;" parent="1" vertex="1">
                    <mxGeometry x="1100" y="660" width="150" height="30" as="geometry"/>
                </mxCell>
                <mxCell id="321" style="edgeStyle=orthogonalEdgeStyle;jumpStyle=arc;jumpSize=8;html=1;exitX=0.25;exitY=1;exitDx=0;exitDy=0;entryX=0.5;entryY=0;entryDx=0;entryDy=0;fontSize=21;" parent="1" source="312" target="316" edge="1">
                    <mxGeometry relative="1" as="geometry"/>
                </mxCell>
                <mxCell id="399" style="edgeStyle=orthogonalEdgeStyle;jumpStyle=arc;jumpSize=8;html=1;exitX=0.75;exitY=1;exitDx=0;exitDy=0;fontSize=10;" parent="1" source="312" target="320" edge="1">
                    <mxGeometry relative="1" as="geometry"/>
                </mxCell>
                <mxCell id="314" value="&lt;font style=&quot;font-size: 21px;&quot;&gt;Student Section&lt;/font&gt;" style="swimlane;whiteSpace=wrap;html=1;strokeWidth=2;fontSize=12;fillColor=default;" parent="1" vertex="1">
                    <mxGeometry x="1300" y="560" width="1670" height="800" as="geometry"/>
                </mxCell>
                <mxCell id="207" value="Student Dashboard" style="whiteSpace=wrap;html=1;strokeWidth=2;fillColor=default;" parent="314" vertex="1">
                    <mxGeometry x="770" y="50" width="120" height="60" as="geometry"/>
                </mxCell>
                <mxCell id="674" style="edgeStyle=orthogonalEdgeStyle;jumpStyle=arc;jumpSize=8;html=1;exitX=0.75;exitY=1;exitDx=0;exitDy=0;entryX=0.5;entryY=0;entryDx=0;entryDy=0;fontSize=10;" parent="314" source="216" target="655" edge="1">
                    <mxGeometry relative="1" as="geometry"/>
                </mxCell>
                <mxCell id="216" value="" style="rounded=0;whiteSpace=wrap;html=1;strokeWidth=2;fillColor=default;" parent="314" vertex="1">
                    <mxGeometry x="230" y="140" width="1200" height="10" as="geometry"/>
                </mxCell>
                <mxCell id="217" style="edgeStyle=orthogonalEdgeStyle;html=1;exitX=0.5;exitY=1;exitDx=0;exitDy=0;entryX=0.5;entryY=0;entryDx=0;entryDy=0;" parent="314" source="207" target="216" edge="1">
                    <mxGeometry relative="1" as="geometry"/>
                </mxCell>
                <mxCell id="655" value="My Profile" style="whiteSpace=wrap;html=1;strokeWidth=2;fontSize=10;fillColor=default;" parent="314" vertex="1">
                    <mxGeometry x="1430" y="230" width="123" height="60.5" as="geometry"/>
                </mxCell>
                <mxCell id="297" value="Log out" style="whiteSpace=wrap;html=1;strokeWidth=2;fillColor=default;" parent="314" vertex="1">
                    <mxGeometry x="1510" y="347.5" width="120" height="60" as="geometry"/>
                </mxCell>
                <mxCell id="665" value="" style="group" parent="314" vertex="1" connectable="0">
                    <mxGeometry x="1350" y="347.5" width="120" height="260" as="geometry"/>
                </mxCell>
                <mxCell id="656" value="Edit Profile" style="whiteSpace=wrap;html=1;strokeWidth=2;fontSize=10;fillColor=default;" parent="665" vertex="1">
                    <mxGeometry width="120" height="60" as="geometry"/>
                </mxCell>
                <mxCell id="657" value="Verify Password change using Email" style="whiteSpace=wrap;html=1;strokeWidth=2;fontSize=10;fillColor=default;" parent="665" vertex="1">
                    <mxGeometry y="200" width="120" height="60" as="geometry"/>
                </mxCell>
                <mxCell id="661" style="edgeStyle=orthogonalEdgeStyle;jumpStyle=arc;jumpSize=8;html=1;exitX=0.5;exitY=1;exitDx=0;exitDy=0;entryX=0.5;entryY=0;entryDx=0;entryDy=0;fontSize=10;" parent="665" source="658" target="657" edge="1">
                    <mxGeometry relative="1" as="geometry"/>
                </mxCell>
                <mxCell id="658" value="Edit Password" style="whiteSpace=wrap;html=1;strokeWidth=2;fontSize=10;fillColor=default;" parent="665" vertex="1">
                    <mxGeometry y="95" width="120" height="60" as="geometry"/>
                </mxCell>
                <mxCell id="660" style="edgeStyle=orthogonalEdgeStyle;jumpStyle=arc;jumpSize=8;html=1;exitX=0.5;exitY=1;exitDx=0;exitDy=0;entryX=0.5;entryY=0;entryDx=0;entryDy=0;fontSize=10;" parent="665" source="656" target="658" edge="1">
                    <mxGeometry relative="1" as="geometry"/>
                </mxCell>
                <mxCell id="668" style="edgeStyle=orthogonalEdgeStyle;jumpStyle=arc;jumpSize=8;html=1;exitX=0.5;exitY=1;exitDx=0;exitDy=0;entryX=0.5;entryY=0;entryDx=0;entryDy=0;fontSize=10;" parent="314" source="666" target="656" edge="1">
                    <mxGeometry relative="1" as="geometry"/>
                </mxCell>
                <mxCell id="669" style="edgeStyle=orthogonalEdgeStyle;jumpStyle=arc;jumpSize=8;html=1;exitX=0.5;exitY=1;exitDx=0;exitDy=0;fontSize=10;" parent="314" source="666" target="297" edge="1">
                    <mxGeometry relative="1" as="geometry"/>
                </mxCell>
                <mxCell id="666" value="" style="whiteSpace=wrap;html=1;strokeWidth=2;fontSize=10;fillColor=default;" parent="314" vertex="1">
                    <mxGeometry x="1379" y="307.5" width="225" height="10" as="geometry"/>
                </mxCell>
                <mxCell id="670" style="edgeStyle=orthogonalEdgeStyle;jumpStyle=arc;jumpSize=8;html=1;exitX=0;exitY=0.5;exitDx=0;exitDy=0;entryX=0;entryY=0.5;entryDx=0;entryDy=0;fontSize=10;" parent="314" source="656" target="655" edge="1">
                    <mxGeometry relative="1" as="geometry">
                        <Array as="points">
                            <mxPoint x="1330" y="377.5"/>
                            <mxPoint x="1330" y="260.5"/>
                        </Array>
                    </mxGeometry>
                </mxCell>
                <mxCell id="667" style="edgeStyle=orthogonalEdgeStyle;jumpStyle=arc;jumpSize=8;html=1;exitX=0.5;exitY=1;exitDx=0;exitDy=0;entryX=0.5;entryY=0;entryDx=0;entryDy=0;fontSize=10;" parent="314" source="655" target="666" edge="1">
                    <mxGeometry relative="1" as="geometry"/>
                </mxCell>
                <mxCell id="672" style="edgeStyle=orthogonalEdgeStyle;jumpStyle=arc;jumpSize=8;html=1;exitX=0;exitY=0.5;exitDx=0;exitDy=0;entryX=0;entryY=0.5;entryDx=0;entryDy=0;fontSize=10;" parent="314" source="657" target="655" edge="1">
                    <mxGeometry relative="1" as="geometry">
                        <Array as="points">
                            <mxPoint x="1330" y="577.5"/>
                            <mxPoint x="1330" y="260.5"/>
                        </Array>
                    </mxGeometry>
                </mxCell>
                <mxCell id="324" style="edgeStyle=orthogonalEdgeStyle;jumpStyle=arc;jumpSize=8;html=1;exitX=0.5;exitY=1;exitDx=0;exitDy=0;entryX=0.5;entryY=0;entryDx=0;entryDy=0;fontSize=21;" parent="1" source="316" target="323" edge="1">
                    <mxGeometry relative="1" as="geometry"/>
                </mxCell>
                <mxCell id="478" style="edgeStyle=orthogonalEdgeStyle;jumpStyle=arc;jumpSize=8;html=1;exitX=1;exitY=0.5;exitDx=0;exitDy=0;entryX=0;entryY=0.5;entryDx=0;entryDy=0;fontSize=10;" parent="1" source="316" target="474" edge="1">
                    <mxGeometry relative="1" as="geometry">
                        <Array as="points">
                            <mxPoint x="1820" y="1619"/>
                            <mxPoint x="1820" y="2210"/>
                        </Array>
                    </mxGeometry>
                </mxCell>
                <mxCell id="316" value="FYP Batch Management Page" style="whiteSpace=wrap;html=1;strokeWidth=2;fillColor=default;" parent="1" vertex="1">
                    <mxGeometry x="1560" y="1589" width="120" height="60" as="geometry"/>
                </mxCell>
                <mxCell id="347" style="edgeStyle=orthogonalEdgeStyle;jumpStyle=arc;jumpSize=8;html=1;exitX=0.5;exitY=1;exitDx=0;exitDy=0;entryX=0.5;entryY=0;entryDx=0;entryDy=0;fontSize=10;" parent="1" source="317" target="346" edge="1">
                    <mxGeometry relative="1" as="geometry"/>
                </mxCell>
                <mxCell id="356" style="edgeStyle=orthogonalEdgeStyle;jumpStyle=arc;jumpSize=8;html=1;exitX=1;exitY=0.5;exitDx=0;exitDy=0;fontSize=10;" parent="1" source="317" target="348" edge="1">
                    <mxGeometry relative="1" as="geometry">
                        <Array as="points">
                            <mxPoint x="1890" y="1619"/>
                            <mxPoint x="1890" y="1851"/>
                        </Array>
                    </mxGeometry>
                </mxCell>
                <mxCell id="357" style="edgeStyle=orthogonalEdgeStyle;jumpStyle=arc;jumpSize=8;html=1;exitX=1;exitY=0.5;exitDx=0;exitDy=0;entryX=1;entryY=0.5;entryDx=0;entryDy=0;fontSize=10;" parent="1" source="317" target="349" edge="1">
                    <mxGeometry relative="1" as="geometry">
                        <Array as="points">
                            <mxPoint x="2260" y="1619"/>
                            <mxPoint x="2260" y="1850"/>
                        </Array>
                    </mxGeometry>
                </mxCell>
                <mxCell id="479" style="edgeStyle=orthogonalEdgeStyle;jumpStyle=arc;jumpSize=8;html=1;exitX=0;exitY=0.25;exitDx=0;exitDy=0;entryX=0;entryY=0.5;entryDx=0;entryDy=0;fontSize=10;" parent="1" source="317" target="474" edge="1">
                    <mxGeometry relative="1" as="geometry">
                        <Array as="points">
                            <mxPoint x="1870" y="1604"/>
                            <mxPoint x="1870" y="2210"/>
                        </Array>
                    </mxGeometry>
                </mxCell>
                <mxCell id="317" value="Project Title Request Management Page" style="whiteSpace=wrap;html=1;strokeWidth=2;fillColor=default;" parent="1" vertex="1">
                    <mxGeometry x="2020" y="1589" width="120" height="60" as="geometry"/>
                </mxCell>
                <mxCell id="366" style="edgeStyle=orthogonalEdgeStyle;jumpStyle=arc;jumpSize=8;html=1;exitX=0.5;exitY=1;exitDx=0;exitDy=0;entryX=0.5;entryY=0;entryDx=0;entryDy=0;fontSize=10;" parent="1" source="319" target="365" edge="1">
                    <mxGeometry relative="1" as="geometry"/>
                </mxCell>
                <mxCell id="480" style="edgeStyle=orthogonalEdgeStyle;jumpStyle=arc;jumpSize=8;html=1;exitX=0;exitY=0.75;exitDx=0;exitDy=0;entryX=0;entryY=0.5;entryDx=0;entryDy=0;fontSize=10;" parent="1" source="319" target="474" edge="1">
                    <mxGeometry relative="1" as="geometry">
                        <Array as="points">
                            <mxPoint x="2340" y="1635"/>
                            <mxPoint x="2340" y="1890"/>
                            <mxPoint x="2160" y="1890"/>
                            <mxPoint x="2160" y="2210"/>
                        </Array>
                    </mxGeometry>
                </mxCell>
                <mxCell id="319" value="Task Management Page" style="whiteSpace=wrap;html=1;strokeWidth=2;fillColor=default;" parent="1" vertex="1">
                    <mxGeometry x="2480" y="1590" width="120" height="60" as="geometry"/>
                </mxCell>
                <mxCell id="402" style="edgeStyle=orthogonalEdgeStyle;jumpStyle=arc;jumpSize=8;html=1;exitX=0.5;exitY=1;exitDx=0;exitDy=0;entryX=0.5;entryY=0;entryDx=0;entryDy=0;fontSize=10;" parent="1" source="320" target="401" edge="1">
                    <mxGeometry relative="1" as="geometry"/>
                </mxCell>
                <mxCell id="481" style="edgeStyle=orthogonalEdgeStyle;jumpStyle=arc;jumpSize=8;html=1;exitX=0;exitY=0.25;exitDx=0;exitDy=0;entryX=1;entryY=0.5;entryDx=0;entryDy=0;fontSize=10;" parent="1" source="320" target="474" edge="1">
                    <mxGeometry relative="1" as="geometry">
                        <Array as="points">
                            <mxPoint x="2840" y="1605"/>
                            <mxPoint x="2840" y="2210"/>
                        </Array>
                    </mxGeometry>
                </mxCell>
                <mxCell id="320" value="Event Management Page" style="whiteSpace=wrap;html=1;strokeWidth=2;fillColor=default;" parent="1" vertex="1">
                    <mxGeometry x="3005" y="1590" width="120" height="60" as="geometry"/>
                </mxCell>
                <mxCell id="327" style="edgeStyle=orthogonalEdgeStyle;jumpStyle=arc;jumpSize=8;html=1;exitX=0.5;exitY=1;exitDx=0;exitDy=0;fontSize=21;" parent="1" source="323" target="325" edge="1">
                    <mxGeometry relative="1" as="geometry"/>
                </mxCell>
                <mxCell id="329" style="edgeStyle=orthogonalEdgeStyle;jumpStyle=arc;jumpSize=8;html=1;exitX=0.5;exitY=1;exitDx=0;exitDy=0;entryX=0.5;entryY=0;entryDx=0;entryDy=0;fontSize=21;" parent="1" source="323" target="328" edge="1">
                    <mxGeometry relative="1" as="geometry"/>
                </mxCell>
                <mxCell id="809" style="edgeStyle=orthogonalEdgeStyle;jumpStyle=arc;jumpSize=8;html=1;exitX=0.75;exitY=1;exitDx=0;exitDy=0;strokeWidth=2;fontSize=10;startArrow=none;startFill=0;endArrow=classic;endFill=1;" parent="1" source="323" target="807" edge="1">
                    <mxGeometry relative="1" as="geometry">
                        <Array as="points">
                            <mxPoint x="1690" y="1700"/>
                            <mxPoint x="1810" y="1700"/>
                            <mxPoint x="1810" y="1980"/>
                        </Array>
                    </mxGeometry>
                </mxCell>
                <mxCell id="323" value="" style="whiteSpace=wrap;html=1;strokeWidth=2;fontSize=21;fillColor=default;" parent="1" vertex="1">
                    <mxGeometry x="1480" y="1675" width="280" height="10" as="geometry"/>
                </mxCell>
                <mxCell id="343" style="edgeStyle=orthogonalEdgeStyle;jumpStyle=arc;jumpSize=8;html=1;exitX=0;exitY=0.5;exitDx=0;exitDy=0;entryX=1;entryY=0.5;entryDx=0;entryDy=0;fontSize=10;" parent="1" source="325" target="328" edge="1">
                    <mxGeometry relative="1" as="geometry"/>
                </mxCell>
                <mxCell id="325" value="Create new FYP Batch" style="whiteSpace=wrap;html=1;strokeWidth=2;fillColor=default;" parent="1" vertex="1">
                    <mxGeometry x="1660" y="1737" width="120" height="60" as="geometry"/>
                </mxCell>
                <mxCell id="338" style="edgeStyle=orthogonalEdgeStyle;jumpStyle=arc;jumpSize=8;html=1;exitX=0.5;exitY=1;exitDx=0;exitDy=0;entryX=0.5;entryY=0;entryDx=0;entryDy=0;fontSize=10;" parent="1" source="328" target="332" edge="1">
                    <mxGeometry relative="1" as="geometry"/>
                </mxCell>
                <mxCell id="328" value="View FYP Batch" style="whiteSpace=wrap;html=1;strokeWidth=2;fillColor=default;" parent="1" vertex="1">
                    <mxGeometry x="1450" y="1737" width="120" height="60" as="geometry"/>
                </mxCell>
                <mxCell id="339" style="edgeStyle=orthogonalEdgeStyle;jumpStyle=arc;jumpSize=8;html=1;exitX=1;exitY=0.5;exitDx=0;exitDy=0;entryX=0;entryY=0.5;entryDx=0;entryDy=0;fontSize=10;" parent="1" source="332" target="336" edge="1">
                    <mxGeometry relative="1" as="geometry"/>
                </mxCell>
                <mxCell id="340" style="edgeStyle=orthogonalEdgeStyle;jumpStyle=arc;jumpSize=8;html=1;exitX=0;exitY=0.5;exitDx=0;exitDy=0;entryX=0;entryY=0.5;entryDx=0;entryDy=0;fontSize=10;" parent="1" source="332" target="328" edge="1">
                    <mxGeometry relative="1" as="geometry">
                        <Array as="points">
                            <mxPoint x="1380" y="1883"/>
                            <mxPoint x="1380" y="1767"/>
                        </Array>
                    </mxGeometry>
                </mxCell>
                <mxCell id="332" value="" style="rhombus;whiteSpace=wrap;html=1;strokeWidth=2;fillColor=default;" parent="1" vertex="1">
                    <mxGeometry x="1495" y="1868" width="30" height="30" as="geometry"/>
                </mxCell>
                <mxCell id="335" value="&lt;font style=&quot;font-size: 10px;&quot;&gt;[Head Coordinator of the project Batch]&lt;/font&gt;" style="text;strokeColor=none;align=center;fillColor=none;html=1;verticalAlign=middle;whiteSpace=wrap;rounded=0;strokeWidth=2;" parent="1" vertex="1">
                    <mxGeometry x="1525" y="1849" width="110" height="30" as="geometry"/>
                </mxCell>
                <mxCell id="342" style="edgeStyle=orthogonalEdgeStyle;jumpStyle=arc;jumpSize=8;html=1;exitX=0.25;exitY=1;exitDx=0;exitDy=0;entryX=0;entryY=0.5;entryDx=0;entryDy=0;fontSize=10;" parent="1" source="336" target="316" edge="1">
                    <mxGeometry relative="1" as="geometry">
                        <Array as="points">
                            <mxPoint x="1670" y="1923"/>
                            <mxPoint x="1370" y="1923"/>
                            <mxPoint x="1370" y="1619"/>
                        </Array>
                    </mxGeometry>
                </mxCell>
                <mxCell id="336" value="Close FYP Batch" style="whiteSpace=wrap;html=1;strokeWidth=2;fillColor=default;" parent="1" vertex="1">
                    <mxGeometry x="1640" y="1853" width="120" height="60" as="geometry"/>
                </mxCell>
                <mxCell id="341" value="&lt;font style=&quot;font-size: 10px;&quot;&gt;[Regular Coordinator of the project Batch]&lt;/font&gt;" style="text;strokeColor=none;align=center;fillColor=none;html=1;verticalAlign=middle;whiteSpace=wrap;rounded=0;strokeWidth=2;" parent="1" vertex="1">
                    <mxGeometry x="1385" y="1849" width="110" height="30" as="geometry"/>
                </mxCell>
                <mxCell id="355" style="edgeStyle=orthogonalEdgeStyle;jumpStyle=arc;jumpSize=8;html=1;exitX=0.5;exitY=1;exitDx=0;exitDy=0;fontSize=10;" parent="1" source="346" edge="1">
                    <mxGeometry relative="1" as="geometry">
                        <mxPoint x="2080" y="1760" as="targetPoint"/>
                    </mxGeometry>
                </mxCell>
                <mxCell id="346" value="View Project" style="whiteSpace=wrap;html=1;strokeWidth=2;fillColor=default;" parent="1" vertex="1">
                    <mxGeometry x="2020" y="1675" width="120" height="60" as="geometry"/>
                </mxCell>
                <mxCell id="359" style="edgeStyle=orthogonalEdgeStyle;jumpStyle=arc;jumpSize=8;html=1;exitX=0;exitY=0.25;exitDx=0;exitDy=0;entryX=0;entryY=0.75;entryDx=0;entryDy=0;fontSize=10;" parent="1" source="348" target="317" edge="1">
                    <mxGeometry relative="1" as="geometry">
                        <Array as="points">
                            <mxPoint x="1900" y="1836"/>
                            <mxPoint x="1900" y="1634"/>
                        </Array>
                    </mxGeometry>
                </mxCell>
                <mxCell id="348" value="Approve Project" style="whiteSpace=wrap;html=1;strokeWidth=2;fillColor=default;" parent="1" vertex="1">
                    <mxGeometry x="1930" y="1821" width="120" height="60" as="geometry"/>
                </mxCell>
                <mxCell id="358" style="edgeStyle=orthogonalEdgeStyle;jumpStyle=arc;jumpSize=8;html=1;exitX=1;exitY=0.25;exitDx=0;exitDy=0;entryX=1;entryY=0.75;entryDx=0;entryDy=0;fontSize=10;" parent="1" source="349" target="317" edge="1">
                    <mxGeometry relative="1" as="geometry">
                        <Array as="points">
                            <mxPoint x="2250" y="1835"/>
                            <mxPoint x="2250" y="1634"/>
                        </Array>
                    </mxGeometry>
                </mxCell>
                <mxCell id="349" value="Close Project" style="whiteSpace=wrap;html=1;strokeWidth=2;fillColor=default;" parent="1" vertex="1">
                    <mxGeometry x="2110" y="1820" width="120" height="60" as="geometry"/>
                </mxCell>
                <mxCell id="353" style="edgeStyle=orthogonalEdgeStyle;jumpStyle=arc;jumpSize=8;html=1;exitX=0.25;exitY=1;exitDx=0;exitDy=0;entryX=0.5;entryY=0;entryDx=0;entryDy=0;fontSize=10;" parent="1" source="352" target="348" edge="1">
                    <mxGeometry relative="1" as="geometry"/>
                </mxCell>
                <mxCell id="354" style="edgeStyle=orthogonalEdgeStyle;jumpStyle=arc;jumpSize=8;html=1;exitX=0.75;exitY=1;exitDx=0;exitDy=0;entryX=0.5;entryY=0;entryDx=0;entryDy=0;fontSize=10;" parent="1" source="352" target="349" edge="1">
                    <mxGeometry relative="1" as="geometry"/>
                </mxCell>
                <mxCell id="352" value="" style="whiteSpace=wrap;html=1;strokeWidth=2;fontSize=10;fillColor=default;" parent="1" vertex="1">
                    <mxGeometry x="1920" y="1762" width="320" height="10" as="geometry"/>
                </mxCell>
                <mxCell id="369" style="edgeStyle=orthogonalEdgeStyle;jumpStyle=arc;jumpSize=8;html=1;exitX=1;exitY=0.5;exitDx=0;exitDy=0;entryX=1;entryY=0.5;entryDx=0;entryDy=0;fontSize=10;" parent="1" source="361" target="319" edge="1">
                    <mxGeometry relative="1" as="geometry"/>
                </mxCell>
                <mxCell id="361" value="Create a new Task" style="whiteSpace=wrap;html=1;strokeWidth=2;fillColor=default;" parent="1" vertex="1">
                    <mxGeometry x="2570" y="1742" width="120" height="60" as="geometry"/>
                </mxCell>
                <mxCell id="377" style="edgeStyle=orthogonalEdgeStyle;jumpStyle=arc;jumpSize=8;html=1;exitX=0.5;exitY=1;exitDx=0;exitDy=0;entryX=0.5;entryY=0;entryDx=0;entryDy=0;fontSize=10;" parent="1" source="362" target="376" edge="1">
                    <mxGeometry relative="1" as="geometry"/>
                </mxCell>
                <mxCell id="362" value="Task Page" style="whiteSpace=wrap;html=1;strokeWidth=2;fillColor=default;" parent="1" vertex="1">
                    <mxGeometry x="2390" y="1742" width="120" height="60" as="geometry"/>
                </mxCell>
                <mxCell id="367" style="edgeStyle=orthogonalEdgeStyle;jumpStyle=arc;jumpSize=8;html=1;exitX=0.25;exitY=1;exitDx=0;exitDy=0;entryX=0.5;entryY=0;entryDx=0;entryDy=0;fontSize=10;" parent="1" source="365" target="362" edge="1">
                    <mxGeometry relative="1" as="geometry"/>
                </mxCell>
                <mxCell id="368" style="edgeStyle=orthogonalEdgeStyle;jumpStyle=arc;jumpSize=8;html=1;exitX=0.75;exitY=1;exitDx=0;exitDy=0;fontSize=10;" parent="1" source="365" target="361" edge="1">
                    <mxGeometry relative="1" as="geometry"/>
                </mxCell>
                <mxCell id="365" value="" style="whiteSpace=wrap;html=1;strokeWidth=2;fontSize=10;fillColor=default;" parent="1" vertex="1">
                    <mxGeometry x="2415" y="1685" width="250" height="10" as="geometry"/>
                </mxCell>
                <mxCell id="392" style="edgeStyle=orthogonalEdgeStyle;jumpStyle=arc;jumpSize=8;html=1;exitX=0.5;exitY=1;exitDx=0;exitDy=0;fontSize=10;" parent="1" source="370" edge="1">
                    <mxGeometry relative="1" as="geometry">
                        <mxPoint x="2450.0000000000005" y="2080" as="targetPoint"/>
                    </mxGeometry>
                </mxCell>
                <mxCell id="370" value="View Submission" style="whiteSpace=wrap;html=1;strokeWidth=2;fillColor=default;" parent="1" vertex="1">
                    <mxGeometry x="2210" y="1980" width="120" height="60" as="geometry"/>
                </mxCell>
                <mxCell id="396" style="edgeStyle=orthogonalEdgeStyle;jumpStyle=arc;jumpSize=8;html=1;exitX=1;exitY=0.5;exitDx=0;exitDy=0;entryX=1;entryY=0.5;entryDx=0;entryDy=0;fontSize=10;" parent="1" source="371" target="319" edge="1">
                    <mxGeometry relative="1" as="geometry">
                        <Array as="points">
                            <mxPoint x="2700" y="1873"/>
                            <mxPoint x="2700" y="1620"/>
                        </Array>
                    </mxGeometry>
                </mxCell>
                <mxCell id="371" value="Submit Task" style="whiteSpace=wrap;html=1;strokeWidth=2;fillColor=default;" parent="1" vertex="1">
                    <mxGeometry x="2532.5" y="1843" width="120" height="60" as="geometry"/>
                </mxCell>
                <mxCell id="390" style="edgeStyle=orthogonalEdgeStyle;jumpStyle=arc;jumpSize=8;html=1;exitX=0.5;exitY=1;exitDx=0;exitDy=0;entryX=0.5;entryY=0;entryDx=0;entryDy=0;fontSize=10;" parent="1" source="373" target="389" edge="1">
                    <mxGeometry relative="1" as="geometry"/>
                </mxCell>
                <mxCell id="373" value="Lock Task" style="whiteSpace=wrap;html=1;strokeWidth=2;fillColor=default;" parent="1" vertex="1">
                    <mxGeometry x="2390" y="1980" width="120" height="60" as="geometry"/>
                </mxCell>
                <mxCell id="391" style="edgeStyle=orthogonalEdgeStyle;jumpStyle=arc;jumpSize=8;html=1;exitX=0.5;exitY=1;exitDx=0;exitDy=0;fontSize=10;" parent="1" source="374" edge="1">
                    <mxGeometry relative="1" as="geometry">
                        <mxPoint x="2450.0000000000005" y="2080" as="targetPoint"/>
                    </mxGeometry>
                </mxCell>
                <mxCell id="374" value="Delete Task" style="whiteSpace=wrap;html=1;strokeWidth=2;fillColor=default;" parent="1" vertex="1">
                    <mxGeometry x="2552.5" y="1980" width="120" height="60" as="geometry"/>
                </mxCell>
                <mxCell id="381" style="edgeStyle=orthogonalEdgeStyle;jumpStyle=arc;jumpSize=8;html=1;exitX=1;exitY=0.5;exitDx=0;exitDy=0;entryX=0;entryY=0.5;entryDx=0;entryDy=0;fontSize=10;" parent="1" source="376" target="371" edge="1">
                    <mxGeometry relative="1" as="geometry"/>
                </mxCell>
                <mxCell id="382" style="edgeStyle=orthogonalEdgeStyle;jumpStyle=arc;jumpSize=8;html=1;exitX=0.5;exitY=1;exitDx=0;exitDy=0;entryX=0.5;entryY=0;entryDx=0;entryDy=0;fontSize=10;" parent="1" source="376" target="380" edge="1">
                    <mxGeometry relative="1" as="geometry"/>
                </mxCell>
                <mxCell id="376" value="" style="rhombus;whiteSpace=wrap;html=1;strokeWidth=2;fillColor=default;" parent="1" vertex="1">
                    <mxGeometry x="2435" y="1858" width="30" height="30" as="geometry"/>
                </mxCell>
                <mxCell id="383" style="edgeStyle=orthogonalEdgeStyle;jumpStyle=arc;jumpSize=8;html=1;exitX=0.5;exitY=1;exitDx=0;exitDy=0;entryX=0.5;entryY=0;entryDx=0;entryDy=0;fontSize=10;" parent="1" source="380" target="373" edge="1">
                    <mxGeometry relative="1" as="geometry"/>
                </mxCell>
                <mxCell id="384" style="edgeStyle=orthogonalEdgeStyle;jumpStyle=arc;jumpSize=8;html=1;exitX=0.25;exitY=1;exitDx=0;exitDy=0;entryX=0.5;entryY=0;entryDx=0;entryDy=0;fontSize=10;" parent="1" source="380" target="370" edge="1">
                    <mxGeometry relative="1" as="geometry"/>
                </mxCell>
                <mxCell id="385" style="edgeStyle=orthogonalEdgeStyle;jumpStyle=arc;jumpSize=8;html=1;exitX=0.75;exitY=1;exitDx=0;exitDy=0;fontSize=10;" parent="1" source="380" target="374" edge="1">
                    <mxGeometry relative="1" as="geometry"/>
                </mxCell>
                <mxCell id="413" style="edgeStyle=orthogonalEdgeStyle;jumpStyle=arc;jumpSize=8;html=1;exitX=0.75;exitY=1;exitDx=0;exitDy=0;fontSize=10;" parent="1" source="380" target="412" edge="1">
                    <mxGeometry relative="1" as="geometry"/>
                </mxCell>
                <mxCell id="380" value="" style="whiteSpace=wrap;html=1;strokeWidth=2;fontSize=10;fillColor=default;" parent="1" vertex="1">
                    <mxGeometry x="2295" y="1926" width="310" height="10" as="geometry"/>
                </mxCell>
                <mxCell id="386" value="[Task was assigned to user]" style="text;strokeColor=none;align=center;fillColor=none;html=1;verticalAlign=middle;whiteSpace=wrap;rounded=0;strokeWidth=2;fontSize=10;" parent="1" vertex="1">
                    <mxGeometry x="2460" y="1828" width="65" height="30" as="geometry"/>
                </mxCell>
                <mxCell id="387" value="[Task was assigned to other user]" style="text;strokeColor=none;align=center;fillColor=none;html=1;verticalAlign=middle;whiteSpace=wrap;rounded=0;strokeWidth=2;fontSize=10;" parent="1" vertex="1">
                    <mxGeometry x="2330" y="1888" width="115" height="30" as="geometry"/>
                </mxCell>
                <mxCell id="394" style="edgeStyle=orthogonalEdgeStyle;jumpStyle=arc;jumpSize=8;html=1;exitX=0;exitY=0.5;exitDx=0;exitDy=0;entryX=0;entryY=0.5;entryDx=0;entryDy=0;fontSize=10;" parent="1" source="389" target="319" edge="1">
                    <mxGeometry relative="1" as="geometry">
                        <Array as="points">
                            <mxPoint x="2190" y="2105"/>
                            <mxPoint x="2190" y="1900"/>
                            <mxPoint x="2310" y="1900"/>
                            <mxPoint x="2310" y="1620"/>
                        </Array>
                    </mxGeometry>
                </mxCell>
                <mxCell id="389" value="Continue" style="rhombus;whiteSpace=wrap;html=1;strokeWidth=2;fontSize=10;fillColor=default;" parent="1" vertex="1">
                    <mxGeometry x="2422.5" y="2080" width="55" height="50" as="geometry"/>
                </mxCell>
                <mxCell id="419" style="edgeStyle=orthogonalEdgeStyle;jumpStyle=arc;jumpSize=8;html=1;exitX=0.5;exitY=1;exitDx=0;exitDy=0;entryX=0.5;entryY=0;entryDx=0;entryDy=0;fontSize=10;" parent="1" source="397" target="408" edge="1">
                    <mxGeometry relative="1" as="geometry"/>
                </mxCell>
                <mxCell id="397" value="Event Page" style="whiteSpace=wrap;html=1;strokeWidth=2;fillColor=default;" parent="1" vertex="1">
                    <mxGeometry x="3090" y="1700" width="120" height="60" as="geometry"/>
                </mxCell>
                <mxCell id="415" style="edgeStyle=orthogonalEdgeStyle;jumpStyle=arc;jumpSize=8;html=1;exitX=0;exitY=0.5;exitDx=0;exitDy=0;entryX=0;entryY=0.5;entryDx=0;entryDy=0;fontSize=10;" parent="1" source="398" target="320" edge="1">
                    <mxGeometry relative="1" as="geometry"/>
                </mxCell>
                <mxCell id="398" value="Create an Event Page" style="whiteSpace=wrap;html=1;strokeWidth=2;fillColor=default;" parent="1" vertex="1">
                    <mxGeometry x="2920" y="1700" width="120" height="60" as="geometry"/>
                </mxCell>
                <mxCell id="404" style="edgeStyle=orthogonalEdgeStyle;jumpStyle=arc;jumpSize=8;html=1;exitX=0.25;exitY=1;exitDx=0;exitDy=0;entryX=0.433;entryY=0.006;entryDx=0;entryDy=0;entryPerimeter=0;fontSize=10;" parent="1" source="401" target="398" edge="1">
                    <mxGeometry relative="1" as="geometry"/>
                </mxCell>
                <mxCell id="405" style="edgeStyle=orthogonalEdgeStyle;jumpStyle=arc;jumpSize=8;html=1;exitX=0.75;exitY=1;exitDx=0;exitDy=0;entryX=0.5;entryY=0;entryDx=0;entryDy=0;fontSize=10;" parent="1" source="401" target="397" edge="1">
                    <mxGeometry relative="1" as="geometry"/>
                </mxCell>
                <mxCell id="401" value="" style="whiteSpace=wrap;html=1;strokeWidth=2;fontSize=10;fillColor=default;" parent="1" vertex="1">
                    <mxGeometry x="2940" y="1670" width="250" height="10" as="geometry"/>
                </mxCell>
                <mxCell id="437" style="edgeStyle=orthogonalEdgeStyle;jumpStyle=arc;jumpSize=8;html=1;exitX=0.5;exitY=1;exitDx=0;exitDy=0;entryX=0.5;entryY=0;entryDx=0;entryDy=0;fontSize=10;" parent="1" source="408" target="435" edge="1">
                    <mxGeometry relative="1" as="geometry"/>
                </mxCell>
                <mxCell id="438" style="edgeStyle=orthogonalEdgeStyle;jumpStyle=arc;jumpSize=8;html=1;exitX=1;exitY=0.5;exitDx=0;exitDy=0;entryX=1;entryY=0.5;entryDx=0;entryDy=0;fontSize=10;" parent="1" source="408" target="397" edge="1">
                    <mxGeometry relative="1" as="geometry">
                        <Array as="points">
                            <mxPoint x="3270" y="1805"/>
                            <mxPoint x="3270" y="1730"/>
                        </Array>
                    </mxGeometry>
                </mxCell>
                <mxCell id="408" value="" style="rhombus;whiteSpace=wrap;html=1;strokeWidth=2;fillColor=default;" parent="1" vertex="1">
                    <mxGeometry x="3135" y="1790" width="30" height="30" as="geometry"/>
                </mxCell>
                <mxCell id="432" style="edgeStyle=orthogonalEdgeStyle;jumpStyle=arc;jumpSize=8;html=1;exitX=0.5;exitY=1;exitDx=0;exitDy=0;entryX=0.5;entryY=0;entryDx=0;entryDy=0;fontSize=10;" parent="1" source="409" target="425" edge="1">
                    <mxGeometry relative="1" as="geometry"/>
                </mxCell>
                <mxCell id="446" style="edgeStyle=orthogonalEdgeStyle;jumpStyle=arc;jumpSize=8;html=1;exitX=1;exitY=0.25;exitDx=0;exitDy=0;entryX=0.5;entryY=0;entryDx=0;entryDy=0;fontSize=10;" parent="1" source="409" target="444" edge="1">
                    <mxGeometry relative="1" as="geometry">
                        <Array as="points">
                            <mxPoint x="3120" y="1905"/>
                            <mxPoint x="3120" y="1960"/>
                            <mxPoint x="3190" y="1960"/>
                        </Array>
                    </mxGeometry>
                </mxCell>
                <mxCell id="409" value="View attendees" style="whiteSpace=wrap;html=1;strokeWidth=2;fillColor=default;" parent="1" vertex="1">
                    <mxGeometry x="2940" y="1890" width="120" height="60" as="geometry"/>
                </mxCell>
                <mxCell id="447" style="edgeStyle=orthogonalEdgeStyle;jumpStyle=arc;jumpSize=8;html=1;exitX=0.5;exitY=1;exitDx=0;exitDy=0;entryX=0.5;entryY=0;entryDx=0;entryDy=0;fontSize=10;" parent="1" source="410" target="444" edge="1">
                    <mxGeometry relative="1" as="geometry"/>
                </mxCell>
                <mxCell id="410" value="Delete Event" style="whiteSpace=wrap;html=1;strokeWidth=2;fillColor=default;" parent="1" vertex="1">
                    <mxGeometry x="3130" y="1890" width="120" height="60" as="geometry"/>
                </mxCell>
                <mxCell id="448" style="edgeStyle=orthogonalEdgeStyle;jumpStyle=arc;jumpSize=8;html=1;exitX=0.5;exitY=1;exitDx=0;exitDy=0;entryX=0.5;entryY=0;entryDx=0;entryDy=0;fontSize=10;" parent="1" source="411" target="444" edge="1">
                    <mxGeometry relative="1" as="geometry"/>
                </mxCell>
                <mxCell id="411" value="Edit Event" style="whiteSpace=wrap;html=1;strokeWidth=2;fillColor=default;" parent="1" vertex="1">
                    <mxGeometry x="3290" y="1890" width="120" height="60" as="geometry"/>
                </mxCell>
                <mxCell id="414" style="edgeStyle=orthogonalEdgeStyle;jumpStyle=arc;jumpSize=8;html=1;exitX=0.5;exitY=1;exitDx=0;exitDy=0;entryX=0.5;entryY=0;entryDx=0;entryDy=0;fontSize=10;" parent="1" source="412" target="389" edge="1">
                    <mxGeometry relative="1" as="geometry"/>
                </mxCell>
                <mxCell id="412" value="Edit Task" style="whiteSpace=wrap;html=1;strokeWidth=2;fillColor=default;" parent="1" vertex="1">
                    <mxGeometry x="2700" y="1980" width="120" height="60" as="geometry"/>
                </mxCell>
                <mxCell id="428" style="edgeStyle=orthogonalEdgeStyle;jumpStyle=arc;jumpSize=8;html=1;exitX=0.25;exitY=1;exitDx=0;exitDy=0;fontSize=10;" parent="1" source="425" target="426" edge="1">
                    <mxGeometry relative="1" as="geometry"/>
                </mxCell>
                <mxCell id="429" style="edgeStyle=orthogonalEdgeStyle;jumpStyle=arc;jumpSize=8;html=1;exitX=0.75;exitY=1;exitDx=0;exitDy=0;entryX=0.5;entryY=0;entryDx=0;entryDy=0;fontSize=10;" parent="1" source="425" target="427" edge="1">
                    <mxGeometry relative="1" as="geometry"/>
                </mxCell>
                <mxCell id="425" value="" style="whiteSpace=wrap;html=1;strokeWidth=2;fontSize=10;fillColor=default;" parent="1" vertex="1">
                    <mxGeometry x="2875" y="1990" width="250" height="10" as="geometry"/>
                </mxCell>
                <mxCell id="430" style="edgeStyle=orthogonalEdgeStyle;jumpStyle=arc;jumpSize=8;html=1;exitX=0;exitY=0.5;exitDx=0;exitDy=0;entryX=0;entryY=0.5;entryDx=0;entryDy=0;fontSize=10;" parent="1" source="426" target="409" edge="1">
                    <mxGeometry relative="1" as="geometry"/>
                </mxCell>
                <mxCell id="426" value="Add attendee" style="whiteSpace=wrap;html=1;strokeWidth=2;fillColor=default;" parent="1" vertex="1">
                    <mxGeometry x="2875" y="2020" width="120" height="60" as="geometry"/>
                </mxCell>
                <mxCell id="431" style="edgeStyle=orthogonalEdgeStyle;jumpStyle=arc;jumpSize=8;html=1;exitX=1;exitY=0.5;exitDx=0;exitDy=0;entryX=1;entryY=0.5;entryDx=0;entryDy=0;fontSize=10;" parent="1" source="427" target="409" edge="1">
                    <mxGeometry relative="1" as="geometry">
                        <Array as="points">
                            <mxPoint x="3140" y="2050"/>
                            <mxPoint x="3140" y="1970"/>
                            <mxPoint x="3080" y="1970"/>
                            <mxPoint x="3080" y="1920"/>
                        </Array>
                    </mxGeometry>
                </mxCell>
                <mxCell id="427" value="Remove Attendee" style="whiteSpace=wrap;html=1;strokeWidth=2;fillColor=default;" parent="1" vertex="1">
                    <mxGeometry x="3005" y="2020" width="120" height="60" as="geometry"/>
                </mxCell>
                <mxCell id="441" style="edgeStyle=orthogonalEdgeStyle;jumpStyle=arc;jumpSize=8;html=1;exitX=0.25;exitY=1;exitDx=0;exitDy=0;entryX=0.553;entryY=0.028;entryDx=0;entryDy=0;entryPerimeter=0;fontSize=10;" parent="1" source="435" target="409" edge="1">
                    <mxGeometry relative="1" as="geometry"/>
                </mxCell>
                <mxCell id="442" style="edgeStyle=orthogonalEdgeStyle;jumpStyle=arc;jumpSize=8;html=1;exitX=0.5;exitY=1;exitDx=0;exitDy=0;entryX=0.5;entryY=0;entryDx=0;entryDy=0;fontSize=10;" parent="1" source="435" target="410" edge="1">
                    <mxGeometry relative="1" as="geometry"/>
                </mxCell>
                <mxCell id="443" style="edgeStyle=orthogonalEdgeStyle;jumpStyle=arc;jumpSize=8;html=1;exitX=0.75;exitY=1;exitDx=0;exitDy=0;entryX=0.5;entryY=0;entryDx=0;entryDy=0;fontSize=10;" parent="1" source="435" target="411" edge="1">
                    <mxGeometry relative="1" as="geometry"/>
                </mxCell>
                <mxCell id="435" value="" style="whiteSpace=wrap;html=1;strokeWidth=2;fontSize=10;fillColor=default;" parent="1" vertex="1">
                    <mxGeometry x="2972.5" y="1853" width="355" height="10" as="geometry"/>
                </mxCell>
                <mxCell id="439" value="[User was assigned to this event]" style="text;strokeColor=none;align=center;fillColor=none;html=1;verticalAlign=middle;whiteSpace=wrap;rounded=0;strokeWidth=2;fontSize=10;" parent="1" vertex="1">
                    <mxGeometry x="3165" y="1772" width="100" height="30" as="geometry"/>
                </mxCell>
                <mxCell id="440" value="[User was created this event]" style="text;strokeColor=none;align=center;fillColor=none;html=1;verticalAlign=middle;whiteSpace=wrap;rounded=0;strokeWidth=2;fontSize=10;" parent="1" vertex="1">
                    <mxGeometry x="3150" y="1816" width="100" height="30" as="geometry"/>
                </mxCell>
                <mxCell id="449" style="edgeStyle=orthogonalEdgeStyle;jumpStyle=arc;jumpSize=8;html=1;exitX=0.5;exitY=1;exitDx=0;exitDy=0;entryX=0;entryY=0.5;entryDx=0;entryDy=0;fontSize=10;" parent="1" source="444" target="397" edge="1">
                    <mxGeometry relative="1" as="geometry">
                        <Array as="points">
                            <mxPoint x="3190" y="2120"/>
                            <mxPoint x="2850" y="2120"/>
                            <mxPoint x="2850" y="1820"/>
                            <mxPoint x="3060" y="1820"/>
                            <mxPoint x="3060" y="1730"/>
                        </Array>
                    </mxGeometry>
                </mxCell>
                <mxCell id="444" value="Continue" style="rhombus;whiteSpace=wrap;html=1;strokeWidth=2;fontSize=10;fillColor=default;" parent="1" vertex="1">
                    <mxGeometry x="3162.5" y="2060" width="55" height="50" as="geometry"/>
                </mxCell>
                <mxCell id="450" value="&lt;font style=&quot;font-size: 21px;&quot;&gt;Coordinator Section&lt;/font&gt;" style="swimlane;whiteSpace=wrap;html=1;strokeWidth=2;fontSize=12;fillColor=default;" parent="1" vertex="1">
                    <mxGeometry x="1290" y="1400" width="2680" height="880" as="geometry"/>
                </mxCell>
                <mxCell id="310" value="[Coordinator Account]" style="text;strokeColor=none;align=center;fillColor=none;html=1;verticalAlign=middle;whiteSpace=wrap;rounded=0;strokeWidth=2;fontSize=12;" parent="450" vertex="1">
                    <mxGeometry x="10" y="28" width="130" height="30" as="geometry"/>
                </mxCell>
                <mxCell id="308" value="Coordinator Dashboard" style="whiteSpace=wrap;html=1;strokeWidth=2;fillColor=default;" parent="450" vertex="1">
                    <mxGeometry x="1280" y="36" width="120" height="60" as="geometry"/>
                </mxCell>
                <mxCell id="691" style="edgeStyle=orthogonalEdgeStyle;jumpStyle=arc;jumpSize=8;html=1;exitX=0.75;exitY=1;exitDx=0;exitDy=0;entryX=0.5;entryY=0;entryDx=0;entryDy=0;fontSize=10;" parent="450" source="312" target="677" edge="1">
                    <mxGeometry relative="1" as="geometry"/>
                </mxCell>
                <mxCell id="312" value="" style="rounded=0;whiteSpace=wrap;html=1;strokeWidth=2;fillColor=default;" parent="450" vertex="1">
                    <mxGeometry x="635" y="120" width="1410" height="10" as="geometry"/>
                </mxCell>
                <mxCell id="315" style="edgeStyle=orthogonalEdgeStyle;jumpStyle=arc;jumpSize=8;html=1;exitX=0.5;exitY=1;exitDx=0;exitDy=0;entryX=0.5;entryY=0;entryDx=0;entryDy=0;fontSize=21;" parent="450" source="308" target="312" edge="1">
                    <mxGeometry relative="1" as="geometry"/>
                </mxCell>
                <mxCell id="476" style="edgeStyle=orthogonalEdgeStyle;jumpStyle=arc;jumpSize=8;html=1;exitX=0.5;exitY=1;exitDx=0;exitDy=0;entryX=0;entryY=0.5;entryDx=0;entryDy=0;fontSize=10;" parent="450" source="474" target="308" edge="1">
                    <mxGeometry relative="1" as="geometry">
                        <Array as="points">
                            <mxPoint x="1160" y="860"/>
                            <mxPoint x="50" y="860"/>
                            <mxPoint x="50" y="66"/>
                        </Array>
                    </mxGeometry>
                </mxCell>
                <mxCell id="474" value="&lt;font style=&quot;font-size: 12px;&quot;&gt;Continue&lt;/font&gt;" style="rhombus;whiteSpace=wrap;html=1;strokeWidth=2;fontSize=10;fillColor=default;" parent="450" vertex="1">
                    <mxGeometry x="1120" y="770" width="80" height="80" as="geometry"/>
                </mxCell>
                <mxCell id="677" value="My Profile" style="whiteSpace=wrap;html=1;strokeWidth=2;fontSize=10;fillColor=default;" parent="450" vertex="1">
                    <mxGeometry x="2450" y="160" width="123" height="60.5" as="geometry"/>
                </mxCell>
                <mxCell id="678" value="Log out" style="whiteSpace=wrap;html=1;strokeWidth=2;fillColor=default;" parent="450" vertex="1">
                    <mxGeometry x="2530" y="277.5" width="120" height="60" as="geometry"/>
                </mxCell>
                <mxCell id="679" value="" style="group" parent="450" vertex="1" connectable="0">
                    <mxGeometry x="2370" y="277.5" width="120" height="260" as="geometry"/>
                </mxCell>
                <mxCell id="680" value="Edit Profile" style="whiteSpace=wrap;html=1;strokeWidth=2;fontSize=10;fillColor=default;" parent="679" vertex="1">
                    <mxGeometry width="120" height="60" as="geometry"/>
                </mxCell>
                <mxCell id="681" value="Verify Password change using Email" style="whiteSpace=wrap;html=1;strokeWidth=2;fontSize=10;fillColor=default;" parent="679" vertex="1">
                    <mxGeometry y="200" width="120" height="60" as="geometry"/>
                </mxCell>
                <mxCell id="682" style="edgeStyle=orthogonalEdgeStyle;jumpStyle=arc;jumpSize=8;html=1;exitX=0.5;exitY=1;exitDx=0;exitDy=0;entryX=0.5;entryY=0;entryDx=0;entryDy=0;fontSize=10;" parent="679" source="683" target="681" edge="1">
                    <mxGeometry relative="1" as="geometry"/>
                </mxCell>
                <mxCell id="683" value="Edit Password" style="whiteSpace=wrap;html=1;strokeWidth=2;fontSize=10;fillColor=default;" parent="679" vertex="1">
                    <mxGeometry y="95" width="120" height="60" as="geometry"/>
                </mxCell>
                <mxCell id="684" style="edgeStyle=orthogonalEdgeStyle;jumpStyle=arc;jumpSize=8;html=1;exitX=0.5;exitY=1;exitDx=0;exitDy=0;entryX=0.5;entryY=0;entryDx=0;entryDy=0;fontSize=10;" parent="679" source="680" target="683" edge="1">
                    <mxGeometry relative="1" as="geometry"/>
                </mxCell>
                <mxCell id="685" style="edgeStyle=orthogonalEdgeStyle;jumpStyle=arc;jumpSize=8;html=1;exitX=0.5;exitY=1;exitDx=0;exitDy=0;entryX=0.5;entryY=0;entryDx=0;entryDy=0;fontSize=10;" parent="450" source="687" target="680" edge="1">
                    <mxGeometry relative="1" as="geometry"/>
                </mxCell>
                <mxCell id="686" style="edgeStyle=orthogonalEdgeStyle;jumpStyle=arc;jumpSize=8;html=1;exitX=0.5;exitY=1;exitDx=0;exitDy=0;fontSize=10;" parent="450" source="687" target="678" edge="1">
                    <mxGeometry relative="1" as="geometry"/>
                </mxCell>
                <mxCell id="687" value="" style="whiteSpace=wrap;html=1;strokeWidth=2;fontSize=10;fillColor=default;" parent="450" vertex="1">
                    <mxGeometry x="2399" y="237.5" width="225" height="10" as="geometry"/>
                </mxCell>
                <mxCell id="688" style="edgeStyle=orthogonalEdgeStyle;jumpStyle=arc;jumpSize=8;html=1;exitX=0;exitY=0.5;exitDx=0;exitDy=0;entryX=0;entryY=0.5;entryDx=0;entryDy=0;fontSize=10;" parent="450" source="680" target="677" edge="1">
                    <mxGeometry relative="1" as="geometry">
                        <Array as="points">
                            <mxPoint x="2350" y="307.5"/>
                            <mxPoint x="2350" y="190.5"/>
                        </Array>
                    </mxGeometry>
                </mxCell>
                <mxCell id="689" style="edgeStyle=orthogonalEdgeStyle;jumpStyle=arc;jumpSize=8;html=1;exitX=0.5;exitY=1;exitDx=0;exitDy=0;entryX=0.5;entryY=0;entryDx=0;entryDy=0;fontSize=10;" parent="450" source="677" target="687" edge="1">
                    <mxGeometry relative="1" as="geometry"/>
                </mxCell>
                <mxCell id="690" style="edgeStyle=orthogonalEdgeStyle;jumpStyle=arc;jumpSize=8;html=1;exitX=0;exitY=0.5;exitDx=0;exitDy=0;entryX=0;entryY=0.5;entryDx=0;entryDy=0;fontSize=10;" parent="450" source="681" target="677" edge="1">
                    <mxGeometry relative="1" as="geometry">
                        <Array as="points">
                            <mxPoint x="2350" y="507.5"/>
                            <mxPoint x="2350" y="190.5"/>
                        </Array>
                    </mxGeometry>
                </mxCell>
                <mxCell id="810" style="edgeStyle=orthogonalEdgeStyle;jumpStyle=arc;jumpSize=8;html=1;exitX=0.5;exitY=1;exitDx=0;exitDy=0;entryX=0.5;entryY=0;entryDx=0;entryDy=0;strokeWidth=2;fontSize=10;startArrow=none;startFill=0;endArrow=classic;endFill=1;" parent="450" source="807" target="808" edge="1">
                    <mxGeometry relative="1" as="geometry"/>
                </mxCell>
                <mxCell id="807" value="Upload Documentation" style="whiteSpace=wrap;html=1;strokeWidth=2;fillColor=default;" parent="450" vertex="1">
                    <mxGeometry x="370" y="550" width="120" height="60" as="geometry"/>
                </mxCell>
                <mxCell id="812" style="edgeStyle=orthogonalEdgeStyle;jumpStyle=arc;jumpSize=8;html=1;exitX=0;exitY=0.5;exitDx=0;exitDy=0;entryX=0;entryY=0.75;entryDx=0;entryDy=0;strokeWidth=2;fontSize=10;startArrow=none;startFill=0;endArrow=classic;endFill=1;" parent="450" source="808" target="807" edge="1">
                    <mxGeometry relative="1" as="geometry">
                        <Array as="points">
                            <mxPoint x="350" y="670"/>
                            <mxPoint x="350" y="595"/>
                        </Array>
                    </mxGeometry>
                </mxCell>
                <mxCell id="808" value="Upload Documentation&lt;br&gt;Button" style="whiteSpace=wrap;html=1;strokeWidth=2;fillColor=default;" parent="450" vertex="1">
                    <mxGeometry x="370" y="640" width="120" height="60" as="geometry"/>
                </mxCell>
                <mxCell id="462" style="edgeStyle=orthogonalEdgeStyle;jumpStyle=arc;jumpSize=8;html=1;exitX=1;exitY=0.5;exitDx=0;exitDy=0;entryX=0;entryY=0.5;entryDx=0;entryDy=0;fontSize=10;" parent="1" source="460" target="455" edge="1">
                    <mxGeometry relative="1" as="geometry"/>
                </mxCell>
                <mxCell id="778" style="edgeStyle=orthogonalEdgeStyle;jumpStyle=arc;jumpSize=8;html=1;exitX=0.5;exitY=1;exitDx=0;exitDy=0;entryX=0.5;entryY=0;entryDx=0;entryDy=0;fontSize=10;" parent="1" source="460" target="776" edge="1">
                    <mxGeometry relative="1" as="geometry"/>
                </mxCell>
                <mxCell id="460" value="" style="rhombus;whiteSpace=wrap;html=1;strokeWidth=2;fillColor=default;" parent="1" vertex="1">
                    <mxGeometry x="1236" y="2375" width="30" height="30" as="geometry"/>
                </mxCell>
                <mxCell id="463" value="[Supervisor Account]" style="text;strokeColor=none;align=center;fillColor=none;html=1;verticalAlign=middle;whiteSpace=wrap;rounded=0;strokeWidth=2;fontSize=12;" parent="1" vertex="1">
                    <mxGeometry x="1310" y="2360" width="130" height="30" as="geometry"/>
                </mxCell>
                <mxCell id="466" value="[Not a Coordinator Account]" style="text;strokeColor=none;align=center;fillColor=none;html=1;verticalAlign=middle;whiteSpace=wrap;rounded=0;strokeWidth=2;fontSize=12;" parent="1" vertex="1">
                    <mxGeometry x="1110" y="1490" width="130" height="30" as="geometry"/>
                </mxCell>
                <mxCell id="470" style="edgeStyle=orthogonalEdgeStyle;jumpStyle=arc;jumpSize=8;html=1;exitX=0.5;exitY=1;exitDx=0;exitDy=0;entryX=0.5;entryY=0;entryDx=0;entryDy=0;fontSize=10;" parent="1" source="467" target="469" edge="1">
                    <mxGeometry relative="1" as="geometry"/>
                </mxCell>
                <mxCell id="475" style="edgeStyle=orthogonalEdgeStyle;jumpStyle=arc;jumpSize=8;html=1;exitX=0;exitY=0.5;exitDx=0;exitDy=0;entryX=1;entryY=0.5;entryDx=0;entryDy=0;fontSize=10;" parent="1" source="467" target="474" edge="1">
                    <mxGeometry relative="1" as="geometry">
                        <Array as="points">
                            <mxPoint x="3430" y="1610"/>
                            <mxPoint x="3430" y="2210"/>
                        </Array>
                    </mxGeometry>
                </mxCell>
                <mxCell id="467" value="Projects Page" style="whiteSpace=wrap;html=1;strokeWidth=2;fillColor=default;" parent="1" vertex="1">
                    <mxGeometry x="3450" y="1580" width="120" height="60" as="geometry"/>
                </mxCell>
                <mxCell id="468" style="edgeStyle=orthogonalEdgeStyle;jumpStyle=arc;jumpSize=8;html=1;exitX=0.75;exitY=1;exitDx=0;exitDy=0;entryX=0.5;entryY=0;entryDx=0;entryDy=0;fontSize=10;" parent="1" source="312" target="467" edge="1">
                    <mxGeometry relative="1" as="geometry">
                        <Array as="points">
                            <mxPoint x="2938" y="1560"/>
                            <mxPoint x="3510" y="1560"/>
                        </Array>
                    </mxGeometry>
                </mxCell>
                <mxCell id="472" style="edgeStyle=orthogonalEdgeStyle;jumpStyle=arc;jumpSize=8;html=1;exitX=1;exitY=0.5;exitDx=0;exitDy=0;fontSize=10;" parent="1" source="469" edge="1">
                    <mxGeometry relative="1" as="geometry">
                        <mxPoint x="3570.176470588235" y="1610" as="targetPoint"/>
                        <Array as="points">
                            <mxPoint x="3600" y="1715"/>
                            <mxPoint x="3600" y="1610"/>
                        </Array>
                    </mxGeometry>
                </mxCell>
                <mxCell id="469" value="Project Page" style="whiteSpace=wrap;html=1;strokeWidth=2;fillColor=default;" parent="1" vertex="1">
                    <mxGeometry x="3450" y="1685" width="120" height="60" as="geometry"/>
                </mxCell>
                <mxCell id="486" style="edgeStyle=orthogonalEdgeStyle;jumpStyle=arc;jumpSize=8;html=1;exitX=0.5;exitY=1;exitDx=0;exitDy=0;fontSize=10;" parent="1" source="312" target="319" edge="1">
                    <mxGeometry relative="1" as="geometry"/>
                </mxCell>
                <mxCell id="487" style="edgeStyle=orthogonalEdgeStyle;jumpStyle=arc;jumpSize=8;html=1;exitX=0.25;exitY=1;exitDx=0;exitDy=0;entryX=0.5;entryY=0;entryDx=0;entryDy=0;fontSize=10;" parent="1" source="312" target="317" edge="1">
                    <mxGeometry relative="1" as="geometry"/>
                </mxCell>
                <mxCell id="605" style="edgeStyle=orthogonalEdgeStyle;jumpStyle=arc;jumpSize=8;html=1;exitX=0.5;exitY=1;exitDx=0;exitDy=0;entryX=0.5;entryY=0;entryDx=0;entryDy=0;fontSize=10;" parent="1" source="489" target="604" edge="1">
                    <mxGeometry relative="1" as="geometry"/>
                </mxCell>
                <mxCell id="648" style="edgeStyle=orthogonalEdgeStyle;jumpStyle=arc;jumpSize=8;html=1;exitX=0;exitY=0.5;exitDx=0;exitDy=0;entryX=0;entryY=0.5;entryDx=0;entryDy=0;fontSize=10;" parent="1" source="489" target="647" edge="1">
                    <mxGeometry relative="1" as="geometry">
                        <Array as="points">
                            <mxPoint x="1460" y="2530"/>
                            <mxPoint x="1460" y="3180"/>
                        </Array>
                    </mxGeometry>
                </mxCell>
                <mxCell id="489" value="Projects Management Page" style="whiteSpace=wrap;html=1;strokeWidth=2;fontSize=10;fillColor=default;" parent="1" vertex="1">
                    <mxGeometry x="1680" y="2500" width="120" height="60" as="geometry"/>
                </mxCell>
                <mxCell id="643" style="edgeStyle=orthogonalEdgeStyle;jumpStyle=arc;jumpSize=8;html=1;exitX=0.5;exitY=1;exitDx=0;exitDy=0;fontSize=10;" parent="1" source="492" target="489" edge="1">
                    <mxGeometry relative="1" as="geometry"/>
                </mxCell>
                <mxCell id="645" style="edgeStyle=orthogonalEdgeStyle;jumpStyle=arc;jumpSize=8;html=1;exitX=0.5;exitY=1;exitDx=0;exitDy=0;entryX=0.5;entryY=0;entryDx=0;entryDy=0;fontSize=10;" parent="1" source="492" target="523" edge="1">
                    <mxGeometry relative="1" as="geometry"/>
                </mxCell>
                <mxCell id="646" style="edgeStyle=orthogonalEdgeStyle;jumpStyle=arc;jumpSize=8;html=1;exitX=0.5;exitY=1;exitDx=0;exitDy=0;entryX=0.5;entryY=0;entryDx=0;entryDy=0;fontSize=10;" parent="1" source="492" target="556" edge="1">
                    <mxGeometry relative="1" as="geometry"/>
                </mxCell>
                <mxCell id="707" style="edgeStyle=orthogonalEdgeStyle;jumpStyle=arc;jumpSize=8;html=1;exitX=0.75;exitY=1;exitDx=0;exitDy=0;entryX=0.5;entryY=0;entryDx=0;entryDy=0;fontSize=10;" parent="1" source="492" target="693" edge="1">
                    <mxGeometry relative="1" as="geometry"/>
                </mxCell>
                <mxCell id="620" style="edgeStyle=orthogonalEdgeStyle;jumpStyle=arc;jumpSize=8;html=1;exitX=0.5;exitY=1;exitDx=0;exitDy=0;entryX=0.5;entryY=0;entryDx=0;entryDy=0;fontSize=10;" parent="1" source="600" target="619" edge="1">
                    <mxGeometry relative="1" as="geometry"/>
                </mxCell>
                <mxCell id="600" value="Create a new Project" style="whiteSpace=wrap;html=1;strokeWidth=2;fontSize=10;fillColor=default;" parent="1" vertex="1">
                    <mxGeometry x="1490" y="2620" width="120" height="60" as="geometry"/>
                </mxCell>
                <mxCell id="622" style="edgeStyle=orthogonalEdgeStyle;jumpStyle=arc;jumpSize=8;html=1;exitX=0.5;exitY=1;exitDx=0;exitDy=0;entryX=0.5;entryY=0;entryDx=0;entryDy=0;fontSize=10;" parent="1" source="601" target="603" edge="1">
                    <mxGeometry relative="1" as="geometry"/>
                </mxCell>
                <mxCell id="601" value="Browse Other Project" style="whiteSpace=wrap;html=1;strokeWidth=2;fontSize=10;fillColor=default;" parent="1" vertex="1">
                    <mxGeometry x="1680" y="2620" width="120" height="60" as="geometry"/>
                </mxCell>
                <mxCell id="624" style="edgeStyle=orthogonalEdgeStyle;jumpStyle=arc;jumpSize=8;html=1;exitX=0.5;exitY=1;exitDx=0;exitDy=0;fontSize=10;" parent="1" source="602" target="623" edge="1">
                    <mxGeometry relative="1" as="geometry"/>
                </mxCell>
                <mxCell id="602" value="My Project Page" style="whiteSpace=wrap;html=1;strokeWidth=2;fontSize=10;fillColor=default;" parent="1" vertex="1">
                    <mxGeometry x="1870" y="2730" width="120" height="60" as="geometry"/>
                </mxCell>
                <mxCell id="639" style="edgeStyle=orthogonalEdgeStyle;jumpStyle=arc;jumpSize=8;html=1;exitX=0.5;exitY=1;exitDx=0;exitDy=0;entryX=0;entryY=0.5;entryDx=0;entryDy=0;fontSize=10;" parent="1" source="603" target="634" edge="1">
                    <mxGeometry relative="1" as="geometry"/>
                </mxCell>
                <mxCell id="603" value="Other Project Page" style="whiteSpace=wrap;html=1;strokeWidth=2;fontSize=10;fillColor=default;" parent="1" vertex="1">
                    <mxGeometry x="1680" y="2730" width="120" height="60" as="geometry"/>
                </mxCell>
                <mxCell id="606" style="edgeStyle=orthogonalEdgeStyle;jumpStyle=arc;jumpSize=8;html=1;exitX=0.5;exitY=1;exitDx=0;exitDy=0;fontSize=10;" parent="1" source="604" target="600" edge="1">
                    <mxGeometry relative="1" as="geometry"/>
                </mxCell>
                <mxCell id="607" style="edgeStyle=orthogonalEdgeStyle;jumpStyle=arc;jumpSize=8;html=1;exitX=0.5;exitY=1;exitDx=0;exitDy=0;entryX=0.5;entryY=0;entryDx=0;entryDy=0;fontSize=10;" parent="1" source="604" target="601" edge="1">
                    <mxGeometry relative="1" as="geometry"/>
                </mxCell>
                <mxCell id="613" style="edgeStyle=orthogonalEdgeStyle;jumpStyle=arc;jumpSize=8;html=1;exitX=0.5;exitY=1;exitDx=0;exitDy=0;entryX=0.5;entryY=0;entryDx=0;entryDy=0;fontSize=10;" parent="1" source="604" target="612" edge="1">
                    <mxGeometry relative="1" as="geometry">
                        <Array as="points">
                            <mxPoint x="1740" y="2600"/>
                            <mxPoint x="1930" y="2600"/>
                        </Array>
                    </mxGeometry>
                </mxCell>
                <mxCell id="604" value="" style="whiteSpace=wrap;html=1;strokeWidth=2;fontSize=10;fillColor=default;" parent="1" vertex="1">
                    <mxGeometry x="1505" y="2580" width="470" height="10" as="geometry"/>
                </mxCell>
                <mxCell id="638" style="edgeStyle=orthogonalEdgeStyle;jumpStyle=arc;jumpSize=8;html=1;exitX=1;exitY=0.5;exitDx=0;exitDy=0;entryX=1;entryY=0.5;entryDx=0;entryDy=0;fontSize=10;" parent="1" source="611" target="489" edge="1">
                    <mxGeometry relative="1" as="geometry">
                        <Array as="points">
                            <mxPoint x="2190" y="2665"/>
                            <mxPoint x="2190" y="2530"/>
                        </Array>
                    </mxGeometry>
                </mxCell>
                <mxCell id="611" value="My Requested Project Page" style="whiteSpace=wrap;html=1;strokeWidth=2;fontSize=10;fillColor=default;" parent="1" vertex="1">
                    <mxGeometry x="2030" y="2635" width="120" height="60" as="geometry"/>
                </mxCell>
                <mxCell id="614" style="edgeStyle=orthogonalEdgeStyle;jumpStyle=arc;jumpSize=8;html=1;exitX=1;exitY=0.5;exitDx=0;exitDy=0;fontSize=10;" parent="1" source="612" target="611" edge="1">
                    <mxGeometry relative="1" as="geometry"/>
                </mxCell>
                <mxCell id="615" style="edgeStyle=orthogonalEdgeStyle;jumpStyle=arc;jumpSize=8;html=1;exitX=0.5;exitY=1;exitDx=0;exitDy=0;entryX=0.5;entryY=0;entryDx=0;entryDy=0;fontSize=10;" parent="1" source="612" target="602" edge="1">
                    <mxGeometry relative="1" as="geometry"/>
                </mxCell>
                <mxCell id="612" value="" style="rhombus;whiteSpace=wrap;html=1;strokeWidth=2;fillColor=default;" parent="1" vertex="1">
                    <mxGeometry x="1915" y="2650" width="30" height="30" as="geometry"/>
                </mxCell>
                <mxCell id="616" value="[Project is undergoing Request]" style="text;strokeColor=none;align=center;fillColor=none;html=1;verticalAlign=middle;whiteSpace=wrap;rounded=0;strokeWidth=2;fontSize=10;" parent="1" vertex="1">
                    <mxGeometry x="1940" y="2620" width="90" height="30" as="geometry"/>
                </mxCell>
                <mxCell id="617" value="[Project is accepted]" style="text;strokeColor=none;align=center;fillColor=none;html=1;verticalAlign=middle;whiteSpace=wrap;rounded=0;strokeWidth=2;fontSize=10;" parent="1" vertex="1">
                    <mxGeometry x="1830" y="2680" width="100" height="30" as="geometry"/>
                </mxCell>
                <mxCell id="640" style="edgeStyle=orthogonalEdgeStyle;jumpStyle=arc;jumpSize=8;html=1;exitX=0.5;exitY=1;exitDx=0;exitDy=0;entryX=0;entryY=0.5;entryDx=0;entryDy=0;fontSize=10;" parent="1" source="619" target="634" edge="1">
                    <mxGeometry relative="1" as="geometry"/>
                </mxCell>
                <mxCell id="619" value="Request Project Button" style="whiteSpace=wrap;html=1;strokeWidth=2;fontSize=10;fillColor=default;" parent="1" vertex="1">
                    <mxGeometry x="1490" y="2730" width="120" height="60" as="geometry"/>
                </mxCell>
                <mxCell id="641" style="edgeStyle=orthogonalEdgeStyle;jumpStyle=arc;jumpSize=8;html=1;exitX=0.5;exitY=1;exitDx=0;exitDy=0;entryX=0.5;entryY=0;entryDx=0;entryDy=0;fontSize=10;" parent="1" source="623" target="631" edge="1">
                    <mxGeometry relative="1" as="geometry"/>
                </mxCell>
                <mxCell id="623" value="Student Request Project Page" style="whiteSpace=wrap;html=1;strokeWidth=2;fontSize=10;fillColor=default;" parent="1" vertex="1">
                    <mxGeometry x="1870" y="2820" width="120" height="60" as="geometry"/>
                </mxCell>
                <mxCell id="636" style="edgeStyle=orthogonalEdgeStyle;jumpStyle=arc;jumpSize=8;html=1;exitX=0.5;exitY=1;exitDx=0;exitDy=0;fontSize=10;" parent="1" source="626" edge="1">
                    <mxGeometry relative="1" as="geometry">
                        <mxPoint x="1930" y="3030" as="targetPoint"/>
                    </mxGeometry>
                </mxCell>
                <mxCell id="626" value="Accept Student" style="whiteSpace=wrap;html=1;strokeWidth=2;fontSize=10;fillColor=default;" parent="1" vertex="1">
                    <mxGeometry x="1797.5" y="2940" width="120" height="60" as="geometry"/>
                </mxCell>
                <mxCell id="635" style="edgeStyle=orthogonalEdgeStyle;jumpStyle=arc;jumpSize=8;html=1;exitX=0.5;exitY=1;exitDx=0;exitDy=0;entryX=0.5;entryY=0;entryDx=0;entryDy=0;fontSize=10;" parent="1" source="629" target="634" edge="1">
                    <mxGeometry relative="1" as="geometry"/>
                </mxCell>
                <mxCell id="629" value="Decline Student" style="whiteSpace=wrap;html=1;strokeWidth=2;fontSize=10;fillColor=default;" parent="1" vertex="1">
                    <mxGeometry x="1942.5" y="2940" width="120" height="60" as="geometry"/>
                </mxCell>
                <mxCell id="633" style="edgeStyle=orthogonalEdgeStyle;jumpStyle=arc;jumpSize=8;html=1;exitX=0.5;exitY=1;exitDx=0;exitDy=0;entryX=0.5;entryY=0;entryDx=0;entryDy=0;fontSize=10;" parent="1" source="631" target="629" edge="1">
                    <mxGeometry relative="1" as="geometry"/>
                </mxCell>
                <mxCell id="642" style="edgeStyle=orthogonalEdgeStyle;jumpStyle=arc;jumpSize=8;html=1;exitX=0.5;exitY=1;exitDx=0;exitDy=0;fontSize=10;" parent="1" source="631" target="626" edge="1">
                    <mxGeometry relative="1" as="geometry"/>
                </mxCell>
                <mxCell id="631" value="" style="whiteSpace=wrap;html=1;strokeWidth=2;fontSize=10;fillColor=default;" parent="1" vertex="1">
                    <mxGeometry x="1870" y="2900" width="120" height="10" as="geometry"/>
                </mxCell>
                <mxCell id="649" style="edgeStyle=orthogonalEdgeStyle;jumpStyle=arc;jumpSize=8;html=1;exitX=1;exitY=0.25;exitDx=0;exitDy=0;entryX=1;entryY=0.5;entryDx=0;entryDy=0;fontSize=10;" parent="1" source="523" target="647" edge="1">
                    <mxGeometry relative="1" as="geometry">
                        <Array as="points">
                            <mxPoint x="2910" y="2525"/>
                            <mxPoint x="2910" y="3180"/>
                        </Array>
                    </mxGeometry>
                </mxCell>
                <mxCell id="523" value="Task Management Page" style="whiteSpace=wrap;html=1;strokeWidth=2;fillColor=default;" parent="1" vertex="1">
                    <mxGeometry x="2550" y="2510" width="120" height="60" as="geometry"/>
                </mxCell>
                <mxCell id="524" style="edgeStyle=orthogonalEdgeStyle;jumpStyle=arc;jumpSize=8;html=1;exitX=1;exitY=0.5;exitDx=0;exitDy=0;entryX=1;entryY=0.5;entryDx=0;entryDy=0;fontSize=10;" parent="1" source="525" target="523" edge="1">
                    <mxGeometry relative="1" as="geometry"/>
                </mxCell>
                <mxCell id="525" value="Create a new Task" style="whiteSpace=wrap;html=1;strokeWidth=2;fillColor=default;" parent="1" vertex="1">
                    <mxGeometry x="2640" y="2662" width="120" height="60" as="geometry"/>
                </mxCell>
                <mxCell id="527" value="Task Page" style="whiteSpace=wrap;html=1;strokeWidth=2;fillColor=default;" parent="1" vertex="1">
                    <mxGeometry x="2460" y="2662" width="120" height="60" as="geometry"/>
                </mxCell>
                <mxCell id="528" style="edgeStyle=orthogonalEdgeStyle;jumpStyle=arc;jumpSize=8;html=1;exitX=0.25;exitY=1;exitDx=0;exitDy=0;entryX=0.5;entryY=0;entryDx=0;entryDy=0;fontSize=10;" parent="1" source="530" target="527" edge="1">
                    <mxGeometry relative="1" as="geometry"/>
                </mxCell>
                <mxCell id="529" style="edgeStyle=orthogonalEdgeStyle;jumpStyle=arc;jumpSize=8;html=1;exitX=0.75;exitY=1;exitDx=0;exitDy=0;fontSize=10;" parent="1" source="530" target="525" edge="1">
                    <mxGeometry relative="1" as="geometry"/>
                </mxCell>
                <mxCell id="530" value="" style="whiteSpace=wrap;html=1;strokeWidth=2;fontSize=10;fillColor=default;" parent="1" vertex="1">
                    <mxGeometry x="2485" y="2605" width="250" height="10" as="geometry"/>
                </mxCell>
                <mxCell id="522" style="edgeStyle=orthogonalEdgeStyle;jumpStyle=arc;jumpSize=8;html=1;exitX=0.5;exitY=1;exitDx=0;exitDy=0;entryX=0.5;entryY=0;entryDx=0;entryDy=0;fontSize=10;" parent="1" source="523" target="530" edge="1">
                    <mxGeometry relative="1" as="geometry"/>
                </mxCell>
                <mxCell id="531" style="edgeStyle=orthogonalEdgeStyle;jumpStyle=arc;jumpSize=8;html=1;exitX=0.5;exitY=1;exitDx=0;exitDy=0;fontSize=10;" parent="1" source="532" edge="1">
                    <mxGeometry relative="1" as="geometry">
                        <mxPoint x="2520.0000000000005" y="3000" as="targetPoint"/>
                    </mxGeometry>
                </mxCell>
                <mxCell id="532" value="View Submission" style="whiteSpace=wrap;html=1;strokeWidth=2;fillColor=default;" parent="1" vertex="1">
                    <mxGeometry x="2280" y="2900" width="120" height="60" as="geometry"/>
                </mxCell>
                <mxCell id="533" style="edgeStyle=orthogonalEdgeStyle;jumpStyle=arc;jumpSize=8;html=1;exitX=1;exitY=0.5;exitDx=0;exitDy=0;entryX=1;entryY=0.5;entryDx=0;entryDy=0;fontSize=10;" parent="1" source="534" target="523" edge="1">
                    <mxGeometry relative="1" as="geometry">
                        <Array as="points">
                            <mxPoint x="2770" y="2793"/>
                            <mxPoint x="2770" y="2540"/>
                        </Array>
                    </mxGeometry>
                </mxCell>
                <mxCell id="534" value="Submit Task" style="whiteSpace=wrap;html=1;strokeWidth=2;fillColor=default;" parent="1" vertex="1">
                    <mxGeometry x="2602.5" y="2763" width="120" height="60" as="geometry"/>
                </mxCell>
                <mxCell id="536" value="Lock Task" style="whiteSpace=wrap;html=1;strokeWidth=2;fillColor=default;" parent="1" vertex="1">
                    <mxGeometry x="2460" y="2900" width="120" height="60" as="geometry"/>
                </mxCell>
                <mxCell id="537" style="edgeStyle=orthogonalEdgeStyle;jumpStyle=arc;jumpSize=8;html=1;exitX=0.5;exitY=1;exitDx=0;exitDy=0;fontSize=10;" parent="1" source="538" edge="1">
                    <mxGeometry relative="1" as="geometry">
                        <mxPoint x="2520.0000000000005" y="3000" as="targetPoint"/>
                    </mxGeometry>
                </mxCell>
                <mxCell id="538" value="Delete Task" style="whiteSpace=wrap;html=1;strokeWidth=2;fillColor=default;" parent="1" vertex="1">
                    <mxGeometry x="2622.5" y="2900" width="120" height="60" as="geometry"/>
                </mxCell>
                <mxCell id="539" style="edgeStyle=orthogonalEdgeStyle;jumpStyle=arc;jumpSize=8;html=1;exitX=1;exitY=0.5;exitDx=0;exitDy=0;entryX=0;entryY=0.5;entryDx=0;entryDy=0;fontSize=10;" parent="1" source="541" target="534" edge="1">
                    <mxGeometry relative="1" as="geometry"/>
                </mxCell>
                <mxCell id="541" value="" style="rhombus;whiteSpace=wrap;html=1;strokeWidth=2;fillColor=default;" parent="1" vertex="1">
                    <mxGeometry x="2505" y="2778" width="30" height="30" as="geometry"/>
                </mxCell>
                <mxCell id="526" style="edgeStyle=orthogonalEdgeStyle;jumpStyle=arc;jumpSize=8;html=1;exitX=0.5;exitY=1;exitDx=0;exitDy=0;entryX=0.5;entryY=0;entryDx=0;entryDy=0;fontSize=10;" parent="1" source="527" target="541" edge="1">
                    <mxGeometry relative="1" as="geometry"/>
                </mxCell>
                <mxCell id="542" style="edgeStyle=orthogonalEdgeStyle;jumpStyle=arc;jumpSize=8;html=1;exitX=0.5;exitY=1;exitDx=0;exitDy=0;entryX=0.5;entryY=0;entryDx=0;entryDy=0;fontSize=10;" parent="1" source="546" target="536" edge="1">
                    <mxGeometry relative="1" as="geometry"/>
                </mxCell>
                <mxCell id="543" style="edgeStyle=orthogonalEdgeStyle;jumpStyle=arc;jumpSize=8;html=1;exitX=0.25;exitY=1;exitDx=0;exitDy=0;entryX=0.5;entryY=0;entryDx=0;entryDy=0;fontSize=10;" parent="1" source="546" target="532" edge="1">
                    <mxGeometry relative="1" as="geometry"/>
                </mxCell>
                <mxCell id="544" style="edgeStyle=orthogonalEdgeStyle;jumpStyle=arc;jumpSize=8;html=1;exitX=0.75;exitY=1;exitDx=0;exitDy=0;fontSize=10;" parent="1" source="546" target="538" edge="1">
                    <mxGeometry relative="1" as="geometry"/>
                </mxCell>
                <mxCell id="546" value="" style="whiteSpace=wrap;html=1;strokeWidth=2;fontSize=10;fillColor=default;" parent="1" vertex="1">
                    <mxGeometry x="2365" y="2846" width="310" height="10" as="geometry"/>
                </mxCell>
                <mxCell id="540" style="edgeStyle=orthogonalEdgeStyle;jumpStyle=arc;jumpSize=8;html=1;exitX=0.5;exitY=1;exitDx=0;exitDy=0;entryX=0.5;entryY=0;entryDx=0;entryDy=0;fontSize=10;" parent="1" source="541" target="546" edge="1">
                    <mxGeometry relative="1" as="geometry"/>
                </mxCell>
                <mxCell id="547" value="[Task was assigned to user]" style="text;strokeColor=none;align=center;fillColor=none;html=1;verticalAlign=middle;whiteSpace=wrap;rounded=0;strokeWidth=2;fontSize=10;" parent="1" vertex="1">
                    <mxGeometry x="2530" y="2748" width="65" height="30" as="geometry"/>
                </mxCell>
                <mxCell id="548" value="[Task was assigned to other user]" style="text;strokeColor=none;align=center;fillColor=none;html=1;verticalAlign=middle;whiteSpace=wrap;rounded=0;strokeWidth=2;fontSize=10;" parent="1" vertex="1">
                    <mxGeometry x="2400" y="2808" width="115" height="30" as="geometry"/>
                </mxCell>
                <mxCell id="549" style="edgeStyle=orthogonalEdgeStyle;jumpStyle=arc;jumpSize=8;html=1;exitX=0;exitY=0.5;exitDx=0;exitDy=0;entryX=0;entryY=0.5;entryDx=0;entryDy=0;fontSize=10;" parent="1" source="550" target="523" edge="1">
                    <mxGeometry relative="1" as="geometry">
                        <Array as="points">
                            <mxPoint x="2260" y="3025"/>
                            <mxPoint x="2260" y="2820"/>
                            <mxPoint x="2380" y="2820"/>
                            <mxPoint x="2380" y="2540"/>
                        </Array>
                    </mxGeometry>
                </mxCell>
                <mxCell id="550" value="Continue" style="rhombus;whiteSpace=wrap;html=1;strokeWidth=2;fontSize=10;fillColor=default;" parent="1" vertex="1">
                    <mxGeometry x="2492.5" y="3000" width="55" height="50" as="geometry"/>
                </mxCell>
                <mxCell id="535" style="edgeStyle=orthogonalEdgeStyle;jumpStyle=arc;jumpSize=8;html=1;exitX=0.5;exitY=1;exitDx=0;exitDy=0;entryX=0.5;entryY=0;entryDx=0;entryDy=0;fontSize=10;" parent="1" source="536" target="550" edge="1">
                    <mxGeometry relative="1" as="geometry"/>
                </mxCell>
                <mxCell id="551" style="edgeStyle=orthogonalEdgeStyle;jumpStyle=arc;jumpSize=8;html=1;exitX=0.5;exitY=1;exitDx=0;exitDy=0;entryX=0.5;entryY=0;entryDx=0;entryDy=0;fontSize=10;" parent="1" source="552" target="550" edge="1">
                    <mxGeometry relative="1" as="geometry"/>
                </mxCell>
                <mxCell id="552" value="Edit Task" style="whiteSpace=wrap;html=1;strokeWidth=2;fillColor=default;" parent="1" vertex="1">
                    <mxGeometry x="2770" y="2900" width="120" height="60" as="geometry"/>
                </mxCell>
                <mxCell id="545" style="edgeStyle=orthogonalEdgeStyle;jumpStyle=arc;jumpSize=8;html=1;exitX=0.75;exitY=1;exitDx=0;exitDy=0;fontSize=10;" parent="1" source="546" target="552" edge="1">
                    <mxGeometry relative="1" as="geometry"/>
                </mxCell>
                <mxCell id="650" style="edgeStyle=orthogonalEdgeStyle;jumpStyle=arc;jumpSize=8;html=1;exitX=1;exitY=0.25;exitDx=0;exitDy=0;entryX=1;entryY=0.5;entryDx=0;entryDy=0;fontSize=10;" parent="1" source="556" target="647" edge="1">
                    <mxGeometry relative="1" as="geometry">
                        <Array as="points">
                            <mxPoint x="3530" y="2525"/>
                            <mxPoint x="3530" y="3180"/>
                        </Array>
                    </mxGeometry>
                </mxCell>
                <mxCell id="556" value="Event Management Page" style="whiteSpace=wrap;html=1;strokeWidth=2;fillColor=default;" parent="1" vertex="1">
                    <mxGeometry x="3105" y="2510" width="120" height="60" as="geometry"/>
                </mxCell>
                <mxCell id="558" value="Event Page" style="whiteSpace=wrap;html=1;strokeWidth=2;fillColor=default;" parent="1" vertex="1">
                    <mxGeometry x="3190" y="2620" width="120" height="60" as="geometry"/>
                </mxCell>
                <mxCell id="559" style="edgeStyle=orthogonalEdgeStyle;jumpStyle=arc;jumpSize=8;html=1;exitX=0;exitY=0.5;exitDx=0;exitDy=0;entryX=0;entryY=0.5;entryDx=0;entryDy=0;fontSize=10;" parent="1" source="560" target="556" edge="1">
                    <mxGeometry relative="1" as="geometry"/>
                </mxCell>
                <mxCell id="560" value="Create an Event Page" style="whiteSpace=wrap;html=1;strokeWidth=2;fillColor=default;" parent="1" vertex="1">
                    <mxGeometry x="3020" y="2620" width="120" height="60" as="geometry"/>
                </mxCell>
                <mxCell id="561" style="edgeStyle=orthogonalEdgeStyle;jumpStyle=arc;jumpSize=8;html=1;exitX=0.25;exitY=1;exitDx=0;exitDy=0;entryX=0.433;entryY=0.006;entryDx=0;entryDy=0;entryPerimeter=0;fontSize=10;" parent="1" source="563" target="560" edge="1">
                    <mxGeometry relative="1" as="geometry"/>
                </mxCell>
                <mxCell id="562" style="edgeStyle=orthogonalEdgeStyle;jumpStyle=arc;jumpSize=8;html=1;exitX=0.75;exitY=1;exitDx=0;exitDy=0;entryX=0.5;entryY=0;entryDx=0;entryDy=0;fontSize=10;" parent="1" source="563" target="558" edge="1">
                    <mxGeometry relative="1" as="geometry"/>
                </mxCell>
                <mxCell id="563" value="" style="whiteSpace=wrap;html=1;strokeWidth=2;fontSize=10;fillColor=default;" parent="1" vertex="1">
                    <mxGeometry x="3040" y="2590" width="250" height="10" as="geometry"/>
                </mxCell>
                <mxCell id="555" style="edgeStyle=orthogonalEdgeStyle;jumpStyle=arc;jumpSize=8;html=1;exitX=0.5;exitY=1;exitDx=0;exitDy=0;entryX=0.5;entryY=0;entryDx=0;entryDy=0;fontSize=10;" parent="1" source="556" target="563" edge="1">
                    <mxGeometry relative="1" as="geometry"/>
                </mxCell>
                <mxCell id="565" style="edgeStyle=orthogonalEdgeStyle;jumpStyle=arc;jumpSize=8;html=1;exitX=1;exitY=0.5;exitDx=0;exitDy=0;entryX=1;entryY=0.5;entryDx=0;entryDy=0;fontSize=10;" parent="1" source="566" target="558" edge="1">
                    <mxGeometry relative="1" as="geometry">
                        <Array as="points">
                            <mxPoint x="3370" y="2725"/>
                            <mxPoint x="3370" y="2650"/>
                        </Array>
                    </mxGeometry>
                </mxCell>
                <mxCell id="566" value="" style="rhombus;whiteSpace=wrap;html=1;strokeWidth=2;fillColor=default;" parent="1" vertex="1">
                    <mxGeometry x="3235" y="2710" width="30" height="30" as="geometry"/>
                </mxCell>
                <mxCell id="557" style="edgeStyle=orthogonalEdgeStyle;jumpStyle=arc;jumpSize=8;html=1;exitX=0.5;exitY=1;exitDx=0;exitDy=0;entryX=0.5;entryY=0;entryDx=0;entryDy=0;fontSize=10;" parent="1" source="558" target="566" edge="1">
                    <mxGeometry relative="1" as="geometry"/>
                </mxCell>
                <mxCell id="569" value="View attendees" style="whiteSpace=wrap;html=1;strokeWidth=2;fillColor=default;" parent="1" vertex="1">
                    <mxGeometry x="3040" y="2810" width="120" height="60" as="geometry"/>
                </mxCell>
                <mxCell id="571" value="Delete Event" style="whiteSpace=wrap;html=1;strokeWidth=2;fillColor=default;" parent="1" vertex="1">
                    <mxGeometry x="3230" y="2810" width="120" height="60" as="geometry"/>
                </mxCell>
                <mxCell id="573" value="Edit Event" style="whiteSpace=wrap;html=1;strokeWidth=2;fillColor=default;" parent="1" vertex="1">
                    <mxGeometry x="3390" y="2810" width="120" height="60" as="geometry"/>
                </mxCell>
                <mxCell id="576" value="" style="whiteSpace=wrap;html=1;strokeWidth=2;fontSize=10;fillColor=default;" parent="1" vertex="1">
                    <mxGeometry x="2975" y="2910" width="250" height="10" as="geometry"/>
                </mxCell>
                <mxCell id="567" style="edgeStyle=orthogonalEdgeStyle;jumpStyle=arc;jumpSize=8;html=1;exitX=0.5;exitY=1;exitDx=0;exitDy=0;entryX=0.5;entryY=0;entryDx=0;entryDy=0;fontSize=10;" parent="1" source="569" target="576" edge="1">
                    <mxGeometry relative="1" as="geometry"/>
                </mxCell>
                <mxCell id="577" style="edgeStyle=orthogonalEdgeStyle;jumpStyle=arc;jumpSize=8;html=1;exitX=0;exitY=0.5;exitDx=0;exitDy=0;entryX=0;entryY=0.5;entryDx=0;entryDy=0;fontSize=10;" parent="1" source="578" target="569" edge="1">
                    <mxGeometry relative="1" as="geometry"/>
                </mxCell>
                <mxCell id="578" value="Add attendee" style="whiteSpace=wrap;html=1;strokeWidth=2;fillColor=default;" parent="1" vertex="1">
                    <mxGeometry x="2975" y="2940" width="120" height="60" as="geometry"/>
                </mxCell>
                <mxCell id="574" style="edgeStyle=orthogonalEdgeStyle;jumpStyle=arc;jumpSize=8;html=1;exitX=0.25;exitY=1;exitDx=0;exitDy=0;fontSize=10;" parent="1" source="576" target="578" edge="1">
                    <mxGeometry relative="1" as="geometry"/>
                </mxCell>
                <mxCell id="579" style="edgeStyle=orthogonalEdgeStyle;jumpStyle=arc;jumpSize=8;html=1;exitX=1;exitY=0.5;exitDx=0;exitDy=0;entryX=1;entryY=0.5;entryDx=0;entryDy=0;fontSize=10;" parent="1" source="580" target="569" edge="1">
                    <mxGeometry relative="1" as="geometry">
                        <Array as="points">
                            <mxPoint x="3240" y="2970"/>
                            <mxPoint x="3240" y="2890"/>
                            <mxPoint x="3180" y="2890"/>
                            <mxPoint x="3180" y="2840"/>
                        </Array>
                    </mxGeometry>
                </mxCell>
                <mxCell id="580" value="Remove Attendee" style="whiteSpace=wrap;html=1;strokeWidth=2;fillColor=default;" parent="1" vertex="1">
                    <mxGeometry x="3105" y="2940" width="120" height="60" as="geometry"/>
                </mxCell>
                <mxCell id="575" style="edgeStyle=orthogonalEdgeStyle;jumpStyle=arc;jumpSize=8;html=1;exitX=0.75;exitY=1;exitDx=0;exitDy=0;entryX=0.5;entryY=0;entryDx=0;entryDy=0;fontSize=10;" parent="1" source="576" target="580" edge="1">
                    <mxGeometry relative="1" as="geometry"/>
                </mxCell>
                <mxCell id="581" style="edgeStyle=orthogonalEdgeStyle;jumpStyle=arc;jumpSize=8;html=1;exitX=0.25;exitY=1;exitDx=0;exitDy=0;entryX=0.553;entryY=0.028;entryDx=0;entryDy=0;entryPerimeter=0;fontSize=10;" parent="1" source="584" target="569" edge="1">
                    <mxGeometry relative="1" as="geometry"/>
                </mxCell>
                <mxCell id="582" style="edgeStyle=orthogonalEdgeStyle;jumpStyle=arc;jumpSize=8;html=1;exitX=0.5;exitY=1;exitDx=0;exitDy=0;entryX=0.5;entryY=0;entryDx=0;entryDy=0;fontSize=10;" parent="1" source="584" target="571" edge="1">
                    <mxGeometry relative="1" as="geometry"/>
                </mxCell>
                <mxCell id="583" style="edgeStyle=orthogonalEdgeStyle;jumpStyle=arc;jumpSize=8;html=1;exitX=0.75;exitY=1;exitDx=0;exitDy=0;entryX=0.5;entryY=0;entryDx=0;entryDy=0;fontSize=10;" parent="1" source="584" target="573" edge="1">
                    <mxGeometry relative="1" as="geometry"/>
                </mxCell>
                <mxCell id="584" value="" style="whiteSpace=wrap;html=1;strokeWidth=2;fontSize=10;fillColor=default;" parent="1" vertex="1">
                    <mxGeometry x="3072.5" y="2773" width="355" height="10" as="geometry"/>
                </mxCell>
                <mxCell id="564" style="edgeStyle=orthogonalEdgeStyle;jumpStyle=arc;jumpSize=8;html=1;exitX=0.5;exitY=1;exitDx=0;exitDy=0;entryX=0.5;entryY=0;entryDx=0;entryDy=0;fontSize=10;" parent="1" source="566" target="584" edge="1">
                    <mxGeometry relative="1" as="geometry"/>
                </mxCell>
                <mxCell id="585" value="[User was assigned to this event]" style="text;strokeColor=none;align=center;fillColor=none;html=1;verticalAlign=middle;whiteSpace=wrap;rounded=0;strokeWidth=2;fontSize=10;" parent="1" vertex="1">
                    <mxGeometry x="3265" y="2692" width="100" height="30" as="geometry"/>
                </mxCell>
                <mxCell id="586" value="[User was created this event]" style="text;strokeColor=none;align=center;fillColor=none;html=1;verticalAlign=middle;whiteSpace=wrap;rounded=0;strokeWidth=2;fontSize=10;" parent="1" vertex="1">
                    <mxGeometry x="3250" y="2736" width="100" height="30" as="geometry"/>
                </mxCell>
                <mxCell id="587" style="edgeStyle=orthogonalEdgeStyle;jumpStyle=arc;jumpSize=8;html=1;exitX=0.5;exitY=1;exitDx=0;exitDy=0;entryX=0;entryY=0.5;entryDx=0;entryDy=0;fontSize=10;" parent="1" source="588" target="558" edge="1">
                    <mxGeometry relative="1" as="geometry">
                        <Array as="points">
                            <mxPoint x="3290" y="3040"/>
                            <mxPoint x="2950" y="3040"/>
                            <mxPoint x="2950" y="2740"/>
                            <mxPoint x="3160" y="2740"/>
                            <mxPoint x="3160" y="2650"/>
                        </Array>
                    </mxGeometry>
                </mxCell>
                <mxCell id="588" value="Continue" style="rhombus;whiteSpace=wrap;html=1;strokeWidth=2;fontSize=10;fillColor=default;" parent="1" vertex="1">
                    <mxGeometry x="3262.5" y="2980" width="55" height="50" as="geometry"/>
                </mxCell>
                <mxCell id="568" style="edgeStyle=orthogonalEdgeStyle;jumpStyle=arc;jumpSize=8;html=1;exitX=1;exitY=0.25;exitDx=0;exitDy=0;entryX=0.5;entryY=0;entryDx=0;entryDy=0;fontSize=10;" parent="1" source="569" target="588" edge="1">
                    <mxGeometry relative="1" as="geometry">
                        <Array as="points">
                            <mxPoint x="3220" y="2825"/>
                            <mxPoint x="3220" y="2880"/>
                            <mxPoint x="3290" y="2880"/>
                        </Array>
                    </mxGeometry>
                </mxCell>
                <mxCell id="570" style="edgeStyle=orthogonalEdgeStyle;jumpStyle=arc;jumpSize=8;html=1;exitX=0.5;exitY=1;exitDx=0;exitDy=0;entryX=0.5;entryY=0;entryDx=0;entryDy=0;fontSize=10;" parent="1" source="571" target="588" edge="1">
                    <mxGeometry relative="1" as="geometry"/>
                </mxCell>
                <mxCell id="572" style="edgeStyle=orthogonalEdgeStyle;jumpStyle=arc;jumpSize=8;html=1;exitX=0.5;exitY=1;exitDx=0;exitDy=0;entryX=0.5;entryY=0;entryDx=0;entryDy=0;fontSize=10;" parent="1" source="573" target="588" edge="1">
                    <mxGeometry relative="1" as="geometry"/>
                </mxCell>
                <mxCell id="637" style="edgeStyle=orthogonalEdgeStyle;jumpStyle=arc;jumpSize=8;html=1;exitX=1;exitY=0.5;exitDx=0;exitDy=0;entryX=1;entryY=0.5;entryDx=0;entryDy=0;fontSize=10;" parent="1" source="634" target="489" edge="1">
                    <mxGeometry relative="1" as="geometry">
                        <Array as="points">
                            <mxPoint x="2190" y="3055"/>
                            <mxPoint x="2190" y="2530"/>
                        </Array>
                    </mxGeometry>
                </mxCell>
                <mxCell id="634" value="Continue" style="rhombus;whiteSpace=wrap;html=1;strokeWidth=2;fontSize=10;fillColor=default;" parent="1" vertex="1">
                    <mxGeometry x="1902.5" y="3030" width="55" height="50" as="geometry"/>
                </mxCell>
                <mxCell id="653" style="edgeStyle=orthogonalEdgeStyle;jumpStyle=arc;jumpSize=8;html=1;exitX=0.5;exitY=1;exitDx=0;exitDy=0;entryX=0;entryY=0.5;entryDx=0;entryDy=0;fontSize=10;" parent="1" source="647" target="455" edge="1">
                    <mxGeometry relative="1" as="geometry">
                        <Array as="points">
                            <mxPoint x="2585" y="3230"/>
                            <mxPoint x="1430" y="3230"/>
                            <mxPoint x="1430" y="2390"/>
                        </Array>
                    </mxGeometry>
                </mxCell>
                <mxCell id="647" value="&lt;font style=&quot;font-size: 12px;&quot;&gt;Continue&lt;/font&gt;" style="rhombus;whiteSpace=wrap;html=1;strokeWidth=2;fontSize=10;fillColor=default;" parent="1" vertex="1">
                    <mxGeometry x="2545" y="3140" width="80" height="80" as="geometry"/>
                </mxCell>
                <mxCell id="676" style="edgeStyle=orthogonalEdgeStyle;jumpStyle=arc;jumpSize=8;html=1;exitX=1;exitY=0.5;exitDx=0;exitDy=0;entryX=1;entryY=0.5;entryDx=0;entryDy=0;fontSize=10;" parent="1" source="297" target="181" edge="1">
                    <mxGeometry relative="1" as="geometry"/>
                </mxCell>
                <mxCell id="692" style="edgeStyle=orthogonalEdgeStyle;jumpStyle=arc;jumpSize=8;html=1;exitX=1;exitY=0.5;exitDx=0;exitDy=0;fontSize=10;entryX=1;entryY=0.5;entryDx=0;entryDy=0;" parent="1" source="678" target="181" edge="1">
                    <mxGeometry relative="1" as="geometry">
                        <mxPoint x="2152.5" y="190" as="targetPoint"/>
                    </mxGeometry>
                </mxCell>
                <mxCell id="709" style="edgeStyle=orthogonalEdgeStyle;jumpStyle=arc;jumpSize=8;html=1;exitX=0;exitY=0.25;exitDx=0;exitDy=0;entryX=1;entryY=0.5;entryDx=0;entryDy=0;fontSize=10;" parent="1" source="693" target="647" edge="1">
                    <mxGeometry relative="1" as="geometry">
                        <Array as="points">
                            <mxPoint x="3530" y="2525"/>
                            <mxPoint x="3530" y="3180"/>
                        </Array>
                    </mxGeometry>
                </mxCell>
                <mxCell id="693" value="My Profile" style="whiteSpace=wrap;html=1;strokeWidth=2;fontSize=10;fillColor=default;" parent="1" vertex="1">
                    <mxGeometry x="3660" y="2510" width="123" height="60.5" as="geometry"/>
                </mxCell>
                <mxCell id="708" style="edgeStyle=orthogonalEdgeStyle;jumpStyle=arc;jumpSize=8;html=1;exitX=1;exitY=0.5;exitDx=0;exitDy=0;fontSize=10;entryX=1;entryY=0.5;entryDx=0;entryDy=0;" parent="1" source="694" target="181" edge="1">
                    <mxGeometry relative="1" as="geometry">
                        <mxPoint x="2127.1428571428573" y="200" as="targetPoint"/>
                        <Array as="points">
                            <mxPoint x="3950" y="2658"/>
                            <mxPoint x="3950" y="180"/>
                        </Array>
                    </mxGeometry>
                </mxCell>
                <mxCell id="694" value="Log out" style="whiteSpace=wrap;html=1;strokeWidth=2;fillColor=default;" parent="1" vertex="1">
                    <mxGeometry x="3740" y="2627.5" width="120" height="60" as="geometry"/>
                </mxCell>
                <mxCell id="695" value="" style="group" parent="1" vertex="1" connectable="0">
                    <mxGeometry x="3580" y="2627.5" width="120" height="260" as="geometry"/>
                </mxCell>
                <mxCell id="696" value="Edit Profile" style="whiteSpace=wrap;html=1;strokeWidth=2;fontSize=10;fillColor=default;" parent="695" vertex="1">
                    <mxGeometry width="120" height="60" as="geometry"/>
                </mxCell>
                <mxCell id="697" value="Verify Password change using Email" style="whiteSpace=wrap;html=1;strokeWidth=2;fontSize=10;fillColor=default;" parent="695" vertex="1">
                    <mxGeometry y="200" width="120" height="60" as="geometry"/>
                </mxCell>
                <mxCell id="698" style="edgeStyle=orthogonalEdgeStyle;jumpStyle=arc;jumpSize=8;html=1;exitX=0.5;exitY=1;exitDx=0;exitDy=0;entryX=0.5;entryY=0;entryDx=0;entryDy=0;fontSize=10;" parent="695" source="699" target="697" edge="1">
                    <mxGeometry relative="1" as="geometry"/>
                </mxCell>
                <mxCell id="699" value="Edit Password" style="whiteSpace=wrap;html=1;strokeWidth=2;fontSize=10;fillColor=default;" parent="695" vertex="1">
                    <mxGeometry y="95" width="120" height="60" as="geometry"/>
                </mxCell>
                <mxCell id="700" style="edgeStyle=orthogonalEdgeStyle;jumpStyle=arc;jumpSize=8;html=1;exitX=0.5;exitY=1;exitDx=0;exitDy=0;entryX=0.5;entryY=0;entryDx=0;entryDy=0;fontSize=10;" parent="695" source="696" target="699" edge="1">
                    <mxGeometry relative="1" as="geometry"/>
                </mxCell>
                <mxCell id="701" style="edgeStyle=orthogonalEdgeStyle;jumpStyle=arc;jumpSize=8;html=1;exitX=0.5;exitY=1;exitDx=0;exitDy=0;entryX=0.5;entryY=0;entryDx=0;entryDy=0;fontSize=10;" parent="1" source="703" target="696" edge="1">
                    <mxGeometry relative="1" as="geometry"/>
                </mxCell>
                <mxCell id="702" style="edgeStyle=orthogonalEdgeStyle;jumpStyle=arc;jumpSize=8;html=1;exitX=0.5;exitY=1;exitDx=0;exitDy=0;fontSize=10;" parent="1" source="703" target="694" edge="1">
                    <mxGeometry relative="1" as="geometry"/>
                </mxCell>
                <mxCell id="703" value="" style="whiteSpace=wrap;html=1;strokeWidth=2;fontSize=10;fillColor=default;" parent="1" vertex="1">
                    <mxGeometry x="3609" y="2587.5" width="225" height="10" as="geometry"/>
                </mxCell>
                <mxCell id="704" style="edgeStyle=orthogonalEdgeStyle;jumpStyle=arc;jumpSize=8;html=1;exitX=0;exitY=0.5;exitDx=0;exitDy=0;entryX=0;entryY=0.5;entryDx=0;entryDy=0;fontSize=10;" parent="1" source="696" target="693" edge="1">
                    <mxGeometry relative="1" as="geometry">
                        <Array as="points">
                            <mxPoint x="3560" y="2657.5"/>
                            <mxPoint x="3560" y="2540.5"/>
                        </Array>
                    </mxGeometry>
                </mxCell>
                <mxCell id="705" style="edgeStyle=orthogonalEdgeStyle;jumpStyle=arc;jumpSize=8;html=1;exitX=0.5;exitY=1;exitDx=0;exitDy=0;entryX=0.5;entryY=0;entryDx=0;entryDy=0;fontSize=10;" parent="1" source="693" target="703" edge="1">
                    <mxGeometry relative="1" as="geometry"/>
                </mxCell>
                <mxCell id="706" style="edgeStyle=orthogonalEdgeStyle;jumpStyle=arc;jumpSize=8;html=1;exitX=0;exitY=0.5;exitDx=0;exitDy=0;entryX=0;entryY=0.5;entryDx=0;entryDy=0;fontSize=10;" parent="1" source="697" target="693" edge="1">
                    <mxGeometry relative="1" as="geometry">
                        <Array as="points">
                            <mxPoint x="3560" y="2857.5"/>
                            <mxPoint x="3560" y="2540.5"/>
                        </Array>
                    </mxGeometry>
                </mxCell>
                <mxCell id="754" value="&lt;font style=&quot;font-size: 21px;&quot;&gt;Supervisor Section&lt;/font&gt;" style="swimlane;whiteSpace=wrap;html=1;strokeWidth=2;fontSize=12;fillColor=default;" parent="1" vertex="1">
                    <mxGeometry x="1290" y="2320" width="2620" height="960" as="geometry"/>
                </mxCell>
                <mxCell id="455" value="Supervisor Dashboard" style="whiteSpace=wrap;html=1;strokeWidth=2;fillColor=default;" parent="754" vertex="1">
                    <mxGeometry x="1250" y="40" width="120" height="60" as="geometry"/>
                </mxCell>
                <mxCell id="492" value="" style="rounded=0;whiteSpace=wrap;html=1;strokeWidth=2;fillColor=default;" parent="754" vertex="1">
                    <mxGeometry x="605" y="130" width="1410" height="10" as="geometry"/>
                </mxCell>
                <mxCell id="493" style="edgeStyle=orthogonalEdgeStyle;jumpStyle=arc;jumpSize=8;html=1;exitX=0.5;exitY=1;exitDx=0;exitDy=0;entryX=0.5;entryY=0;entryDx=0;entryDy=0;fontSize=10;" parent="754" source="455" target="492" edge="1">
                    <mxGeometry relative="1" as="geometry"/>
                </mxCell>
                <mxCell id="780" style="edgeStyle=orthogonalEdgeStyle;jumpStyle=arc;jumpSize=8;html=1;exitX=0;exitY=0.5;exitDx=0;exitDy=0;entryX=0;entryY=0.5;entryDx=0;entryDy=0;fontSize=10;" parent="1" source="776" target="183" edge="1">
                    <mxGeometry relative="1" as="geometry">
                        <Array as="points">
                            <mxPoint x="1100" y="3390"/>
                            <mxPoint x="1100" y="400"/>
                        </Array>
                    </mxGeometry>
                </mxCell>
                <mxCell id="776" value="Exception: Account not found!" style="whiteSpace=wrap;html=1;strokeWidth=2;fontSize=10;fillColor=default;" parent="1" vertex="1">
                    <mxGeometry x="1191" y="3360" width="120" height="60" as="geometry"/>
                </mxCell>
                <mxCell id="779" value="[Not a supervisor account]" style="text;strokeColor=none;align=center;fillColor=none;html=1;verticalAlign=middle;whiteSpace=wrap;rounded=0;strokeWidth=2;fontSize=12;" parent="1" vertex="1">
                    <mxGeometry x="1110" y="2420" width="130" height="30" as="geometry"/>
                </mxCell>
                <mxCell id="786" value="TaskFile" style="swimlane;fontStyle=0;childLayout=stackLayout;horizontal=1;startSize=26;fillColor=none;horizontalStack=0;resizeParent=1;resizeParentMax=0;resizeLast=0;collapsible=1;marginBottom=0;whiteSpace=wrap;html=1;" parent="1" vertex="1">
                    <mxGeometry x="360" y="2080" width="172" height="104" as="geometry"/>
                </mxCell>
                <mxCell id="787" value="- taskFileID: integer (PK)" style="text;strokeColor=none;fillColor=none;align=left;verticalAlign=top;spacingLeft=4;spacingRight=4;overflow=hidden;rotatable=0;points=[[0,0.5],[1,0.5]];portConstraint=eastwest;whiteSpace=wrap;html=1;" parent="786" vertex="1">
                    <mxGeometry y="26" width="172" height="26" as="geometry"/>
                </mxCell>
                <mxCell id="797" value="- taskID: integer (FK)" style="text;strokeColor=none;fillColor=none;align=left;verticalAlign=top;spacingLeft=4;spacingRight=4;overflow=hidden;rotatable=0;points=[[0,0.5],[1,0.5]];portConstraint=eastwest;whiteSpace=wrap;html=1;" parent="786" vertex="1">
                    <mxGeometry y="52" width="172" height="26" as="geometry"/>
                </mxCell>
                <mxCell id="798" value="- taskFile : varchar" style="text;strokeColor=none;fillColor=none;align=left;verticalAlign=top;spacingLeft=4;spacingRight=4;overflow=hidden;rotatable=0;points=[[0,0.5],[1,0.5]];portConstraint=eastwest;whiteSpace=wrap;html=1;" parent="786" vertex="1">
                    <mxGeometry y="78" width="172" height="26" as="geometry"/>
                </mxCell>
                <mxCell id="799" style="edgeStyle=orthogonalEdgeStyle;jumpStyle=arc;jumpSize=8;html=1;exitX=0;exitY=0.5;exitDx=0;exitDy=0;entryX=1;entryY=0.5;entryDx=0;entryDy=0;fontSize=10;endArrow=none;endFill=0;startArrow=ERoneToMany;startFill=0;strokeWidth=2;" parent="1" source="797" target="130" edge="1">
                    <mxGeometry relative="1" as="geometry"/>
                </mxCell>
                <mxCell id="802" value="BatchDocumentation" style="swimlane;fontStyle=0;childLayout=stackLayout;horizontal=1;startSize=26;fillColor=none;horizontalStack=0;resizeParent=1;resizeParentMax=0;resizeLast=0;collapsible=1;marginBottom=0;whiteSpace=wrap;html=1;" parent="1" vertex="1">
                    <mxGeometry x="700" y="1110" width="193.5" height="104" as="geometry"/>
                </mxCell>
                <mxCell id="803" value="- batchID: integer (PK)" style="text;strokeColor=none;fillColor=none;align=left;verticalAlign=top;spacingLeft=4;spacingRight=4;overflow=hidden;rotatable=0;points=[[0,0.5],[1,0.5]];portConstraint=eastwest;whiteSpace=wrap;html=1;" parent="802" vertex="1">
                    <mxGeometry y="26" width="193.5" height="26" as="geometry"/>
                </mxCell>
                <mxCell id="804" value="- batchName: varchar" style="text;strokeColor=none;fillColor=none;align=left;verticalAlign=top;spacingLeft=4;spacingRight=4;overflow=hidden;rotatable=0;points=[[0,0.5],[1,0.5]];portConstraint=eastwest;whiteSpace=wrap;html=1;" parent="802" vertex="1">
                    <mxGeometry y="52" width="193.5" height="26" as="geometry"/>
                </mxCell>
                <mxCell id="805" value="- batchYear: varchar" style="text;strokeColor=none;fillColor=none;align=left;verticalAlign=top;spacingLeft=4;spacingRight=4;overflow=hidden;rotatable=0;points=[[0,0.5],[1,0.5]];portConstraint=eastwest;whiteSpace=wrap;html=1;" parent="802" vertex="1">
                    <mxGeometry y="78" width="193.5" height="26" as="geometry"/>
                </mxCell>
                <mxCell id="806" style="edgeStyle=orthogonalEdgeStyle;jumpStyle=arc;jumpSize=8;html=1;exitX=0;exitY=0.5;exitDx=0;exitDy=0;strokeWidth=2;fontSize=10;startArrow=ERoneToMany;startFill=0;endArrow=none;endFill=0;" parent="1" source="803" target="64" edge="1">
                    <mxGeometry relative="1" as="geometry"/>
                </mxCell>
                <mxCell id="813" style="edgeStyle=orthogonalEdgeStyle;jumpStyle=arc;jumpSize=8;html=1;exitX=0;exitY=0.5;exitDx=0;exitDy=0;entryX=0;entryY=0.5;entryDx=0;entryDy=0;strokeWidth=2;fontSize=10;startArrow=none;startFill=0;endArrow=classic;endFill=1;" parent="1" source="807" target="316" edge="1">
                    <mxGeometry relative="1" as="geometry">
                        <Array as="points">
                            <mxPoint x="1370" y="1980"/>
                            <mxPoint x="1370" y="1619"/>
                        </Array>
                    </mxGeometry>
                </mxCell>
                <mxCell id="816" style="edgeStyle=orthogonalEdgeStyle;jumpStyle=arc;jumpSize=8;html=1;exitX=0;exitY=0.5;exitDx=0;exitDy=0;strokeWidth=2;fontSize=10;startArrow=ERoneToMany;startFill=0;endArrow=none;endFill=0;" parent="1" source="814" target="61HQhyt6SDri8sVlv2gc-4" edge="1">
                    <mxGeometry relative="1" as="geometry">
                        <Array as="points">
                            <mxPoint x="330" y="1227"/>
                        </Array>
                    </mxGeometry>
                </mxCell>
                <mxCell id="822" value="" style="ellipse;whiteSpace=wrap;html=1;aspect=fixed;" parent="1" vertex="1">
                    <mxGeometry x="1385" y="170" width="20" height="20" as="geometry"/>
                </mxCell>
                <mxCell id="826" value="TaskSubmissionFile" style="swimlane;fontStyle=0;childLayout=stackLayout;horizontal=1;startSize=26;fillColor=none;horizontalStack=0;resizeParent=1;resizeParentMax=0;resizeLast=0;collapsible=1;marginBottom=0;whiteSpace=wrap;html=1;" parent="1" vertex="1">
                    <mxGeometry x="50" y="2150" width="247.5" height="104" as="geometry"/>
                </mxCell>
                <mxCell id="827" value="- taskSubmissionFileID: integer (PK)" style="text;strokeColor=none;fillColor=none;align=left;verticalAlign=top;spacingLeft=4;spacingRight=4;overflow=hidden;rotatable=0;points=[[0,0.5],[1,0.5]];portConstraint=eastwest;whiteSpace=wrap;html=1;" parent="826" vertex="1">
                    <mxGeometry y="26" width="247.5" height="26" as="geometry"/>
                </mxCell>
                <mxCell id="828" value="- taskID: integer (FK)" style="text;strokeColor=none;fillColor=none;align=left;verticalAlign=top;spacingLeft=4;spacingRight=4;overflow=hidden;rotatable=0;points=[[0,0.5],[1,0.5]];portConstraint=eastwest;whiteSpace=wrap;html=1;" parent="826" vertex="1">
                    <mxGeometry y="52" width="247.5" height="26" as="geometry"/>
                </mxCell>
                <mxCell id="829" value="- taskSubmissionFile: varchar" style="text;strokeColor=none;fillColor=none;align=left;verticalAlign=top;spacingLeft=4;spacingRight=4;overflow=hidden;rotatable=0;points=[[0,0.5],[1,0.5]];portConstraint=eastwest;whiteSpace=wrap;html=1;" parent="826" vertex="1">
                    <mxGeometry y="78" width="247.5" height="26" as="geometry"/>
                </mxCell>
                <mxCell id="830" style="edgeStyle=orthogonalEdgeStyle;html=1;exitX=0;exitY=0.5;exitDx=0;exitDy=0;entryX=0.012;entryY=0.221;entryDx=0;entryDy=0;entryPerimeter=0;endArrow=none;endFill=0;startArrow=ERoneToMany;startFill=0;strokeWidth=2;" parent="1" source="827" target="124" edge="1">
                    <mxGeometry relative="1" as="geometry">
                        <Array as="points">
                            <mxPoint x="30" y="2189"/>
                            <mxPoint x="30" y="1850"/>
                        </Array>
                    </mxGeometry>
                </mxCell>
            </root>
        </mxGraphModel>
    </diagram>
</mxfile>